<svg width="626" height="424" viewBox="0 0 626 424" fill="none" xmlns="http://www.w3.org/2000/svg">
<path d="M534.94 127.363C526.992 123.485 518.8 123.594 512.976 127.638C508.197 130.961 504.457 137.035 502.436 144.772C501.399 148.655 500.628 155.55 500.679 160.206C500.717 165.811 501.261 170.885 501.93 171.959C503.343 174.284 506.859 174.314 508.333 172.055C509.048 170.959 509.074 170.625 508.696 166.616C506.922 148.049 512.47 133.589 521.834 132.173C528.862 131.114 538.638 137.269 549.18 149.375C561.429 163.456 565.993 175.744 564.113 189.854C563.186 196.743 561.006 202.623 557.11 208.595C549.538 220.203 537.947 227.277 528.382 226.171C524.352 225.71 521.002 223.716 518.252 220.072C516.198 217.362 512.165 211.095 506.535 201.906C496.732 185.882 491.775 178.981 485.656 172.885C482.286 169.507 479.683 167.395 475.648 164.794C467.992 159.831 460.263 157.18 450.521 156.15C443.853 155.435 438.794 155.769 434.374 157.223C425.874 160 419.824 165.172 414.162 174.487C407.267 185.837 402.863 201.425 400.295 223.473C399.132 233.555 398.753 238.824 398.356 250.172L398.229 253.979L402.078 253.939C404.194 253.916 405.925 253.802 405.939 253.683C405.93 253.55 406.024 250.965 406.158 247.928C407.124 222.476 410.655 201.343 416.29 187.482C418.272 182.589 420.076 179.238 422.815 175.381C428.797 166.944 435.047 163.465 444.21 163.48C450.671 163.486 458.115 164.867 464.087 167.136C466.375 168.023 467.402 168.597 471.445 171.235C476.494 174.529 477.83 175.655 482.047 180.224C486.713 185.277 490.449 190.583 499.468 205.172C507.111 217.524 511.317 223.966 513.112 225.998C517.107 230.517 523.16 233.541 529.048 233.939C541.526 234.778 556.284 225.337 564.521 211.197C574.478 194.129 574.591 174.817 564.831 157.704C560.939 150.829 553.057 141.382 545.973 135.007C543.525 132.804 537.364 128.53 534.94 127.363Z" fill="#FC8DCF"/>
<path d="M471.148 254.187C457.609 248.107 430.988 244.781 401.816 245.575C382.311 246.099 362.9 248.456 346.352 252.355L339.023 254.058L307.949 254.731C180.219 257.469 72.549 261.585 23.3251 265.578C12.4689 266.473 -0.0398862 267.782 0.00398301 267.997C0.0588195 268.266 12.8995 269.273 23.7623 269.922C76.0229 272.854 175.778 274.444 307.333 274.388C334.757 274.365 340.558 274.511 343.214 275.171C355.258 278.177 375.818 280.767 390.718 281.158C392.975 281.231 394.941 281.394 395.028 281.544C395.146 281.714 395.43 285.305 395.652 289.554C397.339 320.369 403.787 341.555 419.822 369.229C425.091 378.311 427.319 381.817 428.224 382.407C429.29 383.103 431.439 383.339 432.931 382.959C433.972 382.705 434.625 382.198 435.661 380.822C437.776 378.003 437.558 377.208 431.727 367.433C414.072 337.723 408.096 318.85 406.678 288.258C406.394 281.915 406.445 281.202 407.208 281.373C407.993 281.512 420.054 281.03 425.767 280.605C440.318 279.555 457.846 276.343 466.158 273.275C472.282 271.02 475.625 269.002 477.579 266.359C478.883 264.644 479.17 263.992 479.165 262.729C479.249 259.845 475.958 256.345 471.148 254.187ZM464.94 262.219C465.553 264.811 453.148 267.727 434.743 269.388C424.456 270.328 406.273 271.014 406.196 270.497C405.973 268.579 406.378 255.035 406.679 254.998C406.872 254.984 409.138 254.97 411.663 254.984C442.192 255.215 463.946 258.165 464.94 262.219ZM395.046 262.803C395.041 266.905 394.938 270.383 394.852 270.514C394.682 270.776 383.348 270.425 375.966 269.948C370.089 269.566 358.61 268.095 355.051 267.266C349.309 265.899 346.811 264.363 347.814 262.825C349.33 260.502 361.478 257.838 377.241 256.413C381.719 255.975 394.81 255.186 395.004 255.312C395.036 255.333 395.082 258.722 395.046 262.803Z" fill="#FC8DCF"/>
</svg>
