<svg width="571" height="226" viewBox="0 0 571 226" fill="none" xmlns="http://www.w3.org/2000/svg">
<path d="M471.144 96.728C457.605 90.648 430.984 87.322 401.812 88.116C382.307 88.64 362.896 90.997 346.348 94.896L339.019 96.599L307.945 97.272C180.215 100.01 72.5451 104.126 23.3212 108.119C12.465 109.014 -0.0437541 110.323 0.000115062 110.538C0.0549516 110.807 12.8956 111.814 23.7584 112.463C76.019 115.395 175.774 116.985 307.329 116.929C334.753 116.906 340.554 117.052 343.21 117.712C355.254 120.718 375.814 123.308 390.714 123.699C392.971 123.772 394.937 123.935 395.024 124.085C395.142 124.255 395.426 127.846 395.648 132.095C397.335 162.91 403.783 184.096 419.818 211.77C425.087 220.852 427.315 224.358 428.22 224.948C429.286 225.644 431.435 225.88 432.927 225.5C433.968 225.246 434.621 224.739 435.657 223.363C437.772 220.544 437.554 219.749 431.723 209.974C414.068 180.264 408.092 161.391 406.674 130.799C406.39 124.456 406.441 123.743 407.204 123.914C407.989 124.053 420.05 123.571 425.763 123.146C440.314 122.096 457.842 118.884 466.154 115.816C472.278 113.561 475.621 111.543 477.575 108.9C478.879 107.185 479.166 106.533 479.161 105.27C479.245 102.386 475.954 98.886 471.144 96.728ZM464.936 104.76C465.549 107.352 453.144 110.268 434.739 111.929C424.452 112.869 406.269 113.555 406.192 113.038C405.969 111.12 406.374 97.576 406.675 97.539C406.868 97.525 409.134 97.511 411.659 97.525C442.188 97.756 463.942 100.706 464.936 104.76ZM395.042 105.344C395.037 109.446 394.934 112.924 394.848 113.055C394.678 113.317 383.344 112.966 375.962 112.489C370.085 112.107 358.606 110.636 355.047 109.807C349.305 108.44 346.807 106.904 347.81 105.366C349.326 103.043 361.474 100.379 377.237 98.954C381.715 98.516 394.806 97.727 395 97.853C395.032 97.874 395.078 101.263 395.042 105.344Z" fill="#FC8DCF"/>
<path d="M515.687 8.1685C507.262 5.47916 499.172 6.77026 493.993 11.6131C489.744 15.5915 486.921 22.142 486.038 30.0898C485.573 34.0819 485.806 41.0159 486.529 45.6157C487.376 51.1565 488.647 56.0987 489.464 57.0648C491.198 59.1613 494.682 58.6831 495.814 56.2349C496.363 55.0471 496.341 54.7129 495.388 50.8005C490.951 32.6845 494.352 17.5748 503.413 14.8211C510.214 12.7581 520.777 17.4365 532.957 27.8929C547.111 40.057 553.402 51.5569 553.58 65.7905C553.658 72.7411 552.35 78.8744 549.357 85.3465C543.542 97.9264 533.094 106.6 523.469 106.888C519.415 107.014 515.812 105.524 512.565 102.316C510.141 99.9308 505.245 94.3121 498.347 86.0326C486.332 71.5926 480.43 65.4799 473.495 60.3317C469.672 57.4758 466.792 55.762 462.423 53.7711C454.131 49.9659 446.1 48.4591 436.311 48.847C429.61 49.1026 424.652 50.1639 420.488 52.241C412.479 56.2166 407.239 62.2083 402.982 72.2434C397.799 84.4703 395.692 100.531 396.336 122.719C396.641 132.863 397.027 138.131 398.274 149.418L398.698 153.203L402.501 152.608C404.591 152.279 406.287 151.916 406.284 151.797C406.256 151.666 405.976 149.095 405.67 146.07C402.949 120.746 403.391 99.3243 406.965 84.7947C408.219 79.6668 409.52 76.0904 411.673 71.8782C416.374 62.6656 422.056 58.3204 431.125 57.0117C437.519 56.0844 445.085 56.3757 451.322 57.7584C453.714 58.3056 454.813 58.7252 459.195 60.7516C464.666 63.2818 466.151 64.203 470.984 68.115C476.331 72.4411 480.794 77.1518 491.825 90.2851C501.172 101.404 506.265 107.171 508.335 108.922C512.94 112.817 519.367 114.935 525.25 114.478C537.719 113.506 550.958 102.032 557.067 86.8507C564.454 68.5235 561.776 49.3977 549.647 33.8739C544.803 27.6332 535.639 19.4237 527.708 14.1387C524.968 12.3124 518.254 8.97314 515.687 8.1685Z" fill="#FC8DCF"/>
</svg>
