<svg width="66" height="49" viewBox="0 0 66 49" fill="none" xmlns="http://www.w3.org/2000/svg">
<g filter="url(#filter0_dd_20_326)">
<rect x="9.8429" y="5" width="46.6143" height="30.0304" rx="5.37857" fill="white"/>
<rect x="9.73084" y="4.88795" width="46.8384" height="30.2545" rx="5.49062" stroke="#D6DCE5" stroke-width="0.224107"/>
<path fill-rule="evenodd" clip-rule="evenodd" d="M34.2417 15.6262L32.15 16.0588V14.4246L34.2417 14V15.6262ZM38.5916 16.5314C37.7749 16.5314 37.2499 16.8999 36.9582 17.1562L36.8499 16.6596H35.0165V26L37.0999 25.5754L37.1082 23.3084C37.4082 23.5167 37.8499 23.8131 38.5832 23.8131C40.0749 23.8131 41.4332 22.6595 41.4332 20.1201C41.4249 17.7971 40.0499 16.5314 38.5916 16.5314ZM38.0915 22.0507C37.5999 22.0507 37.3082 21.8825 37.1082 21.6742L37.0999 18.7022C37.3165 18.47 37.6165 18.3098 38.0915 18.3098C38.8499 18.3098 39.3749 19.1268 39.3749 20.1762C39.3749 21.2496 38.8582 22.0507 38.0915 22.0507ZM48 20.2002C48 18.1495 46.9666 16.5314 44.9916 16.5314C43.0084 16.5314 41.8084 18.1495 41.8084 20.1843C41.8084 22.5954 43.225 23.8131 45.2584 23.8131C46.25 23.8131 47 23.5968 47.5666 23.2924V21.6902C47 21.9626 46.35 22.1308 45.525 22.1308C44.7166 22.1308 44 21.8585 43.9084 20.9132H47.9834C47.9834 20.8691 47.9864 20.769 47.9898 20.6535C47.9945 20.4965 48 20.311 48 20.2002ZM43.8833 19.4393C43.8833 18.5341 44.4583 18.1576 44.9833 18.1576C45.4916 18.1576 46.0333 18.5341 46.0333 19.4393H43.8833ZM32.1499 16.6676H34.2416V23.6769H32.1499V16.6676ZM29.7751 16.6676L29.9084 17.2604C30.4001 16.3952 31.3751 16.5714 31.6417 16.6676V18.51C31.3834 18.4219 30.5501 18.3098 30.0584 18.9266V23.6769H27.9751V16.6676H29.7751ZM25.7416 14.9292L23.7082 15.3458L23.6999 21.7623C23.6999 22.9479 24.6249 23.8211 25.8582 23.8211C26.5416 23.8211 27.0416 23.7009 27.3166 23.5567V21.9306C27.0499 22.0347 25.7332 22.4032 25.7332 21.2176V18.3738H27.3166V16.6676H25.7332L25.7416 14.9292ZM20.8167 18.2697C20.375 18.2697 20.1084 18.3899 20.1084 18.7023C20.1084 19.0434 20.5673 19.1935 21.1366 19.3796C22.0648 19.6831 23.2865 20.0825 23.2917 21.5621C23.2917 22.996 22.1 23.8211 20.3667 23.8211C19.65 23.8211 18.8666 23.6849 18.0916 23.3645V21.4579C18.7916 21.8265 19.675 22.0988 20.3667 22.0988C20.8334 22.0988 21.1667 21.9786 21.1667 21.6101C21.1667 21.2323 20.6692 21.0596 20.0686 20.8511C19.1539 20.5336 18 20.133 18 18.7984C18 17.3805 19.125 16.5314 20.8167 16.5314C21.5084 16.5314 22.1917 16.6355 22.8834 16.8999V18.7824C22.25 18.454 21.45 18.2697 20.8167 18.2697Z" fill="#6461FC"/>
</g>
<defs>
<filter id="filter0_dd_20_326" x="0.654489" y="0.293736" width="64.9911" height="48.4071" filterUnits="userSpaceOnUse" color-interpolation-filters="sRGB">
<feFlood flood-opacity="0" result="BackgroundImageFix"/>
<feColorMatrix in="SourceAlpha" type="matrix" values="0 0 0 0 0 0 0 0 0 0 0 0 0 0 0 0 0 0 127 0" result="hardAlpha"/>
<feOffset dy="0.448214"/>
<feGaussianBlur stdDeviation="2.24107"/>
<feColorMatrix type="matrix" values="0 0 0 0 0.717647 0 0 0 0 0.717647 0 0 0 0 0.717647 0 0 0 0.08 0"/>
<feBlend mode="normal" in2="BackgroundImageFix" result="effect1_dropShadow_20_326"/>
<feColorMatrix in="SourceAlpha" type="matrix" values="0 0 0 0 0 0 0 0 0 0 0 0 0 0 0 0 0 0 127 0" result="hardAlpha"/>
<feOffset dy="4.48214"/>
<feGaussianBlur stdDeviation="4.48214"/>
<feColorMatrix type="matrix" values="0 0 0 0 0.717647 0 0 0 0 0.717647 0 0 0 0 0.717647 0 0 0 0.08 0"/>
<feBlend mode="normal" in2="effect1_dropShadow_20_326" result="effect2_dropShadow_20_326"/>
<feBlend mode="normal" in="SourceGraphic" in2="effect2_dropShadow_20_326" result="shape"/>
</filter>
</defs>
</svg>
