<?xml version="1.0" encoding="UTF-8"?>
<svg id="Layer_2" data-name="Layer 2" xmlns="http://www.w3.org/2000/svg" viewBox="0 0 336.18 43.92">
  <defs>
    <style>
      .cls-1 {
        fill: #322d35;
        stroke-width: 0px;
      }
    </style>
  </defs>
  <g id="OBJECTS">
    <g>
      <path class="cls-1" d="m166.46,14.97s11.25-7.64,7.14-13.38c-3.02-4.21-7.14,1.24-7.14,1.24,0,0-4.12-5.45-7.14-1.24-4.11,5.74,7.14,13.38,7.14,13.38Z"/>
      <path class="cls-1" d="m331.31,28.91c-2.06-.58-4.02-1.44-5.85-2.56l-2.92,2.92h-5.27c.63-.59,1.22-1.2,1.64-1.99.69-1.28.81-2.71.61-4.13-.37-2.68-2.99-4.82-5.73-4.47-.69.09-1.28.52-1.28,1.28,0,.64.59,1.36,1.28,1.28.53-.06.89-.03,1.28.07.44.11.71.24,1.12.53.66.46,1.05,1.24,1.3,2.11.33,1.11.41,2.09.02,3.19-.26.73-.6,1.46-.99,2.14h-19.53c-.22-1.4-.68-2.78-1.41-4.07-2.64-4.67-7.82-7.33-13.12-7.16-2.86.1-5.67.92-8.17,2.3-2.52,1.39-4.59,3.39-6.52,5.5-1.94,2.12-3.66,4.38-5.94,6.18-2.18,1.72-4.69,3.11-7.3,4.06-4.21,1.53-8.91,2.25-13.45,1.95.03-.02.07-.04.1-.06,1.4-.24,2.76-.43,4.11-.96,1.39-.54,2.72-1.24,3.96-2.07,4.47-2.98,7.89-7.51,9.31-12.72,1.44-5.29.81-11.86-3.68-15.54-1-.82-2.33-.05-2.11,1.23.48,2.74-.44,5.61-2.32,7.64-1.07,1.16.63,2.89,1.74,1.74,1.69-1.74,2.72-3.93,3.06-6.25.81,1.4,1.3,3,1.48,4.63.56,4.89-1.13,9.75-4.01,13.66-1.46,1.98-3.29,3.7-5.32,5.06-1.36.92-2.94,1.82-4.56,2.45,2.42-1.97,4.09-5.01,4.59-8.02.83-4.99-1.39-9.93-5.39-12.96-4.19-3.18-9.7-4.16-14.71-2.49-5.05,1.68-9.27,5.67-11.46,10.5-1.34,2.98-1.9,6.16-2.18,9.4-.06.73-.13,1.47-.18,2.2-2.51-4.27-6.37-7.72-10.41-10.75-5.97-4.47-12.88-8.48-20.62-7.28-3.49.54-6.72,2.27-8.91,5.07-.72.92-1.31,1.93-1.78,3-.43-.17-.86-.33-1.3-.47.46-1.41.97-2.8,1.53-4.18,2.19-5.31,5.34-10.39,10.15-13.66.25-.17.03-.58-.24-.41-2.16,1.31-4.21,2.94-5.93,4.78-3.28,3.5-5.66,7.48-7.35,11.95-.12.31-.22.62-.33.92-.47-.1-.94-.19-1.41-.26-.07,0-.13,0-.2,0-.06,0-.12-.02-.2,0-.47.06-.94.15-1.41.26-.11-.31-.22-.62-.33-.92-1.7-4.47-4.07-8.45-7.35-11.95-1.73-1.84-3.78-3.47-5.94-4.78-.26-.16-.49.24-.24.41,4.82,3.28,7.96,8.35,10.15,13.66.57,1.37,1.07,2.77,1.54,4.18-.44.15-.87.3-1.3.47-.47-1.07-1.06-2.08-1.78-3-2.19-2.8-5.41-4.53-8.91-5.07-7.74-1.2-14.66,2.8-20.62,7.28-4.04,3.03-7.9,6.48-10.41,10.75-.05-.74-.12-1.48-.18-2.2-.27-3.23-.83-6.42-2.18-9.4-2.18-4.84-6.4-8.82-11.46-10.5-5.01-1.67-10.52-.69-14.71,2.49-4,3.04-6.22,7.97-5.39,12.96.54,3.22,2.4,6.47,5.1,8.41-1.99-.61-3.99-1.72-5.66-2.84-2.04-1.37-3.86-3.09-5.32-5.06-2.89-3.91-4.57-8.77-4.01-13.66.19-1.64.67-3.23,1.48-4.63.34,2.32,1.37,4.51,3.06,6.25,1.11,1.14,2.82-.58,1.74-1.74-1.88-2.03-2.8-4.9-2.32-7.64.22-1.27-1.11-2.04-2.11-1.23-4.49,3.69-5.12,10.26-3.68,15.54,1.42,5.2,4.84,9.74,9.31,12.72,1.24.83,2.57,1.53,3.96,2.07,1.45.57,2.92.75,4.44,1.02.1.02.18-.02.23-.07.05.02.09.05.14.08-4.54.31-9.24-.42-13.45-1.95-2.61-.95-5.12-2.34-7.3-4.06-2.27-1.79-4-4.06-5.94-6.18-1.93-2.11-4-4.11-6.52-5.5-2.5-1.38-5.31-2.21-8.17-2.3-5.31-.18-10.49,2.49-13.12,7.16-.73,1.29-1.19,2.67-1.41,4.07h-16.86c-.39-.68-.73-1.41-.99-2.14-.39-1.11-.31-2.08.02-3.19.26-.87.64-1.64,1.3-2.11.41-.29.68-.41,1.12-.53.4-.1.76-.13,1.28-.07.69.08,1.28-.64,1.28-1.28,0-.76-.59-1.19-1.28-1.28-2.74-.35-5.36,1.79-5.73,4.47-.2,1.42-.07,2.85.61,4.13.42.79,1.01,1.4,1.64,1.99h-5.27l-2.92-2.92c-1.82,1.12-3.79,1.98-5.85,2.56l-4.87,1.37,4.74,1.32c1.95.54,3.82,1.34,5.56,2.36l.42.25,2.92-2.92h5.27c-.63.59-1.22,1.2-1.64,1.99-.69,1.28-.81,2.71-.61,4.13.37,2.68,2.99,4.82,5.73,4.47.69-.09,1.28-.52,1.28-1.28,0-.64-.59-1.36-1.28-1.28-.53.06-.89.03-1.28-.07-.44-.11-.71-.24-1.12-.53-.66-.46-1.05-1.24-1.3-2.11-.33-1.11-.41-2.09-.02-3.19.26-.73.6-1.46.99-2.14h16.72c.06,2.88,1.17,5.7,3.32,7.88,1.78,1.81,4.18,3,6.73,3.13,2.52.13,4.98-.98,6.81-2.66,1.79-1.65,3.01-4,3.06-6.46.05-2.54-1.27-4.93-3.44-6.24-1.88-1.14-4.33-1.55-6.2-.17-1.47,1.08-2.41,3.03-2.13,4.86.13.89.57,1.63,1.28,2.19.36.29.8-.14.51-.51-1.25-1.55-.61-3.95.82-5.15,1.83-1.54,4.33-.53,5.57,1.23,2.85,4.01-.37,9.09-4.77,9.96-4.4.87-8.42-3.4-8.75-7.56-.36-4.58,3.06-8.86,7.28-10.31,5.21-1.79,10.76.12,14.82,3.54,4.21,3.55,7.69,7.89,12.57,10.6,4.64,2.58,9.94,3.91,15.22,4.11,5.13.19,11.44-.34,14.82-4.74,1.44-1.88,2.24-4.41,1.54-6.75-.62-2.07-2.02-3.31-3.75-4.47-1.78-1.19-4.17-1.24-6.1-.37-2.28,1.02-4.1,3.64-3.1,6.15.46,1.16,1.44,2.13,2.71,2.34.75.13,1.52-.2,1.73-.98.18-.67-.23-1.61-.98-1.73-1-.16-1.16-1.17-.73-1.97.5-.91,1.47-1.45,2.46-1.67.93-.2,1.83-.03,2.75.1.96.14,1.79.69,2.45,1.38,1.8,1.87,1.33,4.63-.05,6.61-1.67,2.39-4.49,3.52-7.26,4.02-.42.08-.85.14-1.27.2-3.17-1.65-5.54-4.6-6.41-8.13-1.08-4.34.64-8.66,4.12-11.4,3.44-2.71,8.03-3.85,12.29-2.72,4.41,1.17,8.13,4.38,10.3,8.35,1.46,2.67,2.1,5.71,2.45,8.71.19,1.62.32,3.24.41,4.86.1,1.73.24,3.53-.11,5.24-.18,1.21,1.36,1.64,1.82.5.64-1.58.87-3.25.9-4.93.75-1.9,1.93-3.65,3.31-5.25-.17.62-.27,1.25-.29,1.86-.06,2.16,1.07,4.29,2.82,5.53,1.79,1.27,4.22,1.44,6.07.23,1.92-1.26,3.09-3.68,2.34-5.95-.41-1.26-1.33-2.24-2.6-2.65-1.25-.4-2.61-.1-3.58.78-1.12,1.02.54,2.68,1.66,1.66.35-.32.89-.32,1.35-.14.47.19.8.66.93,1.2.32,1.28-.44,2.61-1.56,3.26-.56.33-1.27.51-1.92.51-.66,0-1.3-.33-1.84-.69-1.25-.82-1.96-2.18-2.06-3.66-.12-1.67.45-3.09,1.16-4.5.77-.72,1.56-1.39,2.34-2.02,2.5-2.03,5.22-3.87,8.03-5.45,2.79-1.57,5.77-2.82,8.95-3.3,3.03-.46,6.3-.2,9.06,1.23,2.31,1.19,4.2,3.17,5.24,5.56-1.12.58-2.2,1.24-3.21,1.96-2.65,1.89-5.22,4.88-5.25,8.32-.01,1.61.61,3.33,1.89,4.36,1.59,1.28,3.36.77,4.87-.36,2.79-2.09,4.56-5.31,4.96-8.76.19-1.64.02-3.29-.43-4.85.4-.17.81-.32,1.22-.48.81,2.66,1.49,5.35,2.11,8.07.38,1.66.74,3.33,1.11,4.99,0,.03.01.07.03.09.01-.03.02-.06.03-.09.36-1.66.73-3.32,1.11-4.98.62-2.72,1.3-5.42,2.11-8.08.41.16.82.3,1.22.48-.45,1.57-.62,3.21-.43,4.85.4,3.45,2.17,6.67,4.96,8.76,1.5,1.13,3.28,1.64,4.87.36,1.28-1.03,1.9-2.75,1.89-4.36-.03-3.43-2.6-6.42-5.25-8.32-1.01-.72-2.09-1.37-3.21-1.96,1.03-2.39,2.93-4.36,5.24-5.56,2.76-1.42,6.02-1.68,9.06-1.23,3.18.48,6.17,1.72,8.95,3.3,2.8,1.58,5.52,3.42,8.03,5.45.78.63,1.56,1.3,2.34,2.02.71,1.42,1.28,2.84,1.16,4.5-.11,1.48-.81,2.84-2.06,3.66-.54.36-1.18.68-1.84.69-.65,0-1.36-.18-1.92-.51-1.12-.65-1.88-1.97-1.56-3.26.14-.54.46-1.01.94-1.2.46-.19,1-.18,1.35.14,1.12,1.01,2.79-.64,1.66-1.66-.97-.88-2.33-1.18-3.58-.78-1.28.41-2.19,1.39-2.6,2.65-.74,2.27.42,4.69,2.34,5.95,1.85,1.21,4.28,1.04,6.07-.23,1.75-1.24,2.88-3.37,2.82-5.53-.02-.61-.12-1.24-.29-1.86,1.38,1.6,2.56,3.35,3.31,5.25.03,1.68.26,3.35.9,4.93.46,1.14,2,.7,1.82-.5-.35-1.71-.21-3.51-.11-5.24.1-1.62.22-3.25.41-4.86.35-3,.99-6.04,2.45-8.71,2.17-3.97,5.89-7.17,10.3-8.35,4.26-1.13,8.85.01,12.29,2.72,3.48,2.73,5.19,7.06,4.12,11.4-.88,3.53-3.24,6.48-6.41,8.13-.43-.06-.85-.12-1.27-.2-2.77-.5-5.59-1.62-7.26-4.02-1.38-1.98-1.85-4.74-.05-6.61.66-.69,1.49-1.24,2.45-1.38.92-.13,1.82-.31,2.75-.1.98.22,1.96.76,2.46,1.67.43.8.27,1.81-.73,1.97-.76.12-1.17,1.06-.98,1.73.22.79.98,1.11,1.73.98,1.26-.21,2.24-1.18,2.71-2.34,1-2.52-.82-5.13-3.1-6.15-1.93-.86-4.32-.82-6.1.37-1.73,1.16-3.13,2.41-3.75,4.47-.7,2.33.09,4.87,1.54,6.75,3.37,4.4,9.69,4.93,14.82,4.74,5.29-.2,10.59-1.53,15.22-4.11,4.88-2.71,8.35-7.06,12.57-10.6,4.06-3.42,9.62-5.32,14.82-3.54,4.22,1.45,7.64,5.73,7.28,10.31-.33,4.16-4.34,8.43-8.75,7.56-4.4-.87-7.61-5.95-4.77-9.96,1.25-1.76,3.74-2.77,5.57-1.23,1.43,1.2,2.07,3.6.82,5.15-.29.36.14.79.51.51.71-.56,1.15-1.3,1.28-2.19.28-1.83-.66-3.77-2.13-4.86-1.87-1.38-4.32-.96-6.2.17-2.17,1.31-3.49,3.7-3.44,6.24.05,2.46,1.27,4.81,3.06,6.46,1.83,1.68,4.29,2.79,6.8,2.66,2.55-.13,4.95-1.32,6.74-3.13,2.15-2.18,3.26-5,3.32-7.88h19.39c.39.68.73,1.41.99,2.14.39,1.11.31,2.08-.02,3.19-.26.87-.64,1.64-1.3,2.11-.41.29-.68.41-1.12.53-.4.1-.76.13-1.28.07-.69-.08-1.28.64-1.28,1.28,0,.76.59,1.19,1.28,1.28,2.74.35,5.36-1.79,5.73-4.47.2-1.42.07-2.85-.61-4.13-.42-.79-1.01-1.4-1.64-1.99h5.27l2.92,2.92.42-.25c1.74-1.03,3.61-1.82,5.56-2.36l4.74-1.32-4.87-1.37Zm-172.04,6.43c-.63,1.25-1.49,2.35-2.56,3.26-.44.38-1.18,1.06-1.8.99-.61-.07-1.04-.77-1.26-1.27-1.27-2.91,1.32-6.17,3.4-7.93.95-.8,1.96-1.49,3.02-2.09.56,2.36.31,4.85-.8,7.04Zm7.49-5.58c-.31-1.24-.67-2.46-1.06-3.68.7-.1,1.41-.1,2.11,0-.39,1.21-.74,2.44-1.06,3.68Zm9.72.63c2.08,1.76,4.67,5.03,3.4,7.93-.22.5-.66,1.2-1.26,1.27-.62.07-1.36-.61-1.8-.99-1.07-.91-1.92-2.01-2.56-3.26-1.11-2.19-1.36-4.68-.8-7.04,1.06.6,2.07,1.28,3.02,2.09Z"/>
      <path class="cls-1" d="m123.66,24.08c4.76,0,4.77-7.4,0-7.4s-4.77,7.4,0,7.4Z"/>
      <path class="cls-1" d="m134.06,17.18c2.84,0,2.84-4.41,0-4.41s-2.84,4.41,0,4.41Z"/>
      <path class="cls-1" d="m209.26,24.08c4.77,0,4.76-7.4,0-7.4s-4.76,7.4,0,7.4Z"/>
      <path class="cls-1" d="m198.87,17.18c2.84,0,2.84-4.41,0-4.41s-2.84,4.41,0,4.41Z"/>
    </g>
  </g>
</svg>