<?xml version="1.0" encoding="UTF-8"?>
<svg id="Layer_2" data-name="Layer 2" xmlns="http://www.w3.org/2000/svg" viewBox="0 0 326.16 51.98">
  <defs>
    <style>
      .cls-1 {
        fill: #322d35;
        stroke-width: 0px;
      }
    </style>
  </defs>
  <g id="OBJECTS">
    <g>
      <path class="cls-1" d="m160.66,49.02c-.9-.86-1.74-1.83-2.57-2.76-1.69-1.89-3.23-3.91-4.62-6.02-2.23-3.38-4.12-7.08-5.52-10.91,2.41,1.52,4.63,3.34,6.55,5.41,1.37,1.48,2.7,3.02,3.92,4.63.08.11.23.02.18-.1-1.6-3.5-4.06-6.38-6.9-8.96-1.42-1.29-2.96-2.45-4.59-3.48-.04-.13-.08-.25-.12-.38-1.4-4.71-1.69-10.29,1.59-14.32,2.55-3.14,7.37-4.4,10.75-1.79,2.23,1.72,2.95,5.08.37,6.86-2.35,1.62-5.04.09-6.19-2.2-.15-.31-.7-.17-.67.18.25,2.39,2.53,4.14,4.91,4.08,2.47-.05,4.69-2.04,5.06-4.47.41-2.73-1.12-5.5-3.44-6.88-2.15-1.29-4.82-1.58-7.24-.99-5.57,1.35-8.51,7.45-8.64,12.75-.05,1.83.17,3.66.56,5.46-.58-.29-1.16-.57-1.76-.82-3.48-1.49-7.18-2.57-10.97-2.82-4.71-.32-9.45.4-14,1.6-1.38.36-2.74.77-4.09,1.22-1.93-.19-3.88-.31-5.83-.34-6.17-.09-12.37.54-18.39,1.92-5.94,1.37-11.67,3.45-17.32,5.71-7.63,3.06-15.18,6.46-22.99,9.02-2.39-.78-4.7-1.84-6.88-3.21-6-3.8-10.23-9.93-10.63-17.13-.35-6.26,2.15-13.11,7.96-16.15,4.9-2.57,11.55-1.96,15.91,1.46,2.61,2.05,4.04,5.02,4.33,8.31.35,4.09-.27,8.87-3.7,11.57-2.94,2.31-6.95,2.57-10.06.45-2.99-2.04-4.39-5.97-3.06-9.38.67-1.72,1.92-3.16,3.53-4.06.43-.24.05-.88-.39-.66-3.2,1.59-5.24,5.39-4.9,8.95.36,3.74,3.22,6.83,6.72,8,3.75,1.25,7.97-.1,10.64-2.93,3.11-3.3,3.74-8.51,3.25-12.85-.4-3.5-1.91-6.7-4.63-8.99-2.41-2.03-5.4-3.3-8.51-3.75-3.18-.46-6.47-.16-9.45,1.08-3.26,1.36-5.9,3.82-7.7,6.85-3.83,6.46-3.67,14.88-.33,21.5,2.82,5.6,7.89,9.71,13.58,12.27-2.35.66-4.72,1.22-7.14,1.66-5.81,1.06-11.87,1.38-17.72.35-5.3-.94-11.57-2.85-14.89-7.42-1.53-2.1-2.52-4.86-1.92-7.47.52-2.26,2.02-4.25,4.21-5.1,2.05-.8,4.48-.1,5.91,1.54,1.68,1.93,1.04,4.73-.92,6.21-.94.71-2.21,1.08-3.38.87-.43-.08-.58.49-.18.64,2.24.86,4.53-.41,5.76-2.32,1.31-2.02,1.07-4.5-.37-6.38-1.4-1.82-3.8-2.92-6.1-2.8-2.63.14-4.88,1.83-6.24,4.02-3.3,5.29-.34,11.87,4.14,15.37,4.96,3.88,11.64,5.47,17.81,5.96,8.59.68,17.03-.99,25.19-3.58.27.08.54.17.82.25,19.4,5.41,38.02-5.6,55.2-13.05,3.28-1.42,6.63-2.76,10.04-3.84,1.42.1,2.83.23,4.24.38,6.7.74,13.33,1.83,19.83,3.65,1.62.46,3.23.94,4.84,1.46.23.07.32-.27.1-.35-7.59-2.74-15.36-5.23-23.31-6.69,4.26-.93,8.62-1.36,13.06-.96,3.91.35,7.76,1.46,11.31,3.19,1.11,3.57,2.86,7,4.73,10.1.56.92,1.16,1.83,1.79,2.72-2.98-2.33-6.81-3.66-10.57-3.51-.74.03-1.48.13-2.2.3-1.49-1.43-3.3-2.53-5.23-3.25-2.32-.86-5.15-1.32-7.58-.7-1.26.32-2.55,1.08-3.18,2.26-.51.96-.76,2.38-.4,3.43.86,2.52,4.91,3.08,5.82.33.34-1.03-.94-1.49-1.63-.95-.51.4-1.11.77-1.79.66-.8-.13-1.22-.98-1.11-1.75.29-1.89,2.52-2.57,4.15-2.68,3.32-.21,6.65,1.07,9.15,3.25-1.16.55-2.18,1.37-2.87,2.55-1.32,2.28-.96,5.13,1.25,6.69,2.1,1.47,4.85.67,5.96-1.61,1.13-2.33.25-4.83-1.23-6.77.69-.15,1.41-.23,2.13-.25,4.48-.1,8.63,1.94,11.53,5.32.11.13.26.14.39.09.52.63,1.06,1.26,1.61,1.87,1.11,1.24,2.26,2.5,3.53,3.57,1.19,1.01,2.33,2.39,3.87,2.79.2.05.35-.16.26-.34-.54-1.09-1.52-1.78-2.39-2.61Zm-96.18-6.92c-3.66.37-7.36.29-10.96-.33,2.64-.96,5.25-1.98,7.82-3.03,12.18-4.97,24.36-10.49,37.6-11.8,2.68-.26,5.39-.39,8.09-.4-14.05,5.67-27.23,14.01-42.55,15.55Zm74.94,1.83c-.59,1.54-2.29,2.14-3.51.88-1.27-1.32-.7-3.3.46-4.48.49-.5,1.06-.87,1.66-1.17,1.09,1.31,2.04,3.07,1.39,4.77Z"/>
      <path class="cls-1" d="m128.44,16.38c3.88-.81,8.07.01,11.35,2.22-1.46-3.88-.62-8.79,2.14-11.89-2.36-.16-4.73.79-5.84,2.88C133.68,6.97,132.13,3.55,131.72,0c-2.27,3.75-1.87,8.93.94,12.3-2.12.07-3.18,2.24-4.22,4.08Z"/>
      <path class="cls-1" d="m115.91,18.01c5.43,0,5.44-8.44,0-8.44s-5.44,8.44,0,8.44Z"/>
      <path class="cls-1" d="m102.95,18.34c3.99,0,4-6.21,0-6.21s-4,6.21,0,6.21Z"/>
      <path class="cls-1" d="m324.75,25.71c-1.36-2.19-3.61-3.88-6.24-4.02-2.3-.12-4.7.98-6.1,2.8-1.44,1.88-1.68,4.36-.37,6.38,1.24,1.91,3.53,3.18,5.76,2.32.4-.15.25-.72-.18-.64-1.17.21-2.44-.16-3.38-.87-1.96-1.48-2.6-4.27-.92-6.21,1.43-1.64,3.86-2.34,5.91-1.54,2.19.86,3.69,2.84,4.21,5.1.6,2.61-.39,5.37-1.92,7.47-3.32,4.56-9.58,6.48-14.89,7.42-5.84,1.03-11.9.71-17.72-.35-2.42-.44-4.79-1.01-7.14-1.66,5.69-2.55,10.76-6.67,13.58-12.27,3.34-6.62,3.5-15.04-.33-21.5-1.8-3.03-4.43-5.49-7.7-6.85-2.98-1.24-6.27-1.54-9.45-1.08-3.11.45-6.1,1.72-8.51,3.75-2.72,2.29-4.23,5.49-4.63,8.99-.5,4.34.13,9.55,3.25,12.85,2.67,2.83,6.89,4.18,10.64,2.93,3.5-1.17,6.37-4.26,6.72-8,.34-3.56-1.7-7.36-4.9-8.95-.44-.22-.82.42-.39.66,1.61.89,2.86,2.34,3.53,4.06,1.33,3.42-.06,7.34-3.06,9.38-3.11,2.12-7.12,1.86-10.06-.45-3.42-2.7-4.05-7.48-3.7-11.57.28-3.29,1.72-6.25,4.33-8.31,4.36-3.43,11-4.03,15.91-1.46,5.81,3.05,8.31,9.89,7.96,16.15-.4,7.2-4.63,13.33-10.63,17.13-2.17,1.38-4.48,2.43-6.88,3.21-7.81-2.56-15.35-5.97-22.99-9.02-5.65-2.26-11.39-4.34-17.32-5.71-6.02-1.39-12.22-2.01-18.39-1.92-1.95.03-3.9.15-5.83.34-1.35-.44-2.71-.85-4.09-1.22-4.55-1.2-9.29-1.92-14-1.6-3.79.26-7.49,1.33-10.97,2.82-.59.25-1.18.53-1.76.82.39-1.8.61-3.63.56-5.46-.13-5.3-3.07-11.4-8.64-12.75-2.42-.59-5.09-.29-7.24.99-2.32,1.39-3.85,4.16-3.44,6.88.37,2.43,2.59,4.41,5.06,4.47,2.38.05,4.66-1.69,4.91-4.08.04-.35-.51-.49-.67-.18-1.15,2.29-3.84,3.82-6.19,2.2-2.58-1.78-1.86-5.14.37-6.86,3.38-2.61,8.21-1.34,10.75,1.79,3.28,4.04,2.99,9.62,1.59,14.32-.04.13-.08.25-.12.38-1.63,1.03-3.18,2.19-4.59,3.48-2.84,2.58-5.29,5.46-6.9,8.96-.06.12.1.21.18.1,1.22-1.6,2.55-3.15,3.92-4.63,1.92-2.07,4.14-3.89,6.55-5.41-1.41,3.83-3.3,7.52-5.52,10.91-1.39,2.12-2.94,4.13-4.62,6.02-.83.93-1.67,1.9-2.57,2.76-.87.83-1.85,1.52-2.39,2.61-.09.18.06.39.26.34,1.54-.41,2.68-1.79,3.87-2.79,1.27-1.07,2.42-2.33,3.53-3.57.55-.61,1.08-1.23,1.61-1.87.13.05.28.03.39-.09,2.9-3.38,7.05-5.42,11.53-5.32.72.02,1.43.09,2.13.25-1.48,1.94-2.36,4.44-1.23,6.77,1.11,2.28,3.86,3.08,5.96,1.61,2.22-1.55,2.58-4.41,1.25-6.69-.69-1.18-1.7-2-2.87-2.55,2.5-2.18,5.83-3.46,9.15-3.25,1.63.1,3.86.78,4.15,2.68.12.77-.31,1.61-1.11,1.75-.67.11-1.27-.26-1.79-.66-.69-.54-1.98-.08-1.63.95.92,2.75,4.96,2.19,5.82-.33.36-1.05.11-2.47-.4-3.43-.63-1.18-1.91-1.94-3.18-2.26-2.43-.62-5.27-.16-7.58.7-1.93.72-3.74,1.82-5.23,3.25-.72-.17-1.47-.27-2.2-.3-3.76-.15-7.59,1.18-10.57,3.51.62-.89,1.23-1.79,1.79-2.72,1.87-3.09,3.62-6.52,4.73-10.1,3.55-1.73,7.41-2.84,11.31-3.19,4.45-.39,8.8.03,13.06.96-7.95,1.46-15.72,3.95-23.31,6.69-.22.08-.13.43.1.35,1.6-.52,3.22-1,4.84-1.46,6.49-1.83,13.13-2.91,19.83-3.65,1.41-.16,2.82-.28,4.24-.38,3.41,1.09,6.76,2.42,10.04,3.84,17.18,7.45,35.79,18.46,55.2,13.05.27-.08.54-.16.82-.25,8.16,2.59,16.61,4.26,25.19,3.58,6.17-.49,12.85-2.08,17.81-5.96,4.48-3.5,7.44-10.08,4.14-15.37Zm-136.63,13.44c.6.29,1.16.67,1.66,1.17,1.17,1.18,1.74,3.16.46,4.48-1.22,1.26-2.92.67-3.51-.88-.65-1.7.3-3.46,1.39-4.77Zm73.55,2.95c-15.32-1.54-28.5-9.87-42.55-15.55,2.71.01,5.41.13,8.09.4,13.24,1.3,25.42,6.83,37.6,11.8,2.57,1.05,5.18,2.07,7.82,3.03-3.6.62-7.3.7-10.96.33Z"/>
      <path class="cls-1" d="m186.36,18.61c3.29-2.21,7.48-3.03,11.35-2.22-1.04-1.85-2.1-4.01-4.22-4.08,2.81-3.37,3.21-8.54.94-12.3-.4,3.55-1.96,6.97-4.38,9.6-1.11-2.1-3.48-3.04-5.84-2.88,2.76,3.1,3.61,8,2.14,11.89Z"/>
      <path class="cls-1" d="m210.24,18.01c5.44,0,5.43-8.44,0-8.44s-5.43,8.44,0,8.44Z"/>
      <path class="cls-1" d="m223.2,18.34c4,0,3.99-6.21,0-6.21s-3.99,6.21,0,6.21Z"/>
    </g>
  </g>
</svg>