<svg width="788" height="592" viewBox="0 0 788 592" fill="none" xmlns="http://www.w3.org/2000/svg">
<path d="M38.8724 530.604H6.88635V554.802H34.1646V561.146H6.88635V590.778H0V524.177H38.8724V530.612V530.604Z" fill="#171517"/>
<path d="M170.172 590.778H162.835L156.132 575.194H124.238L117.535 590.778H110.198L140.014 523H140.373L170.189 590.778H170.172ZM126.859 569.026H153.503L140.181 538.4L126.859 569.026Z" fill="#171517"/>
<path d="M287.24 530.153L283.801 536.047C279.268 532.332 272.749 529.344 265.854 529.344C257.883 529.344 251.539 533.058 251.539 541.397C251.539 548.375 255.621 551.004 267.49 553.634C283.166 557.073 289.418 562.064 289.418 572.298C289.418 583.984 280.537 591.964 266.489 591.964C256.706 591.964 248.91 588.884 242.833 583.625L246.823 577.915C251.622 582.623 259.235 585.62 266.664 585.62C275.729 585.62 282.523 581.179 282.523 572.84C282.523 566.046 277.448 562.599 265.579 560.061C249.903 556.622 244.644 551.814 244.644 541.756C244.644 530.153 253.342 523 265.938 523C274.635 523 281.797 526.08 287.231 530.162L287.24 530.153Z" fill="#171517"/>
<path d="M419.45 590.778H412.564V559.969H376.404V590.778H369.518V524.177H376.404V553.533H412.564V524.177H419.45V590.778Z" fill="#171517"/>
<path d="M510.876 590.778H503.989V524.177H510.876V590.778Z" fill="#171517"/>
<path d="M657.492 557.524C657.492 577.456 643.444 591.955 624.237 591.955C605.031 591.955 591.074 577.456 591.074 557.524C591.074 537.591 604.939 523 624.237 523C643.536 523 657.492 537.683 657.492 557.524ZM597.952 557.524C597.952 573.742 608.92 585.528 624.229 585.528C639.537 585.528 650.506 573.75 650.506 557.524C650.506 541.297 639.537 529.436 624.229 529.436C608.92 529.436 597.952 541.305 597.952 557.524Z" fill="#171517"/>
<path d="M780.904 574.376V524.177H787.79V591.955H787.431L744.661 540.487V590.778H737.774V523H738.133L780.904 574.376Z" fill="#171517"/>
<path d="M509.99 368.16V387.93H481.9L314.33 104.97C299.27 78.8805 294.76 59.8105 304.8 48.2705C287.24 56.8005 279.71 76.8705 279.71 111.49V323.21C279.71 349.8 268.67 370.87 250.61 380.91H310.3V387.93H218V380.91H223.02C253.62 380.91 272.69 358.33 272.69 323.71V111.99C272.69 75.8705 280.71 54.2905 298.77 43.7605H262.16V36.7305H351.45V43.7605H346.44C332.39 43.7605 328.38 61.8205 347.94 94.9305L509.99 368.16Z" fill="#171517"/>
<path d="M566.18 250.271C556.4 234.311 544.23 220.341 531.53 207.401C526.7 202.481 521.78 197.701 516.9 193.021C512.11 188.431 507.34 183.941 502.69 179.501C493.39 170.611 484.56 161.921 476.94 153.061C469.28 144.161 462.86 135.101 458.38 125.551C453.89 115.991 451.32 105.961 451.32 94.9206C451.32 76.4806 457.24 60.2406 467.91 48.6306C473.25 42.8206 479.77 38.1506 487.42 34.9206C490.85 33.4706 494.52 32.3306 498.4 31.4906L498.22 25.3906C493.58 26.3206 489.19 27.6606 485.08 29.4006C472.43 34.7406 462.43 43.7406 455.66 55.1006C448.89 66.4606 445.32 80.1406 445.32 94.9306C445.32 105.581 447.55 115.441 451.43 124.681C458.22 140.851 469.93 155.101 483.52 169.071C489.69 175.401 496.25 181.681 502.95 188.041C507.49 192.361 512.09 196.711 516.68 201.151C527.68 211.791 538.55 222.891 548.15 235.041C557.9 247.371 566.36 260.751 572.37 275.791C578.39 290.841 581.98 307.561 581.98 326.681C581.98 350.371 573.39 374.841 556.21 393.321C547.62 402.561 536.89 410.331 523.95 415.801C511.02 421.271 495.87 424.441 478.44 424.441C449.54 424.441 427.94 418.291 412.51 408.531C410.95 407.541 409.46 406.501 408.02 405.441C409.27 403.461 410.44 401.381 411.52 399.171C417.18 387.641 420.51 373.041 420.51 355.671C420.51 351.071 419.92 347.021 418.84 343.511C417.23 338.251 414.47 334.181 411.01 331.461C407.55 328.741 403.42 327.411 399.29 327.411C393.19 327.411 387.1 330.251 382.57 335.371C378.03 340.501 375.08 347.931 375.09 357.081C375.09 361.671 375.82 366.691 377.44 372.101C381.3 385.031 388.66 396.981 399.86 406.621C395.7 411.971 390.9 416.031 385.74 418.771C380.38 421.601 374.62 423.041 368.71 423.041C361.09 423.041 353.17 420.651 345.53 415.571C337.9 410.501 330.56 402.731 324.27 392.001L319.1 395.041C325.79 406.421 333.71 414.911 342.21 420.561C350.71 426.221 359.82 429.031 368.71 429.031C375.6 429.031 382.35 427.341 388.55 424.061C394.51 420.901 399.95 416.291 404.57 410.341C406.09 411.461 407.66 412.551 409.3 413.591C425.93 424.111 448.71 430.431 478.44 430.431C496.6 430.431 512.57 427.111 526.28 421.311C546.86 412.611 562.32 398.341 572.59 381.561C582.86 364.781 587.97 345.511 587.97 326.671C587.98 296.391 579.22 271.551 566.18 250.291V250.271ZM383.19 370.351C381.72 365.441 381.09 361.001 381.09 357.051C381.09 349.171 383.58 343.261 387.07 339.311C390.56 335.361 395.07 333.371 399.3 333.381C401.21 333.381 403.07 333.781 404.81 334.601C407.41 335.831 409.77 337.991 411.56 341.401C413.34 344.811 414.52 349.501 414.52 355.641C414.52 375.091 410.15 390.521 403.32 401.631C393.26 392.831 386.73 382.091 383.21 370.361L383.19 370.351Z" fill="#171517"/>
<path d="M515.65 29.9304C517.67 29.9804 519.67 30.1104 521.62 30.3304C533.7 31.6404 544.31 35.9204 552.23 42.0604C557.04 45.7904 560.85 50.1904 563.46 55.0204C566.07 59.8604 567.48 65.1204 567.48 70.6704C567.48 76.3504 566.4 80.8104 564.83 84.3504C562.47 89.6604 558.97 92.9804 556.04 95.0204C554.58 96.0304 553.26 96.7104 552.34 97.1304C551.88 97.3404 551.51 97.4804 551.28 97.5704C551.16 97.6104 551.08 97.6404 551.03 97.6604L550.98 97.6804H550.99L551.53 99.4804L552.72 103.43C553 103.34 558.08 101.79 563.24 96.8904C565.82 94.4404 568.4 91.1304 570.32 86.8004C572.24 82.4704 573.49 77.1304 573.49 70.6804C573.49 64.1004 571.8 57.8304 568.75 52.1804C564.18 43.7104 556.6 36.6404 547.1 31.7004C539.7 27.8504 531.12 25.2804 521.81 24.3204C519.64 24.1004 517.43 23.9604 515.18 23.9204C514.69 23.9204 514.2 23.9004 513.7 23.9004C510.74 23.9004 507.86 24.0704 505.05 24.3704C504.84 26.1704 504.67 28.1904 504.56 30.4704C507.5 30.1104 510.54 29.9104 513.7 29.9104C514.36 29.9104 515.01 29.9304 515.66 29.9504L515.65 29.9304Z" fill="#171517"/>
<path d="M508.69 386.67C508.7 387.01 508.84 387.32 509.07 387.55C509.29 387.77 509.61 387.92 509.95 387.93H509.98H510C510.69 387.93 511.26 387.37 511.28 386.67L516.66 201.12C512.08 196.69 507.48 192.33 502.93 188.01L508.69 386.66V386.67Z" fill="url(#paint0_linear_276_25)"/>
<path d="M522.13 11.8C521.94 5.21 516.54 0 509.99 0C509.87 0 509.75 0 509.63 0C503.04 0.19 497.83 5.59 497.83 12.14C497.83 12.26 497.83 12.38 497.83 12.5L498.2 25.39L498.38 31.49L498.52 36.4L502.67 179.49C507.32 183.93 512.09 188.43 516.88 193.01L521.6 30.32C519.65 30.11 517.66 29.98 515.63 29.92C515.66 30.78 515.68 31.66 515.68 32.55C515.68 43.9 513.12 53.11 509.97 53.11C507.21 53.11 504.92 46.06 504.38 36.7C504.38 34.43 504.43 32.35 504.52 30.45C504.63 28.17 504.8 26.15 505.01 24.35C506.09 15.25 508.33 12 509.96 12C512.25 12 514.23 16.88 515.13 23.91C517.37 23.95 519.58 24.09 521.76 24.31L522.1 12.49C522.1 12.37 522.1 12.25 522.1 12.12C522.1 12.01 522.1 11.89 522.1 11.78L522.13 11.8Z" fill="url(#paint1_linear_276_25)"/>
<defs>
<linearGradient id="paint0_linear_276_25" x1="509.8" y1="15.8798" x2="509.8" y2="340.78" gradientUnits="userSpaceOnUse">
<stop stop-color="#7F3B00"/>
<stop offset="0.28" stop-color="#E2B574"/>
<stop offset="0.38" stop-color="white"/>
<stop offset="0.49" stop-color="#FCE9AC"/>
<stop offset="1" stop-color="#874D0E"/>
</linearGradient>
<linearGradient id="paint1_linear_276_25" x1="509.99" y1="15.88" x2="509.99" y2="340.78" gradientUnits="userSpaceOnUse">
<stop stop-color="#7F3B00"/>
<stop offset="0.28" stop-color="#E2B574"/>
<stop offset="0.38" stop-color="white"/>
<stop offset="0.49" stop-color="#FCE9AC"/>
<stop offset="1" stop-color="#874D0E"/>
</linearGradient>
</defs>
</svg>
