<svg width="448" height="334" viewBox="0 0 448 334" fill="none" xmlns="http://www.w3.org/2000/svg">
<g clip-path="url(#clip0_215_54)">
<path d="M26.12 130.93C25.93 131.1 25.69 131.23 25.55 131.43C23.95 133.75 22.36 136.08 20.78 138.41C19.08 140.92 17.36 143.42 15.71 145.95C14.84 147.29 14.08 148.71 13.27 150.1C12.23 151.87 11.18 153.64 10.15 155.42C9.66002 156.27 9.19002 157.14 8.73002 158.01C7.69002 159.99 6.67002 161.97 5.64002 163.95C5.56002 164.1 5.43002 164.23 5.26002 164.45C5.11002 164.03 4.97002 163.72 4.87002 163.39C3.46002 158.67 2.11002 153.94 1.21002 149.09C0.530023 145.43 0.130023 141.73 0.350023 138C0.570023 134.31 1.42002 130.75 2.61002 127.26C4.70002 121.12 8.20002 115.87 12.48 111.09C17.57 105.41 23.48 100.71 29.82 96.5202C33.51 94.0702 37.17 91.5702 40.62 88.7802C42.98 86.8702 45.28 84.8602 47.26 82.5202C47.92 81.7402 48.5 80.9102 48.85 79.8802C48.74 79.9602 48.61 80.0302 48.52 80.1302C45.54 83.4902 41.91 86.0102 38.02 88.1702C36.46 89.0402 34.82 89.7602 33.21 90.5502C32.29 91.0002 31.37 91.4602 30.43 91.8902C29.99 92.0902 29.52 92.1902 29.04 92.3402C28.6 91.6402 28.44 90.9402 28.31 90.2502C27.97 88.4402 27.29 86.7402 26.64 85.0302C26.03 83.4402 25.34 81.8902 24.45 80.4402C23.68 79.1902 22.86 77.9602 22.06 76.7302C20.66 74.6002 19.28 72.4702 17.84 70.3702C16.45 68.3402 15.65 66.0702 15.2 63.6802C14.69 60.9602 14.91 58.2502 15.76 55.6102C16.4 53.6102 17.12 51.6402 17.85 49.6702C18.14 48.8902 18.25 48.1302 18.04 47.3202C17.49 45.2502 16.96 43.1702 16.41 41.0902C16.25 40.4902 16.06 39.9102 15.85 39.2402C14.16 39.8002 12.62 40.4802 11.16 41.3202C9.61002 42.2102 8.16002 43.2702 6.85002 44.5002C6.07002 45.2302 5.36002 46.0402 4.64002 46.8202C4.18002 47.3202 3.69002 47.7602 3.00002 47.9102C2.35002 48.0502 1.98002 47.8502 1.80002 47.2002C1.54002 46.2802 1.84002 45.3902 2.23002 44.6202C2.70002 43.6802 3.32002 42.7302 4.08002 42.0202C5.74002 40.4802 7.51002 39.0402 9.31002 37.6602C10.11 37.0402 11.08 36.6402 11.98 36.1502C12.77 35.7202 13.56 35.3102 14.39 34.8702C14.45 34.1502 14.13 33.4902 13.98 32.8102C13.86 32.2902 13.7 31.7702 13.57 31.2502C13.31 30.2802 13.36 30.0802 14.12 29.5402C15.26 28.7202 16.47 28.1102 17.95 28.1102C19.04 28.1102 19.88 28.5402 20.48 29.3602C21 30.0802 21.41 30.8802 21.85 31.6602C22.13 32.1502 22.29 32.2502 22.81 32.1002C25.43 31.3402 28.05 30.6102 30.65 29.8302C32.76 29.1902 34.73 28.2402 36.48 26.8802C37.15 26.3602 37.77 25.7802 38.35 25.1702C40.16 23.2702 42.27 21.9402 44.92 21.5502C45.05 21.5302 45.17 21.4702 45.38 21.3902C45.38 21.1002 45.39 20.7902 45.38 20.4802C45.26 18.2002 45.22 15.9102 44.99 13.6402C44.84 12.1702 45.51 11.1602 46.42 10.2102C47.44 9.14019 48.37 8.01019 49.12 6.72019C49.87 5.43019 49.83 4.23019 48.88 3.13019C48.64 2.85019 48.23 2.68019 47.86 2.53019C47.36 2.33019 46.85 2.14019 46.32 2.08019C44.69 1.88019 43.54 3.02019 43.66 4.65019C43.68 4.96019 43.76 5.27019 43.73 5.57019C43.67 6.21019 43.28 6.64019 42.77 6.71019C42.18 6.78019 41.67 6.57019 41.43 6.03019C41.25 5.64019 41.13 5.17019 41.16 4.75019C41.31 2.72019 42.5 1.42019 44.25 0.560193C47.16 -0.859806 50.29 0.740194 51.57 2.94019C52.19 4.00019 52.14 5.19019 51.78 6.33019C51.18 8.24019 50.24 9.97019 48.75 11.3202C47.75 12.2202 47.3 13.1502 47.5 14.5902C47.77 16.5202 47.66 18.5002 47.72 20.4602C47.72 20.6802 47.77 20.8902 47.79 21.1202C48.85 21.2702 49.86 21.4002 50.87 21.5702C51.21 21.6302 51.58 21.7302 51.87 21.9102C53.19 22.7302 54.61 23.4002 55.82 24.3802C56.79 25.1702 57.68 26.0802 58.74 26.7302C60.1 27.5702 61.28 28.7302 62.84 29.2302C63.01 29.2802 63.17 29.3802 63.32 29.4702C65.48 30.6802 67.8 31.4702 70.12 32.2702C70.83 32.5102 71.53 32.7702 72.34 33.0602C72.73 32.1202 73.14 31.2902 73.44 30.4102C73.75 29.4902 74.3 28.9902 75.3 28.9902C76.24 28.9902 77.18 28.9002 78.12 28.9302C78.65 28.9402 79.2 29.0402 79.69 29.2202C80.49 29.5102 80.78 30.0602 80.64 30.9102C80.49 31.8402 80.28 32.7502 80.1 33.6702C80.02 34.1002 79.94 34.5302 79.86 34.9702C80.94 35.3702 81.93 35.7402 82.92 36.1002C84.83 36.7802 86.49 37.8602 88.15 39.0202C89.85 40.2102 90.96 41.8402 92.12 43.4702C92.8 44.4202 92.71 45.4202 92.49 46.4302C92.29 47.3602 91.41 47.6002 90.78 46.8902C89.97 45.9902 89.18 45.0702 88.2 44.3602C86.69 43.2602 85.21 42.1002 83.48 41.3502C82.09 40.7502 80.7 40.1602 79.3 39.5802C79.14 39.5102 78.95 39.5102 78.71 39.4702C78.11 41.0002 77.87 42.5702 77.72 44.1802C77.53 46.1502 77.72 48.1102 77.72 50.0702C77.74 52.7602 77.75 55.4402 77.48 58.1202C77.42 58.7402 77.32 59.3602 77.18 59.9702C76.66 62.2302 76.19 64.5202 75.54 66.7502C75.08 68.3302 74.32 69.8202 73.74 71.3702C72.83 73.7902 71.93 76.2202 71.41 78.7702C71.24 79.6002 71.14 80.4602 71.19 81.3002C71.33 83.6202 71.58 85.9402 71.75 88.2602C71.83 89.3702 71.78 90.5002 71.85 91.6102C72.07 95.4102 72.29 99.2102 72.56 103.01C72.73 105.33 72.96 107.64 73.23 109.94C73.49 112.16 73.78 114.38 74.14 116.59C74.56 119.19 75.13 121.77 75.52 124.37C75.83 126.45 76.34 128.48 76.76 130.53C77.09 132.15 77.52 133.75 77.92 135.35C78.32 136.96 78.73 138.56 79.14 140.16C79.54 141.72 79.92 143.28 80.38 144.82C81.03 147 81.76 149.16 82.43 151.33C82.56 151.75 82.59 152.21 82.73 152.63C83.13 153.86 83.55 155.08 83.97 156.3C84.66 158.28 85.33 160.28 86.06 162.24C86.72 164 87.44 165.73 88.15 167.47C89.16 169.96 90.17 172.44 91.21 174.92C91.76 176.24 92.36 177.54 92.95 178.85C93.81 180.76 94.67 182.68 95.56 184.58C96.36 186.27 97.22 187.94 98.05 189.63C98.8 191.15 99.52 192.69 100.3 194.19C100.88 195.29 101.53 196.36 102.15 197.44C102.84 198.64 103.53 199.84 104.22 201.05C104.53 201.59 104.82 202.15 105.14 202.69C105.93 204.04 106.88 205.29 107.45 206.77C107.68 207.38 108.18 207.89 108.53 208.46C108.88 209.03 109.21 209.61 109.54 210.19C109.61 210.31 109.64 210.45 109.71 210.55C110.68 212 111.65 213.44 112.64 214.88C113.32 215.87 114.16 216.78 114.68 217.85C115.26 219.04 116.15 219.98 116.89 221.03C117.95 222.53 119.06 223.99 120.19 225.44C121.26 226.81 122.39 228.13 123.49 229.47C124.43 230.61 125.36 231.75 126.29 232.9C127.21 234.05 128.11 235.21 129.18 236.24C129.98 237.01 130.66 237.9 131.4 238.73C131.58 238.93 131.74 239.18 131.96 239.3C133.19 239.96 133.88 241.15 134.78 242.14C135.02 242.41 135.24 242.7 135.52 242.91C136.87 243.9 137.85 245.26 139.08 246.36C140.31 247.46 141.31 248.79 142.66 249.77C143.37 250.29 143.95 250.98 144.6 251.6C144.66 251.66 144.72 251.74 144.8 251.78C146.52 252.65 147.59 254.28 149.09 255.4C149.23 255.51 149.34 255.66 149.49 255.76C151.02 256.84 152.55 257.92 154.08 259C154.26 259.13 154.47 259.23 154.62 259.39C155.81 260.63 157.37 261.37 158.7 262.41C160.33 263.68 162.17 264.62 163.84 265.82C165.22 266.8 166.66 267.7 168.13 268.54C169.99 269.6 171.92 270.53 173.8 271.56C174.9 272.16 175.95 272.84 177.02 273.48C177.21 273.59 177.38 273.79 177.58 273.84C179.09 274.21 180.31 275.16 181.68 275.81C182.28 276.1 182.91 276.32 183.52 276.6C185.1 277.33 186.66 278.1 188.25 278.81C189.51 279.37 190.77 279.96 192.15 280.21C192.5 280.27 192.89 280.34 193.16 280.55C193.91 281.13 194.81 281.2 195.66 281.44C196.73 281.74 197.83 281.98 198.74 282.68C198.94 282.84 199.22 282.92 199.48 282.98C200.57 283.23 201.66 283.45 202.74 283.71C203.74 283.96 204.77 284.15 205.7 284.56C206.55 284.93 207.43 284.97 208.29 285.19C209.2 285.42 210.11 285.62 211.03 285.83C211.94 286.04 212.84 286.26 213.87 286.51C212.84 287.01 211.87 287.49 210.89 287.96C207.58 289.55 204.16 290.82 200.7 292.06C196.52 293.56 192.24 294.64 187.89 295.47C186.14 295.8 184.35 295.92 182.58 296.13C182.14 296.18 181.7 296.28 181.26 296.32C180.2 296.41 179.14 296.5 178.08 296.56C176.97 296.62 175.85 296.72 174.74 296.69C173.23 296.65 171.71 296.49 170.2 296.38C170.02 296.37 169.84 296.32 169.67 296.32C166.25 296.32 162.9 295.71 159.57 295.03C157.44 294.6 155.32 294.04 153.21 293.51C151.48 293.08 149.82 292.44 148.16 291.8C145.17 290.64 142.2 289.43 139.35 287.93C137.77 287.1 136.1 286.44 134.51 285.63C133.05 284.88 131.64 284.03 130.21 283.21C129.09 282.57 128.05 281.76 126.93 281.15C125.74 280.51 124.77 279.58 123.56 278.99C123.25 278.84 123.03 278.51 122.75 278.3C122.33 277.98 121.88 277.69 121.46 277.37C120.51 276.64 119.48 276.05 118.67 275.12C118.09 274.47 117.21 274.09 116.6 273.46C115.98 272.82 115.45 272.11 114.57 271.8C114.46 271.63 114.36 271.46 114.25 271.3C114.19 271.35 114.14 271.41 114.08 271.46C114.24 271.57 114.41 271.68 114.57 271.8C115.17 272.62 115.73 273.47 116.39 274.25C117.34 275.37 118.35 276.45 119.37 277.52C120.57 278.78 121.77 280.03 123.02 281.24C124.14 282.33 125.28 283.39 126.47 284.39C128.14 285.8 129.86 287.15 131.57 288.52C132.79 289.5 134.11 290.36 135.31 291.33C137.06 292.75 139 293.83 140.85 295.08C143.15 296.63 145.56 298 148.02 299.28C150.12 300.37 152.24 301.45 154.4 302.42C157.21 303.68 160.04 304.89 162.9 306.03C166.59 307.5 170.31 308.9 174.14 309.94C177.29 310.79 180.48 311.5 183.73 311.85C185.15 312 186.55 312.32 187.98 312.47C190.55 312.74 193.13 312.94 195.79 313.18C195.64 313.35 195.51 313.57 195.33 313.71C193.88 314.76 192.37 315.71 190.76 316.5C189.84 316.95 188.98 317.52 188.08 318.01C187.18 318.5 186.26 318.97 185.35 319.44C184.2 320.03 183 320.53 181.9 321.23C181.2 321.68 180.35 321.91 179.56 322.22C177.32 323.11 175.11 324.09 172.83 324.85C170.89 325.5 168.86 325.89 166.87 326.39C166.57 326.47 166.25 326.51 165.95 326.6C163.92 327.2 161.84 327.44 159.74 327.55C159.25 327.58 158.77 327.71 158.28 327.78C157.62 327.87 156.95 327.93 156.29 328.02C155.85 328.07 155.42 328.15 154.98 328.21C154.76 328.24 154.54 328.29 154.32 328.29C153.11 328.3 151.91 328.33 150.7 328.29C149.36 328.26 148.03 328.17 146.69 328.1C146.56 328.1 146.42 328.05 146.29 328.07C144.39 328.27 142.56 327.76 140.69 327.57C140.56 327.56 140.42 327.52 140.29 327.52C138.49 327.59 136.71 327.22 134.98 326.88C132.98 326.49 130.93 326.16 129.05 325.25C128.26 324.87 127.38 324.66 126.56 324.34C124.65 323.58 122.74 322.82 120.85 322.02C119.49 321.45 118.15 320.83 116.82 320.2C114.52 319.1 112.36 317.75 110.15 316.49C108.63 315.63 107.19 314.68 105.77 313.65C104.19 312.5 102.47 311.52 100.92 310.34C98.08 308.19 95.24 306.04 92.6 303.63C90.72 301.91 88.97 300.09 87.21 298.25C85.07 296.03 83.06 293.69 81.1 291.32C79.68 289.6 78.3 287.84 76.98 286.03C75.53 284.05 74.18 282 72.78 279.98C72.71 279.88 72.59 279.81 72.37 279.61C72.47 280.05 72.51 280.35 72.62 280.63C73.47 282.79 74.29 284.95 75.2 287.08C75.96 288.85 76.83 290.56 77.64 292.3C79.11 295.46 80.8 298.49 82.55 301.51C83.76 303.6 85.05 305.63 86.33 307.67C87.13 308.95 87.92 310.25 88.87 311.44C89.98 312.83 90.93 314.35 92.03 315.75C93.46 317.58 94.91 319.4 96.47 321.13C98.87 323.79 101.34 326.38 103.82 328.96C105.19 330.37 106.66 331.69 108.08 333.05C108.3 333.26 108.49 333.48 108.85 333.87C108.43 333.87 108.22 333.88 108.02 333.87C102.48 333.43 96.94 333.02 91.52 331.71C85.59 330.28 79.82 328.35 74.28 325.77C69.89 323.72 65.66 321.38 61.69 318.59C57.9 315.93 54.41 312.92 51.1 309.69C47.47 306.15 44.09 302.38 41.13 298.26C38.1 294.02 35.52 289.52 33.29 284.82C31.04 280.08 29.11 275.21 27.51 270.22C25.67 264.46 24.2 258.6 23.22 252.62C22.96 251.03 22.89 249.42 22.78 247.81C22.61 245.54 22.42 243.27 22.35 240.99C22.27 238.4 22.3 235.81 22.29 233.22C22.29 232.24 22.29 231.25 22.29 230.08C21.77 230.67 21.71 231.27 21.6 231.81C21.21 233.83 20.84 235.85 20.52 237.88C20.02 241.1 19.57 244.34 19.1 247.56C18.82 249.5 18.55 251.45 18.3 253.4C18.17 254.42 18.09 255.45 18.01 256.47C17.67 260.66 17.36 264.86 17.33 269.06C17.31 272.27 17.38 275.49 17.45 278.7C17.5 281.12 17.62 283.53 17.7 285.94C17.71 286.34 17.7 286.74 17.7 287.14C16.96 287.33 16.64 286.89 16.38 286.41C15.95 285.62 15.57 284.81 15.17 284.02C14.19 282.11 13.19 280.22 12.23 278.3C11.67 277.19 11.15 276.05 10.62 274.92C10.05 273.71 9.47002 272.51 8.90002 271.3C8.79002 271.06 8.67002 270.81 8.57002 270.56C7.21002 267.16 5.86002 263.76 4.83002 260.24C3.47002 255.59 2.39002 250.89 1.60002 246.11C0.860023 241.6 0.310023 237.06 0.100023 232.5C-0.0399766 229.32 -0.0499766 226.14 -0.00997658 222.96C0.0300234 219.56 0.130023 216.15 0.330023 212.75C0.810023 204.6 1.77002 196.52 3.58002 188.55C5.29002 180.99 7.45002 173.55 9.93002 166.21C10.84 163.5 11.83 160.82 12.93 158.18C14.29 154.93 15.6 151.66 17.16 148.49C18.25 146.29 19.24 144.04 20.3 141.83C20.74 140.9 21.24 140.01 21.73 139.11C23.1 136.6 24.39 134.05 25.89 131.62C26.02 131.42 26 131.12 26.05 130.87C26.42 130.73 26.6 130.46 26.59 130.06C26.67 129.98 26.75 129.91 26.83 129.83C26.78 129.79 26.74 129.76 26.69 129.72C26.67 129.84 26.65 129.97 26.62 130.09C26.26 130.23 26.09 130.51 26.08 130.89L26.12 130.93ZM23.71 36.6802C24.08 37.7702 24.39 38.7402 24.73 39.7102C25.29 41.3202 25.86 42.9202 26.41 44.5302C26.62 45.1402 26.91 45.6502 27.55 45.9202C28.49 46.3202 29.4 46.8002 30.35 47.1902C32.12 47.9202 33.89 48.6502 35.7 49.2902C36.88 49.7002 38.11 49.9502 39.33 50.2602C39.98 50.4302 40.62 50.6202 41.28 50.7102C42.65 50.9102 44.03 51.0802 45.41 51.2202C46.78 51.3502 48.17 51.5702 49.54 51.5002C51.32 51.4002 53.08 51.0202 54.86 50.8202C58.5 50.4002 61.94 49.3402 65.23 47.7702C67.06 46.9002 68.46 45.5702 69.37 43.7302C70.27 41.9102 70.74 39.9602 71.25 38.0102C71.31 37.7702 71.3 37.5002 71.32 37.1802C70.76 37.0102 70.25 36.8502 69.74 36.7202C69 36.5302 68.24 36.4202 67.53 36.1802C64.28 35.0702 60.95 34.2202 57.79 32.8202C55.55 31.8302 53.23 31.0102 50.93 30.1402C50.27 29.8902 49.57 29.6702 48.86 29.6002C47.8 29.4902 46.72 29.4702 45.66 29.5002C45.14 29.5102 44.58 29.6302 44.12 29.8702C42.58 30.6902 41.08 31.5402 39.36 31.9902C37.77 32.4102 36.26 33.0902 34.69 33.5902C33.29 34.0302 31.85 34.3802 30.44 34.7802C28.25 35.4002 26.07 36.0302 23.72 36.7002L23.71 36.6802ZM27.56 128.83L27.62 128.72H27.54L27.56 128.83Z" fill="#FC8DCF"/>
<path d="M116.125 83.1875L120.688 82.1875C121.854 82.1875 122.792 82.4375 123.5 82.9375C124.208 83.4375 124.562 83.9167 124.562 84.375C124.562 84.7917 124.458 85.4167 124.25 86.25C124.042 87.0833 122.354 95.2083 119.188 110.625C116.021 126.042 113.708 137.542 112.25 145.125C119.333 135.5 127.604 123.646 137.062 109.562C146.521 95.4792 152.042 86.125 153.625 81.5C154.125 80.0417 154.771 78.9167 155.562 78.125C156.354 77.3333 157.062 76.875 157.688 76.75C158.312 76.5833 159.271 76.5 160.562 76.5C161.854 76.5 163.375 76.7917 165.125 77.375C166.917 77.9167 167.812 78.8333 167.812 80.125C167.812 82.5833 164.167 89.6667 156.875 101.375C149.583 113.083 141.25 125.521 131.875 138.688C122.542 151.854 114.729 162.271 108.438 169.938C107.312 171.312 105.938 172 104.312 172C102.729 172 101.042 171.729 99.25 171.188C97.5 170.604 96.625 169.604 96.625 168.188C96.625 163.604 100.646 141.583 108.688 102.125C101.812 111.042 93.4583 123.458 83.625 139.375C73.375 155.833 67.5833 166.042 66.25 170C65.5 172.375 64.6458 173.75 63.6875 174.125C63.0208 174.417 62.3125 174.562 61.5625 174.562L56.625 175.125C55.6667 175.125 54.7917 174.854 54 174.312C53.1667 173.771 52.75 173.208 52.75 172.625C52.75 170.958 55.0417 165.979 59.625 157.688C64.25 149.396 69.625 140.396 75.75 130.688C81.9167 120.938 88.3542 111.458 95.0625 102.25C101.771 93.0417 106.958 86.8542 110.625 83.6875C111.375 83.0208 112.229 82.6875 113.188 82.6875L116.125 83.1875ZM154.938 154.812L154.125 156.5C154.125 157.708 155.812 158.875 159.188 160C162.604 161.083 166.333 161.625 170.375 161.625C174.458 161.625 178.938 161.021 183.812 159.812C188.688 158.604 192.917 157.125 196.5 155.375C200.125 153.625 203.104 151.792 205.438 149.875C207.812 147.958 209 146.292 209 144.875C209 143.083 206.917 141.417 202.75 139.875C198.583 138.333 192.521 136.646 184.562 134.812C176.646 132.938 170.833 130.583 167.125 127.75C163.458 124.917 161.625 121.479 161.625 117.438C161.625 113.354 163.083 109.458 166 105.75C168.917 102.042 172.708 98.75 177.375 95.875C182.083 93 187.208 90.4375 192.75 88.1875C204.208 83.5625 214.833 81.25 224.625 81.25C228.375 81.25 231.688 81.5833 234.562 82.25C240.062 83.5417 242.812 85.25 242.812 87.375C242.812 89.5 242.625 90.9583 242.25 91.75C241.875 92.5 241.562 93 241.312 93.25C241.104 93.5 240.812 93.75 240.438 94C240.104 94.25 239.854 94.4375 239.688 94.5625C237.854 96.1042 232.833 97.0625 224.625 97.4375C221.792 97.5625 220.25 97.7083 220 97.875C219.75 98.0417 219.521 98.125 219.312 98.125C219.146 98.125 218.938 97.9583 218.688 97.625C218.438 97.2917 218.312 96.75 218.312 96C218.312 95.25 219.125 93.875 220.75 91.875C215.667 92.1667 210.229 93.3333 204.438 95.375C198.688 97.4167 193.688 99.7292 189.438 102.312C185.188 104.854 181.646 107.375 178.812 109.875C175.979 112.333 174.562 114.083 174.562 115.125C174.562 116.125 174.875 116.958 175.5 117.625C177.25 119.5 182.104 121.458 190.062 123.5C198.312 125.625 203.812 127.333 206.562 128.625C209.312 129.917 211.583 131.146 213.375 132.312C215.208 133.479 216.667 134.667 217.75 135.875C220.292 138.792 221.562 141.75 221.562 144.75C221.562 147.75 220.75 150.562 219.125 153.188C217.542 155.812 215.125 158.354 211.875 160.812C208.667 163.271 204.875 165.458 200.5 167.375C190.917 171.667 179.5 173.812 166.25 173.812C156.583 173.812 150.417 171.25 147.75 166.125C147.042 164.833 146.688 163.5 146.688 162.125C146.688 160.708 147 159.438 147.625 158.312C148.292 157.188 149.083 156.333 150 155.75C151.792 154.625 153.062 154.062 153.812 154.062C154.562 154.062 154.938 154.312 154.938 154.812Z" fill="#242424"/>
<path d="M71.73 227.01C69.5967 227.01 67.61 226.663 65.77 225.97C63.9567 225.25 62.37 224.25 61.01 222.97C59.6767 221.663 58.6367 220.13 57.89 218.37C57.1433 216.61 56.77 214.69 56.77 212.61C56.77 210.53 57.1433 208.61 57.89 206.85C58.6367 205.09 59.69 203.57 61.05 202.29C62.41 200.983 63.9967 199.983 65.81 199.29C67.6233 198.57 69.61 198.21 71.77 198.21C74.0633 198.21 76.1567 198.61 78.05 199.41C79.9433 200.183 81.5433 201.343 82.85 202.89L79.49 206.05C78.4767 204.957 77.3433 204.143 76.09 203.61C74.8367 203.05 73.4767 202.77 72.01 202.77C70.5433 202.77 69.1967 203.01 67.97 203.49C66.77 203.97 65.7167 204.65 64.81 205.53C63.93 206.41 63.2367 207.45 62.73 208.65C62.25 209.85 62.01 211.17 62.01 212.61C62.01 214.05 62.25 215.37 62.73 216.57C63.2367 217.77 63.93 218.81 64.81 219.69C65.7167 220.57 66.77 221.25 67.97 221.73C69.1967 222.21 70.5433 222.45 72.01 222.45C73.4767 222.45 74.8367 222.183 76.09 221.65C77.3433 221.09 78.4767 220.25 79.49 219.13L82.85 222.33C81.5433 223.85 79.9433 225.01 78.05 225.81C76.1567 226.61 74.05 227.01 71.73 227.01ZM87.8325 226.61V198.61H93.0325V222.21H107.673V226.61H87.8325ZM124.39 227.01C122.203 227.01 120.19 226.65 118.35 225.93C116.51 225.21 114.91 224.21 113.55 222.93C112.19 221.623 111.137 220.103 110.39 218.37C109.643 216.61 109.27 214.69 109.27 212.61C109.27 210.53 109.643 208.623 110.39 206.89C111.137 205.13 112.19 203.61 113.55 202.33C114.91 201.023 116.51 200.01 118.35 199.29C120.19 198.57 122.19 198.21 124.35 198.21C126.537 198.21 128.537 198.57 130.35 199.29C132.19 200.01 133.79 201.023 135.15 202.33C136.51 203.61 137.563 205.13 138.31 206.89C139.057 208.623 139.43 210.53 139.43 212.61C139.43 214.69 139.057 216.61 138.31 218.37C137.563 220.13 136.51 221.65 135.15 222.93C133.79 224.21 132.19 225.21 130.35 225.93C128.537 226.65 126.55 227.01 124.39 227.01ZM124.35 222.45C125.763 222.45 127.07 222.21 128.27 221.73C129.47 221.25 130.51 220.57 131.39 219.69C132.27 218.783 132.95 217.743 133.43 216.57C133.937 215.37 134.19 214.05 134.19 212.61C134.19 211.17 133.937 209.863 133.43 208.69C132.95 207.49 132.27 206.45 131.39 205.57C130.51 204.663 129.47 203.97 128.27 203.49C127.07 203.01 125.763 202.77 124.35 202.77C122.937 202.77 121.63 203.01 120.43 203.49C119.257 203.97 118.217 204.663 117.31 205.57C116.43 206.45 115.737 207.49 115.23 208.69C114.75 209.863 114.51 211.17 114.51 212.61C114.51 214.023 114.75 215.33 115.23 216.53C115.737 217.73 116.43 218.783 117.31 219.69C118.19 220.57 119.23 221.25 120.43 221.73C121.63 222.21 122.937 222.45 124.35 222.45ZM150.231 226.61V203.01H140.951V198.61H164.711V203.01H155.431V226.61H150.231ZM188.294 198.61H193.494V226.61H188.294V198.61ZM173.814 226.61H168.614V198.61H173.814V226.61ZM188.694 214.61H173.374V210.17H188.694V214.61ZM200.997 226.61V198.61H206.197V226.61H200.997ZM213.77 226.61V198.61H218.05L235.61 220.17H233.49V198.61H238.65V226.61H234.37L216.81 205.05H218.93V226.61H213.77ZM259.233 227.01C257.046 227.01 255.033 226.663 253.193 225.97C251.379 225.25 249.793 224.25 248.433 222.97C247.073 221.663 246.019 220.13 245.273 218.37C244.526 216.61 244.153 214.69 244.153 212.61C244.153 210.53 244.526 208.61 245.273 206.85C246.019 205.09 247.073 203.57 248.433 202.29C249.819 200.983 251.433 199.983 253.273 199.29C255.113 198.57 257.126 198.21 259.313 198.21C261.686 198.21 263.819 198.597 265.713 199.37C267.633 200.143 269.246 201.277 270.553 202.77L267.273 205.97C266.179 204.877 264.993 204.077 263.713 203.57C262.459 203.037 261.073 202.77 259.553 202.77C258.086 202.77 256.726 203.01 255.473 203.49C254.219 203.97 253.139 204.65 252.233 205.53C251.326 206.41 250.619 207.45 250.113 208.65C249.633 209.85 249.393 211.17 249.393 212.61C249.393 214.023 249.633 215.33 250.113 216.53C250.619 217.73 251.326 218.783 252.233 219.69C253.139 220.57 254.206 221.25 255.433 221.73C256.659 222.21 258.019 222.45 259.513 222.45C260.899 222.45 262.233 222.237 263.513 221.81C264.819 221.357 266.059 220.61 267.233 219.57L270.193 223.45C268.726 224.623 267.019 225.517 265.073 226.13C263.153 226.717 261.206 227.01 259.233 227.01ZM265.273 222.77V212.29H270.193V223.45L265.273 222.77ZM296.786 227.01C294.599 227.01 292.506 226.703 290.506 226.09C288.506 225.45 286.919 224.637 285.746 223.65L287.546 219.61C288.666 220.49 290.053 221.223 291.706 221.81C293.359 222.397 295.053 222.69 296.786 222.69C298.253 222.69 299.439 222.53 300.346 222.21C301.253 221.89 301.919 221.463 302.346 220.93C302.773 220.37 302.986 219.743 302.986 219.05C302.986 218.197 302.679 217.517 302.066 217.01C301.453 216.477 300.653 216.063 299.666 215.77C298.706 215.45 297.626 215.157 296.426 214.89C295.253 214.623 294.066 214.317 292.866 213.97C291.693 213.597 290.613 213.13 289.626 212.57C288.666 211.983 287.879 211.21 287.266 210.25C286.653 209.29 286.346 208.063 286.346 206.57C286.346 205.05 286.746 203.663 287.546 202.41C288.373 201.13 289.613 200.117 291.266 199.37C292.946 198.597 295.066 198.21 297.626 198.21C299.306 198.21 300.973 198.423 302.626 198.85C304.279 199.277 305.719 199.89 306.946 200.69L305.306 204.73C304.053 203.983 302.759 203.437 301.426 203.09C300.093 202.717 298.813 202.53 297.586 202.53C296.146 202.53 294.973 202.703 294.066 203.05C293.186 203.397 292.533 203.85 292.106 204.41C291.706 204.97 291.506 205.61 291.506 206.33C291.506 207.183 291.799 207.877 292.386 208.41C292.999 208.917 293.786 209.317 294.746 209.61C295.733 209.903 296.826 210.197 298.026 210.49C299.226 210.757 300.413 211.063 301.586 211.41C302.786 211.757 303.866 212.21 304.826 212.77C305.813 213.33 306.599 214.09 307.186 215.05C307.799 216.01 308.106 217.223 308.106 218.69C308.106 220.183 307.693 221.57 306.866 222.85C306.066 224.103 304.826 225.117 303.146 225.89C301.466 226.637 299.346 227.01 296.786 227.01ZM318.552 226.61V203.01H309.272V198.61H333.032V203.01H323.752V226.61H318.552ZM349.663 227.01C347.477 227.01 345.463 226.65 343.623 225.93C341.783 225.21 340.183 224.21 338.823 222.93C337.463 221.623 336.41 220.103 335.663 218.37C334.917 216.61 334.543 214.69 334.543 212.61C334.543 210.53 334.917 208.623 335.663 206.89C336.41 205.13 337.463 203.61 338.823 202.33C340.183 201.023 341.783 200.01 343.623 199.29C345.463 198.57 347.463 198.21 349.623 198.21C351.81 198.21 353.81 198.57 355.623 199.29C357.463 200.01 359.063 201.023 360.423 202.33C361.783 203.61 362.837 205.13 363.583 206.89C364.33 208.623 364.703 210.53 364.703 212.61C364.703 214.69 364.33 216.61 363.583 218.37C362.837 220.13 361.783 221.65 360.423 222.93C359.063 224.21 357.463 225.21 355.623 225.93C353.81 226.65 351.823 227.01 349.663 227.01ZM349.623 222.45C351.037 222.45 352.343 222.21 353.543 221.73C354.743 221.25 355.783 220.57 356.663 219.69C357.543 218.783 358.223 217.743 358.703 216.57C359.21 215.37 359.463 214.05 359.463 212.61C359.463 211.17 359.21 209.863 358.703 208.69C358.223 207.49 357.543 206.45 356.663 205.57C355.783 204.663 354.743 203.97 353.543 203.49C352.343 203.01 351.037 202.77 349.623 202.77C348.21 202.77 346.903 203.01 345.703 203.49C344.53 203.97 343.49 204.663 342.583 205.57C341.703 206.45 341.01 207.49 340.503 208.69C340.023 209.863 339.783 211.17 339.783 212.61C339.783 214.023 340.023 215.33 340.503 216.53C341.01 217.73 341.703 218.783 342.583 219.69C343.463 220.57 344.503 221.25 345.703 221.73C346.903 222.21 348.21 222.45 349.623 222.45ZM370.215 226.61V198.61H381.735C384.215 198.61 386.335 199.01 388.095 199.81C389.882 200.61 391.255 201.757 392.215 203.25C393.175 204.743 393.655 206.517 393.655 208.57C393.655 210.623 393.175 212.397 392.215 213.89C391.255 215.357 389.882 216.49 388.095 217.29C386.335 218.063 384.215 218.45 381.735 218.45H373.095L375.415 216.09V226.61H370.215ZM388.535 226.61L381.455 216.45H387.015L394.135 226.61H388.535ZM375.415 216.65L373.095 214.17H381.495C383.789 214.17 385.509 213.677 386.655 212.69C387.829 211.703 388.415 210.33 388.415 208.57C388.415 206.783 387.829 205.41 386.655 204.45C385.509 203.49 383.789 203.01 381.495 203.01H373.095L375.415 200.45V216.65ZM404.273 210.25H418.193V214.53H404.273V210.25ZM404.673 222.25H420.473V226.61H399.473V198.61H419.913V202.97H404.673V222.25Z" fill="#242424"/>
</g>
<defs>
<clipPath id="clip0_215_54">
<rect width="447.56" height="333.92" fill="white"/>
</clipPath>
</defs>
</svg>
