<?xml version="1.0" encoding="UTF-8"?>
<svg id="Layer_2" data-name="Layer 2" xmlns="http://www.w3.org/2000/svg" viewBox="0 0 279.22 270.66">
  <defs>
    <style>
      .cls-1 {
        fill: #ed90bc;
        stroke-width: 0px;
      }

      .cls-2 {
        fill: #fce9f2;
        stroke: #fce0e4;
        stroke-miterlimit: 10;
      }
    </style>
  </defs>
  <g id="Layer_1-2" data-name="Layer 1">
    <path class="cls-1" d="m187.31,153.22c-2.19-5.38-5.83-10.06-10.2-13.89L89.87,56.28h-27.28v98.07h22.16v-73.1l75.26,72.54c5.96,5.23,8.96,13.27,7.21,21-.11.51-.25,1.02-.41,1.54-2.08,6.92-8.64,13.56-20.7,13.34-26.1-.48-27.49-30.39-27.49-30.39h-22.09s4.13,49.61,45.13,50.73c28.61.78,40.72-11.64,45.61-26.59,1.18-3.6,2.12-7.33,2.53-11.23.76-7.37-.31-13.62-2.49-18.97Z"/>
    <path class="cls-2" d="m88.27,60.28l86.09,81.95.06.06.06.05c4.22,3.7,7.29,7.86,9.13,12.39,2.14,5.25,2.86,10.82,2.22,17.05-.33,3.21-1.08,6.52-2.35,10.4-5.26,16.06-18.11,23.87-39.3,23.87-.79,0-1.59-.01-2.4-.03-15.33-.42-26.89-8.27-34.36-23.35-3.67-7.4-5.45-14.86-6.26-19.38h13.92c.51,3.18,1.6,7.94,3.9,12.74,5.42,11.32,14.78,17.42,27.07,17.65.22,0,.44,0,.66,0,9.22,0,20.35-4.25,23.94-16.19.18-.6.34-1.2.48-1.8,2.03-8.96-1.19-18.46-8.4-24.83l-75.2-72.48-6.78-6.53v78.51h-14.16V60.28h21.68m1.6-4h-27.28v98.07h22.16v-73.1l75.26,72.54c5.96,5.23,8.96,13.27,7.21,21-.11.51-.25,1.02-.41,1.54-2.05,6.81-8.43,13.34-20.11,13.34-.19,0-.39,0-.59,0-26.11-.48-27.49-30.39-27.49-30.39h-22.09s4.13,49.61,45.13,50.73c.85.02,1.69.03,2.51.03,26.81,0,38.35-12.12,43.1-26.63,1.18-3.6,2.12-7.33,2.53-11.23.76-7.37-.31-13.62-2.49-18.97-2.19-5.38-5.83-10.06-10.2-13.89L89.87,56.28h0Z"/>
    <g>
      <g>
        <path class="cls-1" d="m53.89,262.86c16.48-16.94,23.96-23.04,38.6-29.15l.33.59c-14.64,6.04-21.86,12.34-39.06,29.68-.46.46-.85.79-1.38.79-.59,0-.99-.66-.99-1.25,0-8.47,22.52-29.54,34.07-40.11l-.13-.13c-23.7,12.8-41.62,41.03-73.14,41.03-6.04,0-11.95-2.23-11.95-4.2,0-.26.33-.53.79-.53,1.12,0,2.43,1.38,4.33,2.43,1.71.98,4,1.64,6.89,1.64,31.12,0,48.32-28.63,79.31-45.17l.52.59c-13.72,11.23-38.28,37.62-38.28,43.73l.07.07Z"/>
        <path class="cls-1" d="m91.57,218.48l.52.59c-13.72,11.23-38.28,37.62-38.28,43.73l.07.07c16.48-16.94,23.96-23.04,38.6-29.15l.33.59c-14.64,6.04-21.86,12.34-39.06,29.68-.46.46-.85.79-1.38.79-.59,0-.99-.66-.99-1.25,0-8.47,22.52-29.54,34.07-40.11l-.13-.13c-23.7,12.8-41.62,41.03-73.14,41.03-6.04,0-11.95-2.23-11.95-4.2,0-.26.33-.53.79-.53,1.12,0,2.43,1.38,4.33,2.43,1.71.98,4,1.64,6.89,1.64,31.12,0,48.32-28.63,79.31-45.17m.06-.31l-.17.09c-11.43,6.1-20.89,13.77-30.04,21.18-15.21,12.32-29.58,23.96-49.15,23.96-2.6,0-4.94-.56-6.77-1.61-.7-.39-1.33-.83-1.89-1.21-1-.7-1.79-1.25-2.57-1.25-.57,0-1.04.35-1.04.78,0,2.21,6.16,4.45,12.2,4.45,20.93,0,35.94-12.44,50.46-24.48,7.24-6.01,14.1-11.69,21.65-15.96-14.53,13.34-33.17,31.46-33.17,39.39,0,.72.5,1.5,1.24,1.5.64,0,1.1-.41,1.55-.86,16.85-16.98,24.08-23.47,38.98-29.62l.26-.11-.14-.25-.33-.59-.11-.2-.21.09c-14.78,6.16-22.24,12.33-38.27,28.78,1.3-6.89,25.14-32.37,38.13-42.99l.2-.16-.17-.19-.52-.59-.13-.15h0Z"/>
      </g>
      <g>
        <path class="cls-1" d="m71.41,256.43c-1.9.79-3.41,1.51-6.89,3.15-.2,0-.33-.07-.33-.26,0-.13.07-.26.33-.39,3.41-1.64,5.45-2.49,9.39-4,1.64-.99,3.28-1.58,4.4-1.58,1.31,0,1.84.72,1.84,1.97,0,1.31-.85,2.82-2.17,4.2.33.39.66.46,1.12.46.79,0,1.9-.33,3.48-1.05.2,0,.33.07.33.26,0,.13-.07.26-.33.39-1.51.72-2.63.99-3.61.99-.59,0-1.11-.13-1.44-.53-2.17,2.17-5.32,3.87-7.62,3.87-1.45,0-2.17-.59-2.17-1.64,0-1.84,1.71-4.07,3.74-5.71l-.07-.13Zm8.14-1.18c0-.85-.39-1.25-1.18-1.25-2.69,0-9.98,5.97-9.98,8.4,0,.46.33.85,1.45.85,3.74,0,9.72-4.6,9.72-8.01Z"/>
        <path class="cls-1" d="m78.3,253.34c1.31,0,1.84.72,1.84,1.97,0,1.31-.85,2.82-2.17,4.2.33.39.66.46,1.12.46.79,0,1.9-.33,3.48-1.05.2,0,.33.07.33.26,0,.13-.07.26-.33.39-1.51.72-2.63.99-3.61.99-.59,0-1.11-.13-1.44-.53-2.17,2.17-5.32,3.87-7.62,3.87-1.45,0-2.17-.59-2.17-1.64,0-1.84,1.71-4.07,3.74-5.71l-.07-.13c-1.9.79-3.41,1.51-6.89,3.15-.2,0-.33-.07-.33-.26,0-.13.07-.26.33-.39,3.41-1.64,5.45-2.49,9.39-4,1.64-.99,3.28-1.58,4.4-1.58m-8.47,9.91c3.74,0,9.72-4.6,9.72-8.01,0-.85-.39-1.25-1.18-1.25-2.69,0-9.98,5.97-9.98,8.4,0,.46.33.85,1.45.85m8.47-10.16c-1.15,0-2.85.6-4.53,1.61-4.07,1.56-6.09,2.42-9.37,3.99-.32.16-.47.36-.47.62,0,.12.04.51.58.51h.06l.05-.02.73-.35c2.34-1.11,3.75-1.77,5.12-2.37-1.57,1.46-3,3.42-3,5.18,0,.71.31,1.89,2.42,1.89,2.21,0,5.31-1.54,7.61-3.77.34.29.82.42,1.44.42,1.1,0,2.28-.32,3.72-1.01.32-.16.47-.36.47-.62,0-.12-.04-.51-.58-.51h-.05l-.05.02c-1.51.69-2.61,1.03-3.38,1.03-.34,0-.56-.04-.77-.21,1.34-1.46,2.07-2.94,2.07-4.2,0-1.47-.7-2.22-2.09-2.22h0Zm-8.47,9.91c-1.2,0-1.2-.45-1.2-.6,0-2.21,7.09-8.15,9.73-8.15.66,0,.93.29.93,1,0,3.35-5.95,7.76-9.47,7.76h0Z"/>
      </g>
      <g>
        <path class="cls-1" d="m88.28,255.44c-2.89,1.12-5.12,2.1-9.72,4.14-.2,0-.33-.07-.33-.26,0-.13.07-.26.33-.39,4.53-1.97,6.63-2.89,13.33-5.38l.26.33c-7.22,5.38-9.45,7.94-9.45,8.93,0,.26.13.33.66.33,1.64,0,6.7-2.1,9.98-3.87,4.4-2.36,5.25-2.82,11.82-5.71l.26.33c-7.22,5.38-9.59,7.94-9.59,8.93,0,.26.13.33.66.33,1.64,0,8.34-2.63,11.62-4.2.2,0,.33.07.33.26,0,.13-.07.26-.33.39-3.35,1.51-9.72,4.2-11.95,4.2-.66,0-1.18-.2-1.18-.79,0-1.71,2.17-3.81,6.5-7.09l-.07-.13c-2.69,1.31-3.41,1.77-8.08,4.14-3.35,1.71-8.08,3.87-10.31,3.87-.66,0-1.18-.2-1.18-.79,0-1.71,2.17-4.14,6.5-7.42l-.07-.13Z"/>
        <path class="cls-1" d="m105.15,253.54l.26.33c-7.22,5.38-9.59,7.94-9.59,8.93,0,.26.13.33.66.33,1.64,0,8.34-2.63,11.62-4.2.2,0,.33.07.33.26,0,.13-.07.26-.33.39-3.35,1.51-9.72,4.2-11.95,4.2-.66,0-1.18-.2-1.18-.79,0-1.71,2.17-3.81,6.5-7.09l-.07-.13c-2.69,1.31-3.41,1.77-8.08,4.14-3.35,1.71-8.08,3.87-10.31,3.87-.66,0-1.18-.2-1.18-.79,0-1.71,2.17-4.14,6.5-7.42l-.07-.13c-2.89,1.12-5.12,2.1-9.72,4.14-.2,0-.33-.07-.33-.26,0-.13.07-.26.33-.39,4.53-1.97,6.63-2.89,13.33-5.38l.26.33c-7.22,5.38-9.45,7.94-9.45,8.93,0,.26.13.33.66.33,1.64,0,6.7-2.1,9.98-3.87,4.4-2.36,5.25-2.82,11.82-5.71m.08-.31l-.18.08c-6.56,2.89-7.47,3.38-11.82,5.71-3.31,1.79-8.33,3.85-9.88,3.85-.28,0-.37-.02-.41-.04,0,0,0-.02,0-.04,0-.53.91-2.43,9.35-8.73l.21-.15-.16-.2-.26-.33-.11-.14-.17.06c-6.6,2.46-8.78,3.41-13.13,5.3l-.21.09c-.33.16-.48.36-.48.62,0,.12.04.51.58.51h.05l.05-.02c4.03-1.79,6.21-2.75,8.56-3.68-3.83,3.02-5.62,5.21-5.62,6.87,0,.39.19,1.04,1.43,1.04,2.41,0,7.56-2.44,10.42-3.9,2.18-1.1,3.5-1.79,4.56-2.35.69-.36,1.27-.66,1.9-.98-3.23,2.54-5.18,4.52-5.18,6.19,0,.39.19,1.04,1.43,1.04,2.49,0,9.85-3.23,12.05-4.22.32-.16.48-.36.48-.62,0-.12-.04-.51-.58-.51h-.06l-.05.02c-3.44,1.65-9.96,4.18-11.51,4.18-.28,0-.38-.02-.41-.04,0,0,0-.02,0-.04,0-.62,1.23-2.58,9.49-8.73l.21-.15-.16-.2-.26-.33-.12-.15h0Z"/>
      </g>
      <g>
        <path class="cls-1" d="m104.1,258.92c3.28-1.38,7.81-3.61,11.88-5.65,1.12-1.9,2.69-2.76,3.55-2.76.2,0,.39.2.39.46,0,.59-.99,1.64-3.41,2.63.52.59,1.31,1.18,1.9,1.44.39-.13.79-.39.98-.39s.33.07.33.26c0,.33-.52.33-1.38.79-5.51,2.89-8.4,5.97-8.4,7.02,0,.26.2.39.59.39,1.64,0,8.34-2.63,11.62-4.2.2,0,.33.07.33.26,0,.13-.07.26-.33.39-3.35,1.51-9.72,4.2-11.95,4.2-.72,0-1.05-.39-1.05-.85,0-1.84,1.64-4.46,8.73-7.55-.72-.39-1.45-.99-1.97-1.44-3.74,1.77-8.21,4.07-11.82,5.65-.2,0-.33-.07-.33-.26,0-.13.07-.26.33-.39Z"/>
        <path class="cls-1" d="m119.53,250.52c.2,0,.39.2.39.46,0,.59-.99,1.64-3.41,2.63.52.59,1.31,1.18,1.9,1.44.39-.13.79-.39.98-.39s.33.07.33.26c0,.33-.52.33-1.38.79-5.51,2.89-8.4,5.97-8.4,7.02,0,.26.2.39.59.39,1.64,0,8.34-2.63,11.62-4.2.2,0,.33.07.33.26,0,.13-.07.26-.33.39-3.35,1.51-9.72,4.2-11.95,4.2-.72,0-1.05-.39-1.05-.85,0-1.84,1.64-4.46,8.73-7.55-.72-.39-1.45-.99-1.97-1.44-3.74,1.77-8.21,4.07-11.82,5.65-.2,0-.33-.07-.33-.26,0-.13.07-.26.33-.39,3.28-1.38,7.81-3.61,11.88-5.65,1.12-1.9,2.69-2.76,3.55-2.76m0-.25c-1.02,0-2.62.97-3.72,2.82-4.02,2.01-8.55,4.24-11.8,5.61-.33.16-.48.37-.48.62,0,.12.04.51.58.51h.05l.05-.02c2.32-1.01,5-2.32,7.58-3.59,1.4-.69,2.79-1.37,4.09-1.99.54.46,1.02.83,1.47,1.12-5.6,2.5-8.44,5.05-8.44,7.58,0,.51.34,1.1,1.3,1.1,2.49,0,9.85-3.23,12.05-4.22.32-.16.48-.36.48-.62,0-.12-.04-.51-.58-.51h-.06l-.05.02c-3.44,1.65-9.96,4.18-11.51,4.18-.34,0-.34-.1-.34-.14,0-.89,2.76-3.92,8.27-6.8.32-.17.58-.27.8-.36.38-.15.71-.28.71-.65,0-.12-.04-.51-.58-.51-.17,0-.35.09-.59.2-.12.06-.25.12-.38.17-.46-.23-1.04-.65-1.48-1.08,2.37-1.02,3.23-2.07,3.23-2.72,0-.38-.29-.71-.64-.71h0Z"/>
      </g>
      <g>
        <path class="cls-1" d="m137.05,264.24c3.61-11.23,10.97-17.46,20.35-20.94,12.93-4.79,30.53-3.35,45.63-5.06,8.21-11.16,19.76-20.94,27.77-20.94,1.11,0,1.71.66,1.71,1.51,0,4.46-10.57,16.94-29.09,20.02-.66.99-1.38,1.97-1.97,2.95-10.83,17.07-28.49,28.63-55.54,28.63-7.68,0-14.64-2.43-14.64-4.14,0-.46.39-.79.85-.79.98,0,1.51,2.17,6.56,3.41,2.17.53,5.06.92,9.26.92,23.77,0,45.37-17.07,52.92-28.43.53-.79,1.12-1.64,1.71-2.43-14.51,1.44-32.04.07-45.04,4.92-9.19,3.48-16.48,9.65-20.02,20.62l-.46-.26Zm94.87-45.17c0-.85-.46-1.18-1.31-1.18-7.22,0-18.65,9.26-26.65,20.22,17.73-3.28,27.97-15.36,27.97-19.04Z"/>
        <path class="cls-1" d="m230.81,217.3c1.11,0,1.71.66,1.71,1.51,0,4.46-10.57,16.94-29.09,20.02-.66.99-1.38,1.97-1.97,2.95-10.83,17.07-28.49,28.63-55.54,28.63-7.68,0-14.64-2.43-14.64-4.14,0-.46.39-.79.85-.79.98,0,1.51,2.17,6.56,3.41,2.17.53,5.06.92,9.26.92,23.77,0,45.37-17.07,52.92-28.43.53-.79,1.12-1.64,1.71-2.43-14.51,1.44-32.04.07-45.04,4.92-9.19,3.48-16.48,9.65-20.02,20.62l-.46-.26c3.61-11.23,10.97-17.46,20.35-20.94,12.93-4.79,30.53-3.35,45.63-5.06,8.21-11.16,19.76-20.94,27.77-20.94m-26.85,20.81c17.73-3.28,27.97-15.36,27.97-19.04,0-.85-.46-1.18-1.31-1.18-7.22,0-18.65,9.26-26.65,20.22m26.85-21.06c-8.56,0-20.45,10.85-27.91,20.96-5.03.56-10.44.78-15.67,1-10.46.43-21.28.87-29.91,4.06-10.48,3.88-17.19,10.79-20.5,21.1l-.06.19.18.1.46.26.27.15.09-.29c3.21-9.92,9.71-16.61,19.87-20.46,8.88-3.32,19.93-3.72,30.62-4.1,4.83-.17,9.4-.34,13.79-.75-.43.59-.89,1.25-1.38,1.99-7.82,11.76-29.34,28.32-52.71,28.32-3.66,0-6.67-.3-9.2-.91-3.27-.81-4.61-2.01-5.41-2.72-.45-.41-.78-.7-1.21-.7-.62,0-1.1.46-1.1,1.04,0,2.13,7.65,4.39,14.89,4.39,24.89,0,43.65-9.67,55.75-28.74.39-.65.85-1.31,1.28-1.95.21-.3.42-.61.62-.91,18.96-3.2,29.19-15.8,29.19-20.25,0-1.05-.79-1.76-1.96-1.76h0Zm-26.27,20.7c8.34-11.21,19.47-19.61,26.07-19.61.76,0,1.06.26,1.06.93,0,3.36-9.62,15.19-27.14,18.67h0Z"/>
      </g>
      <g>
        <path class="cls-1" d="m194.36,263.65c5.97-4.33,10.24-8.8,14.58-13.72-6.83,4.4-13,7.94-16.74,9.65-.2,0-.33-.07-.33-.26,0-.13.07-.26.33-.39,3.94-1.84,10.77-5.84,18.25-10.7,4.4-5.06,9.06-10.64,15.63-17.14,8.14-8.08,15.1-14.51,17.86-14.51.92,0,1.25.59,1.25,1.51,0,6.11-17.66,19.7-33.22,29.94-4.53,5.32-8.08,9.52-11.95,12.67l.07.13c7.94-3.68,16.35-7.02,22.06-7.02v.46c-8.14,4.4-9.72,7.55-9.72,8.53,0,.26.13.33.66.33,1.64,0,7.16-2.63,10.31-4.2.2,0,.33.07.33.26,0,.13-.07.26-.33.39-3.22,1.51-8.4,4.2-10.64,4.2-.66,0-1.18-.2-1.18-.79,0-1.71,1.58-4.66,8.6-8.34v-.13c-3.35,0-11.56,2.89-25.54,9.59l-.26-.46Zm50.09-45.5c0-.59-.33-.92-.66-.92-2.56,0-9.06,6.43-17.01,14.38-5.58,5.58-9.85,10.5-13.46,14.71,14.9-9.91,31.12-22.52,31.12-28.17Z"/>
        <path class="cls-1" d="m243.93,216.57c.92,0,1.25.59,1.25,1.51,0,6.11-17.66,19.7-33.22,29.94-4.53,5.32-8.08,9.52-11.95,12.67l.07.13c7.94-3.68,16.35-7.02,22.06-7.02v.46c-8.14,4.4-9.72,7.55-9.72,8.53,0,.26.13.33.66.33,1.64,0,7.16-2.63,10.31-4.2.2,0,.33.07.33.26,0,.13-.07.26-.33.39-3.22,1.51-8.4,4.2-10.64,4.2-.66,0-1.18-.2-1.18-.79,0-1.71,1.58-4.66,8.6-8.34v-.13c-3.35,0-11.56,2.89-25.54,9.59l-.26-.46c5.97-4.33,10.24-8.8,14.58-13.72-6.83,4.4-13,7.94-16.74,9.65-.2,0-.33-.07-.33-.26,0-.13.07-.26.33-.39,3.94-1.84,10.77-5.84,18.25-10.7,4.4-5.06,9.06-10.64,15.63-17.14,8.14-8.08,15.1-14.51,17.86-14.51m-30.6,29.74c14.9-9.91,31.12-22.52,31.12-28.17,0-.59-.33-.92-.66-.92-2.56,0-9.06,6.43-17.01,14.38-5.58,5.58-9.85,10.5-13.46,14.71m30.6-29.99c-2.77,0-9.21,5.83-18.03,14.58-5.6,5.54-9.88,10.5-13.66,14.87-.66.76-1.31,1.52-1.95,2.26-7.47,4.85-14.27,8.83-18.19,10.67-.32.16-.47.36-.47.62,0,.12.04.51.58.51h.05l.05-.02c3.5-1.6,9.12-4.81,15.26-8.7-4.14,4.62-8.12,8.55-13.34,12.34l-.18.13.11.19.26.46.12.2.21-.1c14.89-7.13,21.59-9.18,24.58-9.51-6.94,3.79-8,6.73-8,8.17,0,.39.19,1.04,1.43,1.04,1.94,0,5.92-1.91,9.12-3.45.58-.28,1.12-.54,1.62-.77.32-.16.47-.36.47-.62,0-.12-.04-.51-.58-.51h-.06l-.05.03c-5.31,2.65-9.02,4.18-10.19,4.18-.28,0-.38-.02-.41-.04,0,0,0-.02,0-.04,0-1.08,2-4.22,9.59-8.31l.13-.07v-.86h-.25c-5.85,0-14.52,3.56-20.97,6.5,3.4-2.96,6.62-6.74,10.61-11.42l.36-.42c7.85-5.17,33.3-22.52,33.3-30.13,0-1.46-.81-1.76-1.5-1.76h0Zm-29.21,28.76c3.64-4.21,7.4-8.46,12.25-13.3,7.36-7.36,14.3-14.3,16.83-14.3.2,0,.41.23.41.67,0,4.47-10.98,14.49-29.48,26.94h0Z"/>
      </g>
      <g>
        <path class="cls-1" d="m226.26,256.43c-1.9.79-3.41,1.51-6.89,3.15-.2,0-.33-.07-.33-.26,0-.13.07-.26.33-.39,3.41-1.64,5.45-2.49,9.39-4,1.64-.99,3.28-1.58,4.4-1.58,1.31,0,1.84.72,1.84,1.97,0,1.31-.85,2.82-2.17,4.2.33.39.66.46,1.12.46.79,0,1.9-.33,3.48-1.05.2,0,.33.07.33.26,0,.13-.07.26-.33.39-1.51.72-2.63.99-3.61.99-.59,0-1.11-.13-1.44-.53-2.17,2.17-5.32,3.87-7.62,3.87-1.45,0-2.17-.59-2.17-1.64,0-1.84,1.71-4.07,3.74-5.71l-.07-.13Zm8.14-1.18c0-.85-.39-1.25-1.18-1.25-2.69,0-9.98,5.97-9.98,8.4,0,.46.33.85,1.45.85,3.74,0,9.72-4.6,9.72-8.01Z"/>
        <path class="cls-1" d="m233.15,253.34c1.31,0,1.84.72,1.84,1.97,0,1.31-.85,2.82-2.17,4.2.33.39.66.46,1.12.46.79,0,1.9-.33,3.48-1.05.2,0,.33.07.33.26,0,.13-.07.26-.33.39-1.51.72-2.63.99-3.61.99-.59,0-1.11-.13-1.44-.53-2.17,2.17-5.32,3.87-7.62,3.87-1.45,0-2.17-.59-2.17-1.64,0-1.84,1.71-4.07,3.74-5.71l-.07-.13c-1.9.79-3.41,1.51-6.89,3.15-.2,0-.33-.07-.33-.26,0-.13.07-.26.33-.39,3.41-1.64,5.45-2.49,9.39-4,1.64-.99,3.28-1.58,4.4-1.58m-8.47,9.91c3.74,0,9.72-4.6,9.72-8.01,0-.85-.39-1.25-1.18-1.25-2.69,0-9.98,5.97-9.98,8.4,0,.46.33.85,1.45.85m8.47-10.16c-1.15,0-2.85.6-4.53,1.61-4.07,1.56-6.09,2.42-9.37,3.99-.32.16-.47.36-.47.62,0,.12.04.51.58.51h.06l.05-.02.73-.35c2.34-1.11,3.75-1.77,5.12-2.37-1.57,1.46-3,3.42-3,5.18,0,.71.31,1.89,2.42,1.89,2.21,0,5.31-1.54,7.61-3.77.34.29.82.42,1.44.42,1.1,0,2.28-.32,3.72-1.01.32-.16.47-.36.47-.62,0-.12-.04-.51-.58-.51h-.05l-.05.02c-1.51.69-2.61,1.03-3.38,1.03-.34,0-.56-.04-.77-.21,1.34-1.46,2.07-2.94,2.07-4.2,0-1.47-.7-2.22-2.09-2.22h0Zm-8.47,9.91c-1.2,0-1.2-.45-1.2-.6,0-2.21,7.09-8.15,9.73-8.15.66,0,.93.29.93,1,0,3.35-5.95,7.76-9.47,7.76h0Z"/>
      </g>
      <g>
        <path class="cls-1" d="m235.91,263.65c5.71-3.28,10.31-7.62,10.31-8.6,0-.26-.13-.33-.52-.33-1.64,0-8.99,3.28-12.28,4.86-.2,0-.33-.07-.33-.26,0-.13.07-.26.33-.39,3.35-1.51,10.37-4.86,12.61-4.86.66,0,1.05.2,1.05.79,0,1.71-1.25,2.89-4.66,5.45l.07.13c7.94-3.68,14.51-6.63,20.22-6.63v.46c-8.14,4.4-10.05,7.55-10.05,8.53,0,.26.13.33.66.33,1.64,0,8.01-2.63,11.29-4.2.2,0,.33.07.33.26,0,.13-.07.26-.33.39-3.35,1.51-9.39,4.2-11.62,4.2-.66,0-1.18-.2-1.18-.79,0-1.71,1.9-4.66,8.93-8.34v-.13c-3.35,0-10.57,2.89-24.55,9.59l-.26-.46Z"/>
        <path class="cls-1" d="m262.7,253.8v.46c-8.14,4.4-10.05,7.55-10.05,8.53,0,.26.13.33.66.33,1.64,0,8.01-2.63,11.29-4.2.2,0,.33.07.33.26,0,.13-.07.26-.33.39-3.35,1.51-9.39,4.2-11.62,4.2-.66,0-1.18-.2-1.18-.79,0-1.71,1.9-4.66,8.93-8.34v-.13c-3.35,0-10.57,2.89-24.55,9.59l-.26-.46c5.71-3.28,10.31-7.62,10.31-8.6,0-.26-.13-.33-.52-.33-1.64,0-8.99,3.28-12.28,4.86-.2,0-.33-.07-.33-.26,0-.13.07-.26.33-.39,3.35-1.51,10.37-4.86,12.61-4.86.66,0,1.05.2,1.05.79,0,1.71-1.25,2.89-4.66,5.45l.07.13c7.94-3.68,14.51-6.63,20.22-6.63m.25-.25h-.25c-5.56,0-12.01,2.82-18.86,5.98,2.41-1.88,3.49-3.06,3.49-4.68,0-.69-.44-1.04-1.3-1.04-2.02,0-7.63,2.56-11.35,4.26-.5.23-.95.44-1.36.62-.32.16-.48.36-.48.62,0,.12.04.51.58.51h.06l.05-.02c3.29-1.58,10.59-4.83,12.17-4.83.19,0,.25.02.27.03,0,0,0,.02,0,.05,0,.76-4.3,5-10.18,8.38l-.22.12.12.22.26.46.12.2.21-.1c13.21-6.33,20.07-9.1,23.6-9.51-2.98,1.63-8.33,5-8.33,8.17,0,.39.19,1.04,1.43,1.04,2.08,0,7.09-2.14,11.72-4.22.32-.16.48-.36.48-.62,0-.12-.04-.51-.58-.51h-.06l-.05.02c-3.55,1.7-9.67,4.18-11.18,4.18-.28,0-.37-.02-.41-.04,0,0,0-.02,0-.04,0-.82,1.78-3.92,9.91-8.31l.13-.07v-.86h0Z"/>
      </g>
      <g>
        <path class="cls-1" d="m267.48,256.43c-1.9.79-3.41,1.51-6.89,3.15-.2,0-.33-.07-.33-.26,0-.13.07-.26.33-.39,3.41-1.64,5.45-2.49,9.39-4,1.64-.99,3.28-1.58,4.4-1.58,1.31,0,1.84.72,1.84,1.97,0,1.31-.85,2.82-2.17,4.2.33.39.66.46,1.12.46.79,0,1.9-.33,3.48-1.05.2,0,.33.07.33.26,0,.13-.07.26-.33.39-1.51.72-2.63.99-3.61.99-.59,0-1.11-.13-1.44-.53-2.17,2.17-5.32,3.87-7.62,3.87-1.45,0-2.17-.59-2.17-1.64,0-1.84,1.71-4.07,3.74-5.71l-.07-.13Zm8.14-1.18c0-.85-.39-1.25-1.18-1.25-2.69,0-9.98,5.97-9.98,8.4,0,.46.33.85,1.45.85,3.74,0,9.72-4.6,9.72-8.01Z"/>
        <path class="cls-1" d="m274.38,253.34c1.31,0,1.84.72,1.84,1.97,0,1.31-.85,2.82-2.17,4.2.33.39.66.46,1.12.46.79,0,1.9-.33,3.48-1.05.2,0,.33.07.33.26,0,.13-.07.26-.33.39-1.51.72-2.63.99-3.61.99-.59,0-1.11-.13-1.44-.53-2.17,2.17-5.32,3.87-7.62,3.87-1.45,0-2.17-.59-2.17-1.64,0-1.84,1.71-4.07,3.74-5.71l-.07-.13c-1.9.79-3.41,1.51-6.89,3.15-.2,0-.33-.07-.33-.26,0-.13.07-.26.33-.39,3.41-1.64,5.45-2.49,9.39-4,1.64-.99,3.28-1.58,4.4-1.58m-8.47,9.91c3.74,0,9.72-4.6,9.72-8.01,0-.85-.39-1.25-1.18-1.25-2.69,0-9.98,5.97-9.98,8.4,0,.46.33.85,1.45.85m8.47-10.16c-1.15,0-2.85.6-4.53,1.61-4.07,1.56-6.09,2.42-9.37,3.99-.32.16-.47.36-.47.62,0,.12.04.51.58.51h.06l.05-.02.73-.35c2.34-1.11,3.75-1.77,5.12-2.37-1.57,1.46-3,3.42-3,5.18,0,.71.31,1.89,2.42,1.89,2.21,0,5.31-1.54,7.61-3.77.34.29.82.42,1.44.42,1.1,0,2.28-.32,3.72-1.01.32-.16.47-.36.47-.62,0-.12-.04-.51-.58-.51h-.05l-.05.02c-1.51.69-2.61,1.03-3.38,1.03-.34,0-.56-.04-.77-.21,1.34-1.46,2.07-2.94,2.07-4.2,0-1.47-.7-2.22-2.09-2.22h0Zm-8.47,9.91c-1.2,0-1.2-.45-1.2-.6,0-2.21,7.09-8.15,9.73-8.15.66,0,.93.29.93,1,0,3.35-5.95,7.76-9.47,7.76h0Z"/>
      </g>
    </g>
    <g>
      <path class="cls-1" d="m91.91,57.33c2.19,5.38,5.83,10.06,10.2,13.89l87.25,83.05h27.28V56.2h-22.16v73.1L119.21,56.75c-5.96-5.23-8.96-13.27-7.21-21,.11-.51.25-1.02.41-1.54,2.08-6.92,8.64-13.56,20.7-13.34,26.1.48,27.49,30.39,27.49,30.39h22.09S178.55,1.65,137.56.53c-28.61-.78-40.72,11.64-45.61,26.59-1.18,3.6-2.12,7.33-2.53,11.23-.76,7.37.31,13.62,2.49,18.97Z"/>
      <path class="cls-2" d="m190.95,150.27l-86.09-81.95-.06-.06-.06-.05c-4.22-3.7-7.29-7.86-9.13-12.39-2.14-5.25-2.86-10.82-2.22-17.05.33-3.21,1.08-6.52,2.35-10.4,5.26-16.06,18.11-23.87,39.3-23.87.79,0,1.59.01,2.4.03,15.33.42,26.89,8.27,34.36,23.35,3.67,7.4,5.45,14.86,6.26,19.38h-13.92c-.51-3.18-1.6-7.94-3.9-12.74-5.42-11.32-14.78-17.42-27.07-17.65-.22,0-.44,0-.66,0-9.22,0-20.35,4.25-23.94,16.19-.18.6-.34,1.2-.48,1.8-2.03,8.96,1.19,18.46,8.4,24.83l75.2,72.48,6.78,6.53V60.2h14.16v90.07h-21.68m-1.6,4h27.28V56.2h-22.16v73.1L119.21,56.75c-5.96-5.23-8.96-13.27-7.21-21,.11-.51.25-1.02.41-1.54,2.05-6.81,8.43-13.34,20.11-13.34.19,0,.39,0,.59,0,26.11.48,27.49,30.39,27.49,30.39h22.09S178.55,1.65,137.56.53c-.85-.02-1.69-.03-2.51-.03-26.81,0-38.35,12.12-43.1,26.63-1.18,3.6-2.12,7.33-2.53,11.23-.76,7.37.31,13.62,2.49,18.97,2.19,5.38,5.83,10.06,10.2,13.89l87.25,83.05h0Z"/>
    </g>
  </g>
</svg>