<?xml version="1.0" encoding="UTF-8"?>
<svg id="Layer_2" data-name="Layer 2" xmlns="http://www.w3.org/2000/svg" xmlns:xlink="http://www.w3.org/1999/xlink" viewBox="0 0 369.97 430.42">
  <defs>
    <style>
      .cls-1 {
        fill: url(#linear-gradient);
      }

      .cls-1, .cls-2, .cls-3 {
        stroke-width: 0px;
      }

      .cls-2 {
        fill: #fff;
      }

      .cls-3 {
        fill: url(#linear-gradient-2);
      }
    </style>
    <linearGradient id="linear-gradient" x1="291.8" y1="15.88" x2="291.8" y2="340.78" gradientUnits="userSpaceOnUse">
      <stop offset="0" stop-color="#7f3b00"/>
      <stop offset=".28" stop-color="#e2b574"/>
      <stop offset=".38" stop-color="#fff"/>
      <stop offset=".49" stop-color="#fce9ac"/>
      <stop offset="1" stop-color="#874d0e"/>
    </linearGradient>
    <linearGradient id="linear-gradient-2" x1="291.99" y1="15.88" x2="291.99" y2="340.78" xlink:href="#linear-gradient"/>
  </defs>
  <g id="Layer_1-2" data-name="Layer 1">
    <g>
      <path class="cls-2" d="m291.99,368.16v19.77h-28.09L96.33,104.97c-15.06-26.09-19.57-45.16-9.53-56.7-17.56,8.53-25.09,28.6-25.09,63.22v211.72c0,26.59-11.04,47.66-29.1,57.7h59.69v7.02H0v-7.02h5.02c30.6,0,49.67-22.58,49.67-57.2V111.99c0-36.12,8.02-57.7,26.08-68.23h-36.61v-7.03h89.29v7.03h-5.01c-14.05,0-18.06,18.06,1.5,51.17l162.05,273.23Z"/>
      <g>
        <path class="cls-2" d="m348.18,250.27c-9.78-15.96-21.95-29.93-34.65-42.87-4.83-4.92-9.75-9.7-14.63-14.38-4.79-4.59-9.56-9.08-14.21-13.52-9.3-8.89-18.13-17.58-25.75-26.44-7.66-8.9-14.08-17.96-18.56-27.51-4.49-9.56-7.06-19.59-7.06-30.63,0-18.44,5.92-34.68,16.59-46.29,5.34-5.81,11.86-10.48,19.51-13.71,3.43-1.45,7.1-2.59,10.98-3.43l-.18-6.1c-4.64.93-9.03,2.27-13.14,4.01-12.65,5.34-22.65,14.34-29.42,25.7-6.77,11.36-10.34,25.04-10.34,39.83,0,10.65,2.23,20.51,6.11,29.75,6.79,16.17,18.5,30.42,32.09,44.39,6.17,6.33,12.73,12.61,19.43,18.97,4.54,4.32,9.14,8.67,13.73,13.11,11,10.64,21.87,21.74,31.47,33.89,9.75,12.33,18.21,25.71,24.22,40.75,6.02,15.05,9.61,31.77,9.61,50.89,0,23.69-8.59,48.16-25.77,66.64-8.59,9.24-19.32,17.01-32.26,22.48-12.93,5.47-28.08,8.64-45.51,8.64-28.9,0-50.5-6.15-65.93-15.91-1.56-.99-3.05-2.03-4.49-3.09,1.25-1.98,2.42-4.06,3.5-6.27,5.66-11.53,8.99-26.13,8.99-43.5,0-4.6-.59-8.65-1.67-12.16-1.61-5.26-4.37-9.33-7.83-12.05-3.46-2.72-7.59-4.05-11.72-4.05-6.1,0-12.19,2.84-16.72,7.96-4.54,5.13-7.49,12.56-7.48,21.71,0,4.59.73,9.61,2.35,15.02,3.86,12.93,11.22,24.88,22.42,34.52-4.16,5.35-8.96,9.41-14.12,12.15-5.36,2.83-11.12,4.27-17.03,4.27-7.62,0-15.54-2.39-23.18-7.47-7.63-5.07-14.97-12.84-21.26-23.57l-5.17,3.04c6.69,11.38,14.61,19.87,23.11,25.52,8.5,5.66,17.61,8.47,26.5,8.47,6.89,0,13.64-1.69,19.84-4.97,5.96-3.16,11.4-7.77,16.02-13.72,1.52,1.12,3.09,2.21,4.73,3.25,16.63,10.52,39.41,16.84,69.14,16.84,18.16,0,34.13-3.32,47.84-9.12,20.58-8.7,36.04-22.97,46.31-39.75,10.27-16.78,15.38-36.05,15.38-54.89.01-30.28-8.75-55.12-21.79-76.38Zm-182.99,120.08c-1.47-4.91-2.1-9.35-2.1-13.3,0-7.88,2.49-13.79,5.98-17.74,3.49-3.95,8-5.94,12.23-5.93,1.91,0,3.77.4,5.51,1.22,2.6,1.23,4.96,3.39,6.75,6.8,1.78,3.41,2.96,8.1,2.96,14.24,0,19.45-4.37,34.88-11.2,45.99-10.06-8.8-16.59-19.54-20.11-31.27Z"/>
        <path class="cls-2" d="m297.65,29.93c2.02.05,4.02.18,5.97.4,12.08,1.31,22.69,5.59,30.61,11.73,4.81,3.73,8.62,8.13,11.23,12.96,2.61,4.84,4.02,10.1,4.02,15.65,0,5.68-1.08,10.14-2.65,13.68-2.36,5.31-5.86,8.63-8.79,10.67-1.46,1.01-2.78,1.69-3.7,2.11-.46.21-.83.35-1.06.44-.12.04-.2.07-.25.09l-.05.02h0s.01,0,.01,0l.54,1.8h0s1.19,3.95,1.19,3.95c.28-.09,5.36-1.64,10.52-6.54,2.58-2.45,5.16-5.76,7.08-10.09,1.92-4.33,3.17-9.67,3.17-16.12,0-6.58-1.69-12.85-4.74-18.5-4.57-8.47-12.15-15.54-21.65-20.48-7.4-3.85-15.98-6.42-25.29-7.38-2.17-.22-4.38-.36-6.63-.4-.49,0-.98-.02-1.48-.02-2.96,0-5.84.17-8.65.47-.21,1.8-.38,3.82-.49,6.1,2.94-.36,5.98-.56,9.14-.56.66,0,1.31.02,1.96.04Z"/>
      </g>
      <g>
        <path class="cls-1" d="m290.7,386.67h0c.01.34.15.65.38.88.22.22.54.37.88.38h.03s.02,0,.02,0h0c.69,0,1.26-.56,1.28-1.26l5.38-185.55c-4.58-4.43-9.18-8.79-13.73-13.11l5.76,198.65Z"/>
        <path class="cls-3" d="m304.13,11.8c-.19-6.59-5.59-11.8-12.14-11.8-.12,0-.24,0-.36,0-6.59.19-11.8,5.59-11.8,12.14,0,.12,0,.24,0,.36l.37,12.89.18,6.1.14,4.91,4.15,143.09c4.65,4.44,9.42,8.94,14.21,13.52l4.72-162.69c-1.95-.21-3.94-.34-5.97-.4.03.86.05,1.74.05,2.63,0,11.35-2.56,20.56-5.71,20.56-2.76,0-5.05-7.05-5.59-16.41,0-2.27.05-4.35.14-6.25.11-2.28.28-4.3.49-6.1,1.08-9.1,3.32-12.35,4.95-12.35,2.29,0,4.27,4.88,5.17,11.91,2.24.04,4.45.18,6.63.4l.34-11.82h0c0-.12,0-.24,0-.37,0-.11,0-.23,0-.34Z"/>
      </g>
    </g>
  </g>
</svg>