<?xml version="1.0" encoding="UTF-8"?>
<svg id="Layer_2" data-name="Layer 2" xmlns="http://www.w3.org/2000/svg" viewBox="0 0 447.56 333.92">
  <defs>
    <style>
      .cls-1 {
        fill: #fc8dcf;
        stroke-width: 0px;
      }

      .cls-2 {
        letter-spacing: .23em;
      }

      .cls-3 {
        font-family: Yellowtail-Regular, 'Yellowtail Regular';
        font-size: 158px;
        letter-spacing: 0em;
      }

      .cls-3, .cls-4 {
        fill: #363744;
      }

      .cls-5 {
        letter-spacing: .22em;
      }

      .cls-6 {
        letter-spacing: .24em;
      }

      .cls-4 {
        font-family: Montserrat-SemiBold, Montserrat;
        font-size: 31.03px;
        font-weight: 600;
      }

      .cls-7 {
        letter-spacing: .23em;
      }

      .cls-8 {
        letter-spacing: .24em;
      }
    </style>
  </defs>
  <g id="OBJECTS">
    <g>
      <path class="cls-1" d="m26.12,130.93c-.19.17-.43.3-.57.5-1.6,2.32-3.19,4.65-4.77,6.98-1.7,2.51-3.42,5.01-5.07,7.54-.87,1.34-1.63,2.76-2.44,4.15-1.04,1.77-2.09,3.54-3.12,5.32-.49.85-.96,1.72-1.42,2.59-1.04,1.98-2.06,3.96-3.09,5.94-.08.15-.21.28-.38.5-.15-.42-.29-.73-.39-1.06-1.41-4.72-2.76-9.45-3.66-14.3-.68-3.66-1.08-7.36-.86-11.09.22-3.69,1.07-7.25,2.26-10.74,2.09-6.14,5.59-11.39,9.87-16.17,5.09-5.68,11-10.38,17.34-14.57,3.69-2.45,7.35-4.95,10.8-7.74,2.36-1.91,4.66-3.92,6.64-6.26.66-.78,1.24-1.61,1.59-2.64-.11.08-.24.15-.33.25-2.98,3.36-6.61,5.88-10.5,8.04-1.56.87-3.2,1.59-4.81,2.38-.92.45-1.84.91-2.78,1.34-.44.2-.91.3-1.39.45-.44-.7-.6-1.4-.73-2.09-.34-1.81-1.02-3.51-1.67-5.22-.61-1.59-1.3-3.14-2.19-4.59-.77-1.25-1.59-2.48-2.39-3.71-1.4-2.13-2.78-4.26-4.22-6.36-1.39-2.03-2.19-4.3-2.64-6.69-.51-2.72-.29-5.43.56-8.07.64-2,1.36-3.97,2.09-5.94.29-.78.4-1.54.19-2.35-.55-2.07-1.08-4.15-1.63-6.23-.16-.6-.35-1.18-.56-1.85-1.69.56-3.23,1.24-4.69,2.08-1.55.89-3,1.95-4.31,3.18-.78.73-1.49,1.54-2.21,2.32-.46.5-.95.94-1.64,1.09-.65.14-1.02-.06-1.2-.71-.26-.92.04-1.81.43-2.58.47-.94,1.09-1.89,1.85-2.6,1.66-1.54,3.43-2.98,5.23-4.36.8-.62,1.77-1.02,2.67-1.51.79-.43,1.58-.84,2.41-1.28.06-.72-.26-1.38-.41-2.06-.12-.52-.28-1.04-.41-1.56-.26-.97-.21-1.17.55-1.71,1.14-.82,2.35-1.43,3.83-1.43,1.09,0,1.93.43,2.53,1.25.52.72.93,1.52,1.37,2.3.28.49.44.59.96.44,2.62-.76,5.24-1.49,7.84-2.27,2.11-.64,4.08-1.59,5.83-2.95.67-.52,1.29-1.1,1.87-1.71,1.81-1.9,3.92-3.23,6.57-3.62.13-.02.25-.08.46-.16,0-.29.01-.6,0-.91-.12-2.28-.16-4.57-.39-6.84-.15-1.47.52-2.48,1.43-3.43,1.02-1.07,1.95-2.2,2.7-3.49.75-1.29.71-2.49-.24-3.59-.24-.28-.65-.45-1.02-.6-.5-.2-1.01-.39-1.54-.45-1.63-.2-2.78.94-2.66,2.57.02.31.1.62.07.92-.06.64-.45,1.07-.96,1.14-.59.07-1.1-.14-1.34-.68-.18-.39-.3-.86-.27-1.28.15-2.03,1.34-3.33,3.09-4.19,2.91-1.42,6.04.18,7.32,2.38.62,1.06.57,2.25.21,3.39-.6,1.91-1.54,3.64-3.03,4.99-1,.9-1.45,1.83-1.25,3.27.27,1.93.16,3.91.22,5.87,0,.22.05.43.07.66,1.06.15,2.07.28,3.08.45.34.06.71.16,1,.34,1.32.82,2.74,1.49,3.95,2.47.97.79,1.86,1.7,2.92,2.35,1.36.84,2.54,2,4.1,2.5.17.05.33.15.48.24,2.16,1.21,4.48,2,6.8,2.8.71.24,1.41.5,2.22.79.39-.94.8-1.77,1.1-2.65.31-.92.86-1.42,1.86-1.42.94,0,1.88-.09,2.82-.06.53.01,1.08.11,1.57.29.8.29,1.09.84.95,1.69-.15.93-.36,1.84-.54,2.76-.08.43-.16.86-.24,1.3,1.08.4,2.07.77,3.06,1.13,1.91.68,3.57,1.76,5.23,2.92,1.7,1.19,2.81,2.82,3.97,4.45.68.95.59,1.95.37,2.96-.2.93-1.08,1.17-1.71.46-.81-.9-1.6-1.82-2.58-2.53-1.51-1.1-2.99-2.26-4.72-3.01-1.39-.6-2.78-1.19-4.18-1.77-.16-.07-.35-.07-.59-.11-.6,1.53-.84,3.1-.99,4.71-.19,1.97,0,3.93,0,5.89.02,2.69.03,5.37-.24,8.05-.06.62-.16,1.24-.3,1.85-.52,2.26-.99,4.55-1.64,6.78-.46,1.58-1.22,3.07-1.8,4.62-.91,2.42-1.81,4.85-2.33,7.4-.17.83-.27,1.69-.22,2.53.14,2.32.39,4.64.56,6.96.08,1.11.03,2.24.1,3.35.22,3.8.44,7.6.71,11.4.17,2.32.4,4.63.67,6.93.26,2.22.55,4.44.91,6.65.42,2.6.99,5.18,1.38,7.78.31,2.08.82,4.11,1.24,6.16.33,1.62.76,3.22,1.16,4.82.4,1.61.81,3.21,1.22,4.81.4,1.56.78,3.12,1.24,4.66.65,2.18,1.38,4.34,2.05,6.51.13.42.16.88.3,1.3.4,1.23.82,2.45,1.24,3.67.69,1.98,1.36,3.98,2.09,5.94.66,1.76,1.38,3.49,2.09,5.23,1.01,2.49,2.02,4.97,3.06,7.45.55,1.32,1.15,2.62,1.74,3.93.86,1.91,1.72,3.83,2.61,5.73.8,1.69,1.66,3.36,2.49,5.05.75,1.52,1.47,3.06,2.25,4.56.58,1.1,1.23,2.17,1.85,3.25.69,1.2,1.38,2.4,2.07,3.61.31.54.6,1.1.92,1.64.79,1.35,1.74,2.6,2.31,4.08.23.61.73,1.12,1.08,1.69.35.57.68,1.15,1.01,1.73.07.12.1.26.17.36.97,1.45,1.94,2.89,2.93,4.33.68.99,1.52,1.9,2.04,2.97.58,1.19,1.47,2.13,2.21,3.18,1.06,1.5,2.17,2.96,3.3,4.41,1.07,1.37,2.2,2.69,3.3,4.03.94,1.14,1.87,2.28,2.8,3.43.92,1.15,1.82,2.31,2.89,3.34.8.77,1.48,1.66,2.22,2.49.18.2.34.45.56.57,1.23.66,1.92,1.85,2.82,2.84.24.27.46.56.74.77,1.35.99,2.33,2.35,3.56,3.45,1.23,1.1,2.23,2.43,3.58,3.41.71.52,1.29,1.21,1.94,1.83.06.06.12.14.2.18,1.72.87,2.79,2.5,4.29,3.62.14.11.25.26.4.36,1.53,1.08,3.06,2.16,4.59,3.24.18.13.39.23.54.39,1.19,1.24,2.75,1.98,4.08,3.02,1.63,1.27,3.47,2.21,5.14,3.41,1.38.98,2.82,1.88,4.29,2.72,1.86,1.06,3.79,1.99,5.67,3.02,1.1.6,2.15,1.28,3.22,1.92.19.11.36.31.56.36,1.51.37,2.73,1.32,4.1,1.97.6.29,1.23.51,1.84.79,1.58.73,3.14,1.5,4.73,2.21,1.26.56,2.52,1.15,3.9,1.4.35.06.74.13,1.01.34.75.58,1.65.65,2.5.89,1.07.3,2.17.54,3.08,1.24.2.16.48.24.74.3,1.09.25,2.18.47,3.26.73,1,.25,2.03.44,2.96.85.85.37,1.73.41,2.59.63.91.23,1.82.43,2.74.64.91.21,1.81.43,2.84.68-1.03.5-2,.98-2.98,1.45-3.31,1.59-6.73,2.86-10.19,4.1-4.18,1.5-8.46,2.58-12.81,3.41-1.75.33-3.54.45-5.31.66-.44.05-.88.15-1.32.19-1.06.09-2.12.18-3.18.24-1.11.06-2.23.16-3.34.13-1.51-.04-3.03-.2-4.54-.31-.18-.01-.36-.06-.53-.06-3.42,0-6.77-.61-10.1-1.29-2.13-.43-4.25-.99-6.36-1.52-1.73-.43-3.39-1.07-5.05-1.71-2.99-1.16-5.96-2.37-8.81-3.87-1.58-.83-3.25-1.49-4.84-2.3-1.46-.75-2.87-1.6-4.3-2.42-1.12-.64-2.16-1.45-3.28-2.06-1.19-.64-2.16-1.57-3.37-2.16-.31-.15-.53-.48-.81-.69-.42-.32-.87-.61-1.29-.93-.95-.73-1.98-1.32-2.79-2.25-.58-.65-1.46-1.03-2.07-1.66-.62-.64-1.15-1.35-2.03-1.66-.11-.17-.21-.34-.32-.5-.06.05-.11.11-.17.16.16.11.33.22.49.34.6.82,1.16,1.67,1.82,2.45.95,1.12,1.96,2.2,2.98,3.27,1.2,1.26,2.4,2.51,3.65,3.72,1.12,1.09,2.26,2.15,3.45,3.15,1.67,1.41,3.39,2.76,5.1,4.13,1.22.98,2.54,1.84,3.74,2.81,1.75,1.42,3.69,2.5,5.54,3.75,2.3,1.55,4.71,2.92,7.17,4.2,2.1,1.09,4.22,2.17,6.38,3.14,2.81,1.26,5.64,2.47,8.5,3.61,3.69,1.47,7.41,2.87,11.24,3.91,3.15.85,6.34,1.56,9.59,1.91,1.42.15,2.82.47,4.25.62,2.57.27,5.15.47,7.81.71-.15.17-.28.39-.46.53-1.45,1.05-2.96,2-4.57,2.79-.92.45-1.78,1.02-2.68,1.51-.9.49-1.82.96-2.73,1.43-1.15.59-2.35,1.09-3.45,1.79-.7.45-1.55.68-2.34.99-2.24.89-4.45,1.87-6.73,2.63-1.94.65-3.97,1.04-5.96,1.54-.3.08-.62.12-.92.21-2.03.6-4.11.84-6.21.95-.49.03-.97.16-1.46.23-.66.09-1.33.15-1.99.24-.44.05-.87.13-1.31.19-.22.03-.44.08-.66.08-1.21.01-2.41.04-3.62,0-1.34-.03-2.67-.12-4.01-.19-.13,0-.27-.05-.4-.03-1.9.2-3.73-.31-5.6-.5-.13-.01-.27-.05-.4-.05-1.8.07-3.58-.3-5.31-.64-2-.39-4.05-.72-5.93-1.63-.79-.38-1.67-.59-2.49-.91-1.91-.76-3.82-1.52-5.71-2.32-1.36-.57-2.7-1.19-4.03-1.82-2.3-1.1-4.46-2.45-6.67-3.71-1.52-.86-2.96-1.81-4.38-2.84-1.58-1.15-3.3-2.13-4.85-3.31-2.84-2.15-5.68-4.3-8.32-6.71-1.88-1.72-3.63-3.54-5.39-5.38-2.14-2.22-4.15-4.56-6.11-6.93-1.42-1.72-2.8-3.48-4.12-5.29-1.45-1.98-2.8-4.03-4.2-6.05-.07-.1-.19-.17-.41-.37.1.44.14.74.25,1.02.85,2.16,1.67,4.32,2.58,6.45.76,1.77,1.63,3.48,2.44,5.22,1.47,3.16,3.16,6.19,4.91,9.21,1.21,2.09,2.5,4.12,3.78,6.16.8,1.28,1.59,2.58,2.54,3.77,1.11,1.39,2.06,2.91,3.16,4.31,1.43,1.83,2.88,3.65,4.44,5.38,2.4,2.66,4.87,5.25,7.35,7.83,1.37,1.41,2.84,2.73,4.26,4.09.22.21.41.43.77.82-.42,0-.63.01-.83,0-5.54-.44-11.08-.85-16.5-2.16-5.93-1.43-11.7-3.36-17.24-5.94-4.39-2.05-8.62-4.39-12.59-7.18-3.79-2.66-7.28-5.67-10.59-8.9-3.63-3.54-7.01-7.31-9.97-11.43-3.03-4.24-5.61-8.74-7.84-13.44-2.25-4.74-4.18-9.61-5.78-14.6-1.84-5.76-3.31-11.62-4.29-17.6-.26-1.59-.33-3.2-.44-4.81-.17-2.27-.36-4.54-.43-6.82-.08-2.59-.05-5.18-.06-7.77,0-.98,0-1.97,0-3.14-.52.59-.58,1.19-.69,1.73-.39,2.02-.76,4.04-1.08,6.07-.5,3.22-.95,6.46-1.42,9.68-.28,1.94-.55,3.89-.8,5.84-.13,1.02-.21,2.05-.29,3.07-.34,4.19-.65,8.39-.68,12.59-.02,3.21.05,6.43.12,9.64.05,2.42.17,4.83.25,7.24.01.4,0,.8,0,1.2-.74.19-1.06-.25-1.32-.73-.43-.79-.81-1.6-1.21-2.39-.98-1.91-1.98-3.8-2.94-5.72-.56-1.11-1.08-2.25-1.61-3.38-.57-1.21-1.15-2.41-1.72-3.62-.11-.24-.23-.49-.33-.74-1.36-3.4-2.71-6.8-3.74-10.32-1.36-4.65-2.44-9.35-3.23-14.13-.74-4.51-1.29-9.05-1.5-13.61-.14-3.18-.15-6.36-.11-9.54.04-3.4.14-6.81.34-10.21.48-8.15,1.44-16.23,3.25-24.2,1.71-7.56,3.87-15,6.35-22.34.91-2.71,1.9-5.39,3-8.03,1.36-3.25,2.67-6.52,4.23-9.69,1.09-2.2,2.08-4.45,3.14-6.66.44-.93.94-1.82,1.43-2.72,1.37-2.51,2.66-5.06,4.16-7.49.13-.2.11-.5.16-.75.37-.14.55-.41.54-.81.08-.08.16-.15.24-.23-.05-.04-.09-.07-.14-.11-.02.12-.04.25-.07.37-.36.14-.53.42-.54.8Zm-2.41-94.25c.37,1.09.68,2.06,1.02,3.03.56,1.61,1.13,3.21,1.68,4.82.21.61.5,1.12,1.14,1.39.94.4,1.85.88,2.8,1.27,1.77.73,3.54,1.46,5.35,2.1,1.18.41,2.41.66,3.63.97.65.17,1.29.36,1.95.45,1.37.2,2.75.37,4.13.51,1.37.13,2.76.35,4.13.28,1.78-.1,3.54-.48,5.32-.68,3.64-.42,7.08-1.48,10.37-3.05,1.83-.87,3.23-2.2,4.14-4.04.9-1.82,1.37-3.77,1.88-5.72.06-.24.05-.51.07-.83-.56-.17-1.07-.33-1.58-.46-.74-.19-1.5-.3-2.21-.54-3.25-1.11-6.58-1.96-9.74-3.36-2.24-.99-4.56-1.81-6.86-2.68-.66-.25-1.36-.47-2.07-.54-1.06-.11-2.14-.13-3.2-.1-.52.01-1.08.13-1.54.37-1.54.82-3.04,1.67-4.76,2.12-1.59.42-3.1,1.1-4.67,1.6-1.4.44-2.84.79-4.25,1.19-2.19.62-4.37,1.25-6.72,1.92Zm3.85,92.15l.06-.11h-.08s.02.11.02.11Z"/>
      <g>
        <text class="cls-3" transform="translate(47.51 202.02)"><tspan x="0" y="0">NS</tspan></text>
        <text class="cls-4" transform="translate(59.52 243.63)"><tspan class="cls-6" x="0" y="0">C</tspan><tspan class="cls-5" x="29.91" y="0">L</tspan><tspan class="cls-2" x="55.45" y="0">O</tspan><tspan class="cls-8" x="88.62" y="0">THING </tspan><tspan class="cls-7" x="244.1" y="0">ST</tspan><tspan class="cls-8" x="296.39" y="0">ORE</tspan></text>
      </g>
    </g>
  </g>
</svg>