<?xml version="1.0" encoding="UTF-8"?>
<svg id="Layer_2" data-name="Layer 2" xmlns="http://www.w3.org/2000/svg" viewBox="0 0 155.04 210.55">
  <defs>
    <style>
      .cls-1 {
        fill: #8c6c73;
        stroke-width: 0px;
      }

      .cls-2 {
        fill: #fce9f2;
        stroke: #fce0e4;
        stroke-miterlimit: 10;
      }
    </style>
  </defs>
  <g id="Layer_1-2" data-name="Layer 1">
    <path class="cls-1" d="m125.23,153.22c-2.19-5.38-5.83-10.06-10.2-13.89L27.78,56.28H.5v98.07h22.16v-73.1l75.26,72.54c5.96,5.23,8.96,13.27,7.21,21-.11.51-.25,1.02-.41,1.54-2.08,6.92-8.64,13.56-20.7,13.34-26.1-.48-27.49-30.39-27.49-30.39h-22.09s4.13,49.61,45.13,50.73c28.61.78,40.72-11.64,45.61-26.59,1.18-3.6,2.12-7.33,2.53-11.23.76-7.37-.31-13.62-2.49-18.97Z"/>
    <path class="cls-2" d="m26.18,60.28l86.09,81.95.06.06.06.05c4.22,3.7,7.29,7.86,9.13,12.39,2.14,5.25,2.86,10.82,2.22,17.05-.33,3.21-1.08,6.52-2.35,10.4-5.26,16.06-18.11,23.87-39.3,23.87-.79,0-1.59-.01-2.4-.03-15.33-.42-26.89-8.27-34.36-23.35-3.67-7.4-5.45-14.86-6.26-19.38h13.92c.51,3.18,1.6,7.94,3.9,12.74,5.42,11.32,14.78,17.42,27.07,17.65.22,0,.44,0,.66,0,9.22,0,20.35-4.25,23.94-16.19.18-.6.34-1.2.48-1.8,2.03-8.96-1.19-18.46-8.4-24.83L25.43,78.37l-6.78-6.53v78.51H4.5V60.28h21.68m1.6-4H.5v98.07h22.16v-73.1l75.26,72.54c5.96,5.23,8.96,13.27,7.21,21-.11.51-.25,1.02-.41,1.54-2.05,6.81-8.43,13.34-20.11,13.34-.19,0-.39,0-.59,0-26.11-.48-27.49-30.39-27.49-30.39h-22.09s4.13,49.61,45.13,50.73c.85.02,1.69.03,2.51.03,26.81,0,38.35-12.12,43.1-26.63,1.18-3.6,2.12-7.33,2.53-11.23.76-7.37-.31-13.62-2.49-18.97-2.19-5.38-5.83-10.06-10.2-13.89L27.78,56.28h0Z"/>
    <g>
      <path class="cls-1" d="m29.82,57.33c2.19,5.38,5.83,10.06,10.2,13.89l87.25,83.05h27.28V56.2h-22.16v73.1L57.12,56.75c-5.96-5.23-8.96-13.27-7.21-21,.11-.51.25-1.02.41-1.54,2.08-6.92,8.64-13.56,20.7-13.34,26.1.48,27.49,30.39,27.49,30.39h22.09S116.46,1.65,75.47.53C46.86-.24,34.75,12.18,29.86,27.13c-1.18,3.6-2.12,7.33-2.53,11.23-.76,7.37.31,13.62,2.49,18.97Z"/>
      <path class="cls-2" d="m128.86,150.27L42.77,68.32l-.06-.06-.06-.05c-4.22-3.7-7.29-7.86-9.13-12.39-2.14-5.25-2.86-10.82-2.22-17.05.33-3.21,1.08-6.52,2.35-10.4,5.26-16.06,18.11-23.87,39.3-23.87.79,0,1.59.01,2.4.03,15.33.42,26.89,8.27,34.36,23.35,3.67,7.4,5.45,14.86,6.26,19.38h-13.92c-.51-3.18-1.6-7.94-3.9-12.74-5.42-11.32-14.78-17.42-27.07-17.65-.22,0-.44,0-.66,0-9.22,0-20.35,4.25-23.94,16.19-.18.6-.34,1.2-.48,1.8-2.03,8.96,1.19,18.46,8.4,24.83l75.2,72.48,6.78,6.53V60.2h14.16v90.07h-21.68m-1.6,4h27.28V56.2h-22.16v73.1L57.12,56.75c-5.96-5.23-8.96-13.27-7.21-21,.11-.51.25-1.02.41-1.54,2.05-6.81,8.43-13.34,20.11-13.34.19,0,.39,0,.59,0,26.11.48,27.49,30.39,27.49,30.39h22.09S116.46,1.65,75.47.53c-.85-.02-1.69-.03-2.51-.03-26.81,0-38.35,12.12-43.1,26.63-1.18,3.6-2.12,7.33-2.53,11.23-.76,7.37.31,13.62,2.49,18.97,2.19,5.38,5.83,10.06,10.2,13.89l87.25,83.05h0Z"/>
    </g>
  </g>
</svg>