<?xml version="1.0" encoding="UTF-8"?>
<svg id="Layer_2" data-name="Layer 2" xmlns="http://www.w3.org/2000/svg" viewBox="0 0 518.16 447.84">
  <defs>
    <style>
      .cls-1 {
        fill: #f892d0;
        opacity: .92;
      }

      .cls-1, .cls-2, .cls-3, .cls-4, .cls-5, .cls-6, .cls-7, .cls-8, .cls-9, .cls-10, .cls-11, .cls-12, .cls-13, .cls-14, .cls-15, .cls-16, .cls-17, .cls-18, .cls-19, .cls-20, .cls-21, .cls-22, .cls-23, .cls-24, .cls-25, .cls-26, .cls-27, .cls-28, .cls-29, .cls-30, .cls-31, .cls-32, .cls-33, .cls-34, .cls-35, .cls-36, .cls-37, .cls-38, .cls-39, .cls-40, .cls-41, .cls-42, .cls-43, .cls-44, .cls-45, .cls-46, .cls-47, .cls-48, .cls-49, .cls-50, .cls-51, .cls-52, .cls-53, .cls-54, .cls-55, .cls-56, .cls-57, .cls-58, .cls-59, .cls-60, .cls-61, .cls-62, .cls-63, .cls-64 {
        stroke-width: 0px;
      }

      .cls-2 {
        fill: #fc8dcf;
      }

      .cls-3 {
        fill: #f299d0;
        opacity: .82;
      }

      .cls-4 {
        fill: #e5a9d2;
        opacity: .57;
      }

      .cls-5 {
        fill: #e9a4d1;
        opacity: .66;
      }

      .cls-6 {
        fill: #d2c0d4;
        opacity: .23;
      }

      .cls-7 {
        fill: #cacbd6;
        opacity: .07;
      }

      .cls-8 {
        fill: #deb2d3;
        opacity: .44;
      }

      .cls-9 {
        fill: #d3bfd4;
        opacity: .25;
      }

      .cls-10 {
        fill: #f990cf;
        opacity: .95;
      }

      .cls-11 {
        fill: #e8a6d2;
        opacity: .62;
      }

      .cls-12 {
        fill: #ee9ed1;
        opacity: .74;
      }

      .cls-13 {
        fill: #d8b9d4;
        opacity: .33;
      }

      .cls-14 {
        fill: #fa8fcf;
        opacity: .97;
      }

      .cls-15 {
        fill: #d9b7d3;
        opacity: .36;
      }

      .cls-16 {
        fill: #ed9fd1;
        opacity: .72;
      }

      .cls-17 {
        fill: #ccc7d5;
        opacity: .11;
      }

      .cls-18 {
        fill: #f09cd1;
        opacity: .77;
      }

      .cls-19 {
        fill: #dab6d3;
        opacity: .38;
      }

      .cls-20 {
        fill: #f891cf;
        opacity: .93;
      }

      .cls-21 {
        fill: #e2acd2;
        opacity: .52;
      }

      .cls-22 {
        fill: #eba2d1;
        opacity: .69;
      }

      .cls-23 {
        fill: #c7ced6;
        opacity: .02;
      }

      .cls-24 {
        fill: #e1add2;
        opacity: .51;
      }

      .cls-25 {
        fill: #ef9dd1;
        opacity: .75;
      }

      .cls-26 {
        fill: #cec5d5;
        opacity: .15;
      }

      .cls-27 {
        fill: #e9a5d2;
        opacity: .64;
      }

      .cls-28 {
        fill: #ddb3d3;
        opacity: .43;
      }

      .cls-29 {
        fill: #d2c1d5;
        opacity: .21;
      }

      .cls-30 {
        fill: #e7a7d2;
        opacity: .61;
      }

      .cls-31 {
        fill: #f19ad0;
        opacity: .8;
      }

      .cls-32 {
        fill: #cbc9d5;
        opacity: .1;
      }

      .cls-33 {
        fill: #eaa3d1;
        opacity: .67;
      }

      .cls-34 {
        fill: #dbb5d3;
        opacity: .39;
      }

      .cls-35 {
        fill: #c9ccd6;
        opacity: .05;
      }

      .cls-36 {
        fill: #fff;
      }

      .cls-37 {
        fill: #d6bcd4;
        opacity: .3;
      }

      .cls-38 {
        fill: #f398d0;
        opacity: .84;
      }

      .cls-39 {
        fill: #cacad5;
        opacity: .08;
      }

      .cls-40 {
        fill: #c6cfd6;
        opacity: 0;
      }

      .cls-41 {
        fill: #d5bdd4;
        opacity: .28;
      }

      .cls-42 {
        fill: #d0c3d5;
        opacity: .18;
      }

      .cls-43 {
        fill: #f497d0;
        opacity: .85;
      }

      .cls-44 {
        fill: #fde9f8;
      }

      .cls-45 {
        fill: #eca0d1;
        opacity: .7;
      }

      .cls-46 {
        fill: #e6a8d2;
        opacity: .59;
      }

      .cls-47 {
        fill: #e1afd3;
        opacity: .49;
      }

      .cls-48 {
        fill: #d1c2d5;
        opacity: .2;
      }

      .cls-49 {
        fill: #f695d0;
        opacity: .89;
      }

      .cls-50 {
        fill: #dfb1d3;
        opacity: .46;
      }

      .cls-51 {
        fill: #fb8ecf;
        opacity: .98;
      }

      .cls-52 {
        fill: #c8cdd6;
        opacity: .03;
      }

      .cls-53 {
        fill: #f793d0;
        opacity: .9;
      }

      .cls-54 {
        fill: #e4aad2;
        opacity: .56;
      }

      .cls-55 {
        fill: #f596d0;
        opacity: .87;
      }

      .cls-56 {
        fill: #d4bed4;
        opacity: .26;
      }

      .cls-57 {
        fill: #e3abd2;
        opacity: .54;
      }

      .cls-58 {
        fill: #d9b8d4;
        opacity: .34;
      }

      .cls-59 {
        fill: #d7bad4;
        opacity: .31;
      }

      .cls-60 {
        fill: #cdc6d5;
        opacity: .13;
      }

      .cls-61 {
        fill: #e0b0d3;
        opacity: .48;
      }

      .cls-62 {
        fill: #dcb4d3;
        opacity: .41;
      }

      .cls-63 {
        fill: #cfc4d5;
        opacity: .16;
      }

      .cls-64 {
        fill: #f09bd0;
        opacity: .79;
      }
    </style>
  </defs>
  <g id="objects">
    <g>
      <g>
        <path class="cls-40" d="m73.07,0L5.78,66.1c-2.67,2.88-4.33,6.72-4.37,10.96l-.71,138.02L0,353.1c-.08,9.04,7.17,16.43,16.21,16.51l256.07,1.34,49.91,76.89,61.2-31.62h0l67.47-47.03,67.29-69.55-222.54-149.82L73.07,0Z"/>
        <path class="cls-23" d="m7.44,66.3c-1.43,1.54-2.56,3.36-3.3,5.36-.64,1.7-1,3.6-1.01,5.53l-.65,137.11-.65,137.08c-.03,3.24.9,6.35,2.52,8.89,2.84,4.48,7.83,7.49,13.53,7.55l254.5,1.37,50.11,75.66,60.97-31.08h0l62.12-42.7s5.13-3.55,5.15-3.56l65.46-68.82-220.91-148.5L74.34,1.69,7.44,66.3Z"/>
        <path class="cls-52" d="m9.1,66.51c-1.41,1.53-2.53,3.34-3.26,5.33-.63,1.68-.98,3.6-1,5.5l-.59,136.21-.59,136.14c-.03,3.18.89,6.33,2.48,8.83,2.79,4.46,7.75,7.46,13.41,7.52l252.93,1.41,50.31,74.42,60.73-30.55h0l61.94-41.97c.05,0,5.1-3.49,5.13-3.53l63.62-68.09-219.28-147.17L75.61,3.38,9.1,66.51Z"/>
        <path class="cls-35" d="m10.76,66.72c-1.4,1.52-2.51,3.31-3.22,5.3-.62,1.65-.96,3.6-.98,5.46l-.53,135.3-.53,135.2c-.03,3.13.88,6.32,2.44,8.77,2.75,4.44,7.67,7.44,13.28,7.5l251.35,1.44,50.51,73.18,60.49-30.01h0l61.76-41.23c.08.01,5.06-3.44,5.11-3.49l61.79-67.36-217.65-145.85L76.89,5.07,10.76,66.72Z"/>
        <path class="cls-7" d="m12.42,66.92c-1.39,1.51-2.49,3.29-3.19,5.27-.61,1.62-.94,3.59-.96,5.42l-.47,134.4-.47,134.26c-.03,3.07.87,6.31,2.41,8.72,2.71,4.41,7.59,7.41,13.16,7.48l249.78,1.48,50.7,71.94,60.25-29.48h0l61.58-40.5c.11.01,5.03-3.39,5.09-3.45l59.96-66.63-216.02-144.52L78.16,6.76,12.42,66.92Z"/>
        <path class="cls-39" d="m14.08,67.13c-1.38,1.5-2.47,3.27-3.15,5.24-.6,1.59-.92,3.59-.94,5.39l-.41,133.49-.41,133.32c-.03,3.02.85,6.29,2.37,8.66,2.67,4.39,7.51,7.38,13.04,7.46l248.2,1.51,50.9,70.7,60.01-28.94h0l61.4-39.77c.13.02,4.99-3.33,5.07-3.41l58.12-65.9-214.39-143.19L79.43,8.45,14.08,67.13Z"/>
        <path class="cls-32" d="m15.74,67.33c-1.37,1.48-2.44,3.25-3.11,5.21-.59,1.56-.9,3.58-.92,5.35l-.35,132.59-.35,132.38c-.03,2.97.84,6.28,2.33,8.6,2.63,4.37,7.43,7.36,12.92,7.44l246.63,1.55,51.1,69.46,59.77-28.41h0l61.22-39.04c.16.02,4.96-3.28,5.05-3.38l56.29-65.17-212.76-141.87L80.7,10.14,15.74,67.33Z"/>
        <path class="cls-17" d="m17.4,67.54c-1.36,1.47-2.42,3.23-3.07,5.18-.58,1.53-.89,3.58-.9,5.32l-.29,131.68-.3,131.44c-.03,2.91.83,6.26,2.29,8.55,2.59,4.34,7.36,7.33,12.8,7.42l245.06,1.58,51.3,68.23,59.53-27.87h0l61.05-38.31c.19.02,4.92-3.22,5.03-3.34l54.45-64.44-211.13-140.54L81.97,11.83,17.4,67.54Z"/>
        <path class="cls-60" d="m19.06,67.74c-1.35,1.46-2.4,3.21-3.03,5.15-.57,1.51-.87,3.58-.88,5.28l-.23,130.78-.24,130.5c-.03,2.86.82,6.25,2.25,8.49,2.55,4.32,7.28,7.31,12.68,7.4l243.48,1.62,51.5,66.99,59.3-27.34h0l60.87-37.58c.21.03,4.89-3.17,5-3.3l52.62-63.71-209.5-139.22L83.25,13.52,19.06,67.74Z"/>
        <path class="cls-26" d="m20.72,67.95c-1.34,1.45-2.38,3.19-3,5.12-.55,1.48-.85,3.57-.86,5.24l-.17,129.87-.18,129.56c-.03,2.8.81,6.23,2.21,8.43,2.5,4.3,7.2,7.28,12.55,7.38l241.91,1.65,51.7,65.75,59.06-26.8h0l60.69-36.85c.24.03,4.85-3.12,4.98-3.26l50.78-62.98-207.87-137.89L84.52,15.21l-63.8,52.74Z"/>
        <path class="cls-63" d="m22.38,68.15c-1.33,1.44-2.35,3.17-2.96,5.09-.54,1.45-.83,3.57-.84,5.21l-.11,128.97-.12,128.62c-.02,2.75.8,6.22,2.17,8.38,2.46,4.27,7.12,7.25,12.43,7.36l240.33,1.69,51.9,64.51,58.82-26.27h0l60.51-36.12c.27.03,4.82-3.06,4.96-3.22l48.95-62.25-206.24-136.57L85.79,16.9l-63.41,51.26Z"/>
        <path class="cls-42" d="m24.04,68.36c-1.32,1.43-2.33,3.15-2.92,5.06-.53,1.42-.81,3.56-.83,5.17l-.05,128.06-.06,127.68c-.02,2.7.78,6.21,2.13,8.32,2.42,4.25,7.04,7.23,12.31,7.34l238.76,1.72,52.1,63.27,58.58-25.73h0l60.33-35.39c.3.04,4.78-3.01,4.94-3.19l47.11-61.51-204.6-135.24L87.06,18.59l-63.02,49.77Z"/>
        <path class="cls-48" d="m25.7,68.57c-1.31,1.42-2.31,3.13-2.88,5.03-.52,1.39-.79,3.56-.81,5.13v127.16s0,126.74,0,126.74c-.02,2.64.77,6.19,2.1,8.27,2.38,4.23,6.97,7.2,12.19,7.32l237.19,1.76,52.3,62.03,58.34-25.2h0l60.15-34.66c.32.04,4.75-2.95,4.92-3.15l45.28-60.78-202.97-133.91L88.33,20.28l-62.63,48.29Z"/>
        <path class="cls-29" d="m27.36,68.77c-1.3,1.41-2.28,3.11-2.85,5-.51,1.36-.77,3.56-.79,5.1l.07,126.25.05,125.8c-.02,2.59.76,6.18,2.06,8.21,2.34,4.21,6.89,7.17,12.07,7.3l235.61,1.8,52.49,60.8,58.1-24.66h0l59.97-33.93c.35.05,4.71-2.9,4.9-3.11l43.45-60.05-201.34-132.59L89.61,21.97l-62.24,46.8Z"/>
        <path class="cls-6" d="m29.02,68.98c-1.29,1.4-2.26,3.09-2.81,4.97-.5,1.34-.75,3.55-.77,5.06l.13,125.35.11,124.86c-.02,2.54.75,6.16,2.02,8.15,2.3,4.18,6.81,7.15,11.94,7.28l234.04,1.83,52.69,59.56,57.86-24.13h0l59.79-33.2c.38.05,4.68-2.85,4.88-3.07l41.61-59.32-199.71-131.26L90.88,23.66l-61.86,45.32Z"/>
        <path class="cls-9" d="m30.68,69.18c-1.28,1.38-2.24,3.07-2.77,4.94-.49,1.31-.74,3.55-.75,5.03l.19,124.44.17,123.92c-.02,2.48.74,6.15,1.98,8.1,2.26,4.16,6.73,7.12,11.82,7.26l232.46,1.87,52.89,58.32,57.62-23.59h0l59.61-32.47c.4.05,4.64-2.79,4.86-3.03l39.78-58.59-198.08-129.94L92.15,25.35l-61.47,43.83Z"/>
        <path class="cls-56" d="m32.34,69.39c-1.27,1.37-2.22,3.05-2.73,4.91-.48,1.28-.72,3.54-.73,4.99l.25,123.54.23,122.98c-.02,2.43.72,6.14,1.94,8.04,2.21,4.14,6.65,7.1,11.7,7.24l230.89,1.9,53.09,57.08,57.39-23.06h0l59.43-31.74c.43.06,4.61-2.74,4.84-3l37.94-57.86-196.45-128.61L93.42,27.04l-61.08,42.35Z"/>
        <path class="cls-41" d="m34,69.59c-1.26,1.36-2.19,3.03-2.69,4.88-.47,1.25-.7,3.54-.71,4.95l.31,122.63.29,122.04c-.02,2.37.71,6.12,1.9,7.98,2.17,4.11,6.57,7.07,11.58,7.22l229.32,1.94,53.29,55.84,57.15-22.52h0l59.25-31.01c.46.06,4.57-2.68,4.82-2.96l36.11-57.13-194.82-127.29L94.69,28.73l-60.69,40.87Z"/>
        <path class="cls-37" d="m35.66,69.8c-1.25,1.35-2.17,3.01-2.66,4.85-.46,1.22-.68,3.54-.69,4.92l.37,121.73.35,121.1c-.02,2.32.7,6.11,1.86,7.93,2.13,4.09,6.5,7.04,11.46,7.2l227.74,1.97,53.49,54.6,56.91-21.99h0l59.08-30.28c.48.06,4.54-2.63,4.8-2.92l34.27-56.4-193.19-125.96L95.97,30.42l-60.3,39.38Z"/>
        <path class="cls-59" d="m37.32,70.01c-1.24,1.34-2.15,2.98-2.62,4.82-.45,1.19-.66,3.53-.67,4.88l.43,120.82.4,120.16c-.02,2.27.69,6.09,1.82,7.87,2.09,4.07,6.42,7.02,11.34,7.18l226.17,2.01,53.69,53.36,56.67-21.45h0l58.9-29.55c.51.07,4.5-2.57,4.78-2.88l32.44-55.67-191.56-124.64L97.24,32.11l-59.92,37.9Z"/>
        <path class="cls-13" d="m38.98,70.21c-1.22,1.33-2.13,2.96-2.58,4.79-.44,1.17-.64,3.53-.66,4.85l.49,119.92.46,119.22c-.02,2.21.68,6.08,1.78,7.81,2.05,4.04,6.34,6.99,11.21,7.16l224.6,2.04,53.89,52.13,56.43-20.92h0l58.72-28.82c.54.07,4.47-2.52,4.76-2.85l30.6-54.94-189.93-123.31L98.51,33.8l-59.53,36.41Z"/>
        <path class="cls-58" d="m40.64,70.42c-1.21,1.32-2.1,2.94-2.54,4.76-.43,1.14-.62,3.52-.64,4.81l.55,119.01.52,118.28c-.02,2.16.67,6.07,1.75,7.76,2.01,4.02,6.26,6.97,11.09,7.14l223.02,2.08,54.08,50.89,56.19-20.38h0l58.54-28.09c.56.07,4.43-2.47,4.74-2.81l28.77-54.21-188.3-121.98L99.78,35.49l-59.14,34.93Z"/>
        <path class="cls-15" d="m42.3,70.62c-1.2,1.31-2.08,2.92-2.51,4.73-.42,1.11-.61,3.52-.62,4.77l.61,118.11.58,117.34c-.02,2.1.65,6.05,1.71,7.7,1.97,4,6.18,6.94,10.97,7.12l221.45,2.11,54.28,49.65,55.95-19.85h0l58.36-27.36c.59.08,4.4-2.41,4.72-2.77l26.94-53.48-186.67-120.66L101.05,37.18l-58.75,33.44Z"/>
        <path class="cls-19" d="m43.96,70.83c-1.19,1.3-2.06,2.9-2.47,4.7-.41,1.08-.59,3.52-.6,4.74l.67,117.2.64,116.4c-.02,2.05.64,6.04,1.67,7.64,1.92,3.97,6.1,6.91,10.85,7.1l219.87,2.15,54.48,48.41,55.72-19.31h0l58.18-26.63c.62.08,4.36-2.36,4.7-2.73l25.1-52.75-185.03-119.33L102.33,38.87l-58.36,31.96Z"/>
        <path class="cls-34" d="m45.62,71.03c-1.18,1.29-2.04,2.88-2.43,4.67-.39,1.05-.57,3.51-.58,4.7l.73,116.29.7,115.45c-.02,2,.63,6.02,1.63,7.59,1.88,3.95,6.03,6.89,10.73,7.08l218.3,2.18,54.68,47.17,55.48-18.78h0l58-25.9c.64.08,4.33-2.3,4.68-2.69l23.27-52.02-183.4-118.01L103.6,40.56l-57.98,30.48Z"/>
        <path class="cls-62" d="m47.28,71.24c-1.17,1.27-2.01,2.86-2.39,4.65-.38,1.02-.55,3.51-.56,4.67l.79,115.39.76,114.51c-.02,1.94.62,6.01,1.59,7.53,1.84,3.93,5.95,6.86,10.6,7.06l216.73,2.22,54.88,45.93,55.24-18.24h0l57.82-25.17c.67.09,4.29-2.25,4.66-2.66l21.43-51.29-181.77-116.68L104.87,42.25l-57.59,28.99Z"/>
        <path class="cls-28" d="m48.94,71.44c-1.16,1.26-1.99,2.84-2.35,4.62-.37.99-.53,3.5-.54,4.63l.85,114.48.81,113.57c-.02,1.89.61,5.99,1.55,7.48,1.8,3.9,5.87,6.84,10.48,7.04l215.15,2.25,55.08,44.7,55-17.71h0l57.64-24.44c.7.09,4.25-2.2,4.64-2.62l19.6-50.56-180.14-115.36L106.14,43.94l-57.2,27.51Z"/>
        <path class="cls-8" d="m50.6,71.65c-1.15,1.25-1.97,2.82-2.32,4.59-.36.97-.51,3.5-.52,4.59l.91,113.58.87,112.63c-.02,1.83.6,5.98,1.51,7.42,1.76,3.88,5.79,6.81,10.36,7.02l213.58,2.29,55.28,43.46,54.76-17.17h0l57.46-23.71c.73.09,4.22-2.14,4.62-2.58l17.76-49.83-178.51-114.03L107.41,45.63l-56.81,26.02Z"/>
        <path class="cls-50" d="m52.26,71.86c-1.14,1.24-1.94,2.8-2.28,4.56-.35.94-.49,3.5-.5,4.56l.97,112.67.93,111.69c-.02,1.78.58,5.97,1.47,7.36,1.72,3.86,5.71,6.78,10.24,7l212,2.32,55.48,42.22,54.52-16.64h0l57.29-22.98c.75.1,4.18-2.09,4.6-2.54l15.93-49.1-176.88-112.71L108.69,47.32l-56.42,24.54Z"/>
        <path class="cls-61" d="m53.92,72.06c-1.13,1.23-1.92,2.78-2.24,4.53-.34.91-.48,3.49-.49,4.52l1.02,111.77.99,110.75c-.02,1.73.57,5.95,1.44,7.31,1.68,3.83,5.64,6.76,10.12,6.98l210.43,2.36,55.68,40.98,54.28-16.1h0l57.11-22.25c.78.1,4.15-2.03,4.57-2.51l14.09-48.37-175.25-111.38L109.96,49.01l-56.04,23.05Z"/>
        <path class="cls-47" d="m55.58,72.27c-1.12,1.22-1.9,2.76-2.2,4.5-.33.88-.46,3.49-.47,4.48l1.08,110.86,1.05,109.81c-.02,1.67.56,5.94,1.4,7.25,1.63,3.81,5.56,6.73,9.99,6.96l208.86,2.39,55.87,39.74,54.05-15.57h0l56.93-21.52c.81.1,4.11-1.98,4.55-2.47l12.26-47.64-173.62-110.05L111.23,50.7l-55.65,21.57Z"/>
        <path class="cls-24" d="m57.24,72.47c-1.11,1.21-1.88,2.74-2.16,4.47-.32.85-.44,3.48-.45,4.45l1.14,109.96,1.11,108.87c-.01,1.62.55,5.92,1.36,7.19,1.59,3.79,5.48,6.7,9.87,6.94l207.28,2.43,56.07,38.5,53.81-15.03h0l56.75-20.79c.83.11,4.08-1.93,4.53-2.43l10.43-46.91-171.99-108.73L112.5,52.39l-55.26,20.09Z"/>
        <path class="cls-21" d="m58.9,72.68c-1.1,1.2-1.85,2.72-2.13,4.44-.31.82-.42,3.48-.43,4.41l1.2,109.05,1.16,107.93c-.01,1.56.54,5.91,1.32,7.14,1.55,3.76,5.4,6.68,9.75,6.92l205.71,2.47,56.27,37.27,53.57-14.5h0l56.57-20.06c.86.11,4.04-1.87,4.51-2.39l8.59-46.18-170.36-107.4L113.77,54.08l-54.87,18.6Z"/>
        <path class="cls-57" d="m60.56,72.88c-1.09,1.19-1.83,2.7-2.09,4.41-.3.8-.4,3.48-.41,4.38l1.26,108.15,1.22,106.99c-.01,1.51.52,5.9,1.28,7.08,1.51,3.74,5.32,6.65,9.63,6.9l204.13,2.5,56.47,36.03,53.33-13.96h0l56.39-19.33c.89.12,4.01-1.82,4.49-2.35l6.76-45.45-168.73-106.08L115.05,55.77l-54.48,17.12Z"/>
        <path class="cls-54" d="m62.22,73.09c-1.08,1.17-1.81,2.68-2.05,4.38-.29.77-.38,3.47-.39,4.34l1.32,107.24,1.28,106.05c-.01,1.46.51,5.88,1.24,7.02,1.47,3.72,5.24,6.63,9.51,6.88l202.56,2.54,56.67,34.79,53.09-13.43h0l56.21-18.6c.91.12,3.97-1.76,4.47-2.32l4.92-44.72-167.1-104.75L116.32,57.46l-54.1,15.63Z"/>
        <path class="cls-4" d="m63.88,73.3c-1.07,1.16-1.79,2.66-2.01,4.35-.28.74-.36,3.47-.37,4.3l1.38,106.34,1.34,105.11c-.01,1.4.5,5.87,1.2,6.97,1.43,3.69,5.17,6.6,9.39,6.86l200.99,2.57,56.87,33.55,52.85-12.89h0l56.03-17.87c.94.12,3.94-1.71,4.45-2.28l3.09-43.99-165.46-103.43L117.59,59.15l-53.71,14.15Z"/>
        <path class="cls-46" d="m65.54,73.5c-1.06,1.15-1.76,2.63-1.98,4.32-.27.71-.35,3.46-.35,4.27l1.44,105.43,1.4,104.17c-.01,1.35.49,5.85,1.16,6.91,1.39,3.67,5.09,6.57,9.26,6.84l199.41,2.61,57.07,32.31,52.61-12.36h0l55.85-17.14c.97.13,3.9-1.66,4.43-2.24l1.25-43.26-163.83-102.1L118.86,60.84l-53.32,12.66Z"/>
        <path class="cls-30" d="m67.2,73.71c-1.04,1.14-1.74,2.61-1.94,4.29-.26.68-.33,3.46-.33,4.23l1.5,104.53,1.46,103.23c-.01,1.29.48,5.84,1.13,6.85,1.34,3.65,5.01,6.55,9.14,6.81l197.84,2.64,57.27,31.07,52.38-11.82h0l55.67-16.41c.99.13,3.87-1.6,4.41-2.2l-.58-42.53-162.2-100.78L120.13,62.53l-52.93,11.18Z"/>
        <path class="cls-11" d="m68.86,73.91c-1.03,1.13-1.72,2.59-1.9,4.26-.25.65-.31,3.46-.32,4.2l1.56,103.62,1.51,102.29c-.01,1.24.47,5.83,1.09,6.8,1.3,3.62,4.93,6.52,9.02,6.79l196.26,2.68,57.46,29.84,52.14-11.29h0l55.49-15.68c1.02.13,3.83-1.55,4.39-2.16l-2.42-41.79-160.57-99.45L121.41,64.22l-52.54,9.7Z"/>
        <path class="cls-27" d="m70.52,74.12c-1.02,1.12-1.69,2.57-1.86,4.23-.23.63-.29,3.45-.3,4.16l1.62,102.72,1.57,101.35c-.01,1.19.45,5.81,1.05,6.74,1.26,3.6,4.85,6.5,8.9,6.77l194.69,2.71,57.66,28.6,51.9-10.75h0l55.32-14.95c1.05.14,3.8-1.49,4.37-2.13l-4.25-41.06-158.94-98.12L122.68,65.91l-52.15,8.21Z"/>
        <path class="cls-5" d="m72.18,74.32c-1.01,1.11-1.67,2.55-1.82,4.2-.22.6-.27,3.45-.28,4.12l1.68,101.81,1.63,100.41c-.01,1.13.44,5.8,1.01,6.69,1.22,3.58,4.78,6.47,8.78,6.75l193.12,2.75,57.86,27.36,51.66-10.22h0l55.14-14.22c1.07.14,3.76-1.44,4.35-2.09l-6.08-40.33-157.31-96.8L123.95,67.6l-51.77,6.73Z"/>
        <path class="cls-33" d="m73.84,74.53c-1,1.1-1.65,2.53-1.79,4.17-.21.57-.25,3.44-.26,4.09l1.74,100.91,1.69,99.47c0,1.08.43,5.78.97,6.63,1.18,3.55,4.7,6.44,8.65,6.73l191.54,2.78,58.06,26.12,51.42-9.68h0l54.96-13.49c1.1.14,3.73-1.38,4.33-2.05l-7.92-39.6-155.68-95.47L125.22,69.29l-51.38,5.24Z"/>
        <path class="cls-22" d="m75.5,74.73c-.99,1.09-1.63,2.51-1.75,4.14-.2.54-.23,3.44-.24,4.05l1.8,100,1.75,98.53c0,1.02.42,5.77.93,6.57,1.14,3.53,4.62,6.42,8.53,6.71l189.97,2.82,58.26,24.88,51.18-9.15h0l54.78-12.76c1.13.15,3.69-1.33,4.31-2.01l-9.75-38.87-154.05-94.15L126.49,70.98l-50.99,3.76Z"/>
        <path class="cls-45" d="m77.16,74.94c-.98,1.08-1.6,2.49-1.71,4.11-.19.51-.22,3.44-.22,4.02l1.86,99.1,1.81,97.59c0,.97.41,5.75.89,6.52,1.1,3.51,4.54,6.39,8.41,6.69l188.39,2.85,58.46,23.64,50.94-8.61h0l54.6-12.03c1.16.15,3.66-1.28,4.29-1.98l-11.59-38.14-152.42-92.82L127.77,72.66l-50.6,2.28Z"/>
        <path class="cls-16" d="m78.82,75.15c-.97,1.06-1.58,2.47-1.67,4.08-.18.48-.2,3.43-.2,3.98l1.92,98.19,1.86,96.65c0,.92.4,5.74.85,6.46,1.05,3.48,4.46,6.37,8.29,6.67l186.82,2.89,58.66,22.4,50.7-8.08h0l54.42-11.29c1.18.15,3.62-1.22,4.27-1.94l-13.42-37.41-150.79-91.5-151.5-91.9-50.21.79Z"/>
        <path class="cls-12" d="m80.48,75.35c-.96,1.05-1.56,2.45-1.64,4.05-.17.45-.18,3.43-.18,3.94l1.98,97.29,1.92,95.71c0,.86.38,5.73.82,6.4,1.01,3.46,4.38,6.34,8.17,6.65l185.25,2.92,58.86,21.17,50.47-7.54h0l54.24-10.56c1.21.16,3.59-1.17,4.25-1.9l-15.26-36.68-149.16-90.17-149.89-90.58-49.83-.69Z"/>
        <path class="cls-25" d="m82.14,75.56c-.95,1.04-1.54,2.43-1.6,4.02-.16.43-.16,3.42-.16,3.91l2.04,96.38,1.98,94.77c0,.81.37,5.71.78,6.35.97,3.44,4.31,6.31,8.05,6.63l183.67,2.96,59.06,19.93,50.23-7.01h0l54.06-9.83c1.24.16,3.55-1.11,4.23-1.86l-17.09-35.95-147.53-88.84-148.27-89.26-49.44-2.18Z"/>
        <path class="cls-18" d="m83.8,75.76c-.94,1.03-1.51,2.41-1.56,3.99-.15.4-.14,3.42-.15,3.87l2.1,95.48,2.04,93.83c0,.76.36,5.7.74,6.29.93,3.42,4.23,6.29,7.92,6.61l182.1,2.99,59.25,18.69,49.99-6.47h0l53.88-9.1c1.26.16,3.52-1.06,4.21-1.82l-18.92-35.22-145.89-87.52-146.66-87.95-49.05-3.66Z"/>
        <path class="cls-64" d="m85.46,75.97c-.93,1.02-1.49,2.39-1.52,3.96-.14.37-.12,3.42-.13,3.83l2.16,94.57,2.1,92.89c0,.7.35,5.68.7,6.23.89,3.39,4.15,6.26,7.8,6.59l180.52,3.03,59.45,17.45,49.75-5.94h0l53.7-8.37c1.29.17,3.48-1.01,4.19-1.79l-20.76-34.49-144.26-86.19-145.04-86.63-48.66-5.15Z"/>
        <path class="cls-31" d="m87.12,76.17c-.92,1.01-1.47,2.37-1.48,3.93-.13.34-.1,3.41-.11,3.8l2.22,93.67,2.16,91.95c0,.65.34,5.67.66,6.18.85,3.37,4.07,6.23,7.68,6.57l178.95,3.06,59.65,16.21,49.51-5.4h0l53.53-7.64c1.32.17,3.45-.95,4.17-1.75l-22.59-33.76-142.63-84.87-143.43-85.31-48.27-6.63Z"/>
        <path class="cls-3" d="m88.78,76.38c-.91,1-1.44,2.35-1.45,3.9-.12.31-.09,3.41-.09,3.76l2.28,92.76,2.22,91.01c0,.59.32,5.66.62,6.12.81,3.35,3.99,6.21,7.56,6.55l177.38,3.1,59.85,14.97,49.27-4.87h0l53.35-6.91c1.34.17,3.41-.9,4.15-1.71l-24.43-33.03-141-83.54-141.81-84-47.89-8.11Z"/>
        <path class="cls-38" d="m90.44,76.58c-.9.99-1.42,2.33-1.41,3.87-.11.28-.07,3.41-.07,3.73l2.34,91.85,2.27,90.07c0,.54.31,5.64.58,6.06.76,3.32,3.91,6.18,7.44,6.53l175.8,3.13,60.05,13.74,49.03-4.33h0l53.17-6.18c1.37.18,3.38-.84,4.12-1.67l-26.26-32.3-139.37-82.22-140.2-82.68-47.5-9.6Z"/>
        <path class="cls-43" d="m92.1,76.79c-.89.98-1.4,2.3-1.37,3.84-.1.26-.05,3.4-.05,3.69l2.4,90.95,2.33,89.13c0,.49.3,5.63.54,6.01.72,3.3,3.84,6.16,7.31,6.51l174.23,3.17,60.25,12.5,48.8-3.8h0l52.99-5.45c1.4.18,3.34-.79,4.1-1.63l-28.1-31.57-137.74-80.89-138.58-81.36-47.11-11.08Z"/>
        <path class="cls-55" d="m93.76,77c-.88.96-1.38,2.28-1.33,3.81-.09.23-.03,3.4-.03,3.65l2.46,90.04,2.39,88.19c0,.43.29,5.61.51,5.95.68,3.28,3.76,6.13,7.19,6.49l172.65,3.21,60.45,11.26,48.56-3.26h0l52.81-4.72c1.42.19,3.31-.74,4.08-1.6l-29.93-30.84-136.11-79.57-136.97-80.05-46.72-12.57Z"/>
        <path class="cls-49" d="m95.43,77.2c-.87.95-1.35,2.26-1.3,3.78-.07.2-.01,3.39-.01,3.62l2.52,89.14,2.45,87.25c0,.38.28,5.6.47,5.89.64,3.25,3.68,6.1,7.07,6.47l171.08,3.24,60.65,10.02,48.32-2.73h0l52.63-3.99c1.45.19,3.27-.68,4.06-1.56l-31.77-30.11-134.48-78.24-135.35-78.73-46.33-14.05Z"/>
        <path class="cls-53" d="m97.09,77.41c-.85.94-1.33,2.24-1.26,3.75-.06.17,0,3.39,0,3.58l2.58,88.23,2.51,86.31c0,.32.27,5.58.43,5.84.6,3.23,3.6,6.08,6.95,6.45l169.51,3.28,60.84,8.78,48.08-2.19h0l52.45-3.26c1.48.19,3.24-.63,4.04-1.52l-33.6-29.38-132.85-76.91-133.74-77.41-45.95-15.54Z"/>
        <path class="cls-1" d="m98.75,77.61c-.84.93-1.31,2.22-1.22,3.72-.05.14.03,3.39.02,3.55l2.64,87.33,2.57,85.37c0,.27.25,5.57.39,5.78.56,3.21,3.52,6.05,6.83,6.43l167.93,3.31,61.04,7.54,47.84-1.66h0l52.27-2.53c1.5.2,3.2-.57,4.02-1.48l-35.43-28.65-131.22-75.59-132.13-76.1-45.56-17.02Z"/>
        <path class="cls-20" d="m100.41,77.82c-.83.92-1.29,2.2-1.18,3.69-.04.11.04,3.38.04,3.51l2.69,86.42,2.62,84.43c0,.22.24,5.56.35,5.73.52,3.18,3.45,6.03,6.71,6.41l166.36,3.35,61.24,6.31,47.6-1.12h0l52.09-1.8c1.53.2,3.17-.52,4-1.45l-37.27-27.92-129.59-74.26-130.51-74.78-45.17-18.5Z"/>
        <path class="cls-10" d="m102.07,78.02c-.82.91-1.26,2.18-1.14,3.66-.03.09.06,3.38.06,3.47l2.75,85.52,2.68,83.49c0,.16.23,5.54.31,5.67.47,3.16,3.37,6,6.58,6.39l164.78,3.38,61.44,5.07,47.36-.59h0l51.91-1.07c1.56.2,3.13-.46,3.98-1.41l-39.1-27.19-127.96-72.94-128.9-73.47-44.78-19.99Z"/>
        <path class="cls-14" d="m103.73,78.23c-.81.9-1.24,2.16-1.11,3.63-.02.06.08,3.37.08,3.44l2.81,84.61,2.74,82.55c0,.11.22,5.53.27,5.61.43,3.14,3.29,5.97,6.46,6.37l163.21,3.42,61.64,3.83,47.13-.05h0l51.74-.34c1.58.21,3.1-.41,3.96-1.37l-40.94-26.46-126.32-71.61-127.28-72.15-44.39-21.47Z"/>
        <path class="cls-51" d="m105.39,78.44c-.8.89-1.22,2.14-1.07,3.6-.01.03.1,3.37.1,3.4l2.87,83.71,2.8,81.61c0,.05.21,5.51.23,5.56.39,3.11,3.21,5.95,6.34,6.35l161.64,3.45,61.84,2.59,46.89.48h0l51.56.39c1.61.21,3.06-.36,3.94-1.33l-42.77-25.73-124.69-70.29-125.67-70.83-44.01-22.96Z"/>
        <path class="cls-2" d="m107.05,78.64c-.79.88-1.19,2.12-1.03,3.57l3.05,86.17,3.05,86.17c.35,3.09,3.13,5.92,6.22,6.33l160.06,3.49,160.06,3.49c1.64.21,3.03-.3,3.92-1.29l-167.67-93.96L107.05,78.64Z"/>
      </g>
      <path class="cls-44" d="m491.42,10.79H68.7c-9.05,0-16.38,7.33-16.38,16.38v276.25c0,9.05,7.33,16.38,16.38,16.38h252.8v94.74l174.92-94.74h0c4.36,0,11.38-7.33,11.38-16.38V27.17c0-9.05-7.34-16.38-16.38-16.38Z"/>
      <path class="cls-36" d="m491.42,10.79H68.7c-5.06,0-9.58,2.3-12.59,5.9,2.84-2.37,6.49-3.8,10.48-3.8h422.72c9.05,0,16.38,7.33,16.38,16.38v276.25c0,3.99-1.43,7.64-3.8,10.48,3.61-3,5.9-7.53,5.9-12.59V27.17c0-9.05-7.34-16.38-16.38-16.38Z"/>
    </g>
    <circle class="cls-2" cx="124.41" cy="92.61" r="46"/>
    <rect class="cls-2" x="206.41" y="59.61" width="276" height="14"/>
    <rect class="cls-2" x="206.41" y="87.61" width="276" height="14"/>
    <rect class="cls-2" x="206.41" y="119.61" width="276" height="14"/>
    <rect class="cls-2" x="95.41" y="158.61" width="387" height="14"/>
    <rect class="cls-2" x="95.41" y="187.61" width="387" height="14"/>
    <rect class="cls-2" x="95.41" y="216.61" width="387" height="14"/>
  </g>
</svg>