<?xml version="1.0" encoding="UTF-8"?>
<svg id="Layer_2" data-name="Layer 2" xmlns="http://www.w3.org/2000/svg" viewBox="0 0 521.74 452.93">
  <defs>
    <style>
      .cls-1 {
        fill: #2d3031;
        opacity: .77;
      }

      .cls-1, .cls-2, .cls-3, .cls-4, .cls-5, .cls-6, .cls-7, .cls-8, .cls-9, .cls-10, .cls-11, .cls-12, .cls-13, .cls-14, .cls-15, .cls-16, .cls-17, .cls-18, .cls-19, .cls-20, .cls-21, .cls-22, .cls-23, .cls-24, .cls-25, .cls-26, .cls-27, .cls-28, .cls-29, .cls-30, .cls-31, .cls-32, .cls-33, .cls-34, .cls-35, .cls-36, .cls-37, .cls-38, .cls-39, .cls-40, .cls-41, .cls-42, .cls-43, .cls-44, .cls-45, .cls-46, .cls-47, .cls-48, .cls-49, .cls-50, .cls-51, .cls-52, .cls-53, .cls-54, .cls-55, .cls-56, .cls-57, .cls-58, .cls-59, .cls-60, .cls-61, .cls-62, .cls-63, .cls-64, .cls-65 {
        stroke-width: 0px;
      }

      .cls-2 {
        fill: #a2aaaf;
        opacity: .18;
      }

      .cls-3 {
        fill: #3a3d3f;
        opacity: .7;
      }

      .cls-4 {
        fill: #fc8dcf;
      }

      .cls-5 {
        fill: #373a3c;
        opacity: .72;
      }

      .cls-6 {
        fill: #858b90;
        opacity: .33;
      }

      .cls-7 {
        fill: #4e5154;
        opacity: .61;
      }

      .cls-8 {
        fill: #5e6266;
        opacity: .52;
      }

      .cls-9 {
        fill: #82888c;
        opacity: .34;
      }

      .cls-10 {
        fill: #9fa6ac;
        opacity: .2;
      }

      .cls-11 {
        fill: #8f959a;
        opacity: .28;
      }

      .cls-12 {
        fill: #343638;
        opacity: .74;
      }

      .cls-13 {
        fill: #1a1b1c;
        opacity: .87;
      }

      .cls-14 {
        fill: #414446;
        opacity: .67;
      }

      .cls-15 {
        fill: #999fa5;
        opacity: .23;
      }

      .cls-16 {
        fill: #1d1f20;
        opacity: .85;
      }

      .cls-17 {
        fill: #92999e;
        opacity: .26;
      }

      .cls-18 {
        fill: #b6bec4;
        opacity: .08;
      }

      .cls-19 {
        fill: #313335;
        opacity: .75;
      }

      .cls-20 {
        fill: #b3bbc1;
        opacity: .1;
      }

      .cls-21 {
        fill: #6e7377;
        opacity: .44;
      }

      .cls-22 {
        fill: #65696d;
        opacity: .49;
      }

      .cls-23 {
        fill: #7b8185;
        opacity: .38;
      }

      .cls-24 {
        fill: #4b4e51;
        opacity: .62;
      }

      .cls-25 {
        fill: #585c5f;
        opacity: .56;
      }

      .cls-26 {
        fill: #5b5f62;
        opacity: .54;
      }

      .cls-27 {
        fill: #27292a;
        opacity: .8;
      }

      .cls-29 {
        fill: #acb4ba;
        opacity: .13;
      }

      .cls-30 {
        fill: #8c9297;
        opacity: .3;
      }

      .cls-31 {
        fill: #030304;
        opacity: .98;
      }

      .cls-32 {
        fill: #757a7e;
        opacity: .41;
      }

      .cls-33 {
        fill: #54585b;
        opacity: .57;
      }

      .cls-34 {
        fill: #686d70;
        opacity: .48;
      }

      .cls-35 {
        fill: #bcc5cb;
        opacity: .05;
      }

      .cls-36 {
        fill: #202223;
        opacity: .84;
      }

      .cls-37 {
        fill: #515558;
        opacity: .59;
      }

      .cls-38 {
        fill: #b9c1c8;
        opacity: .07;
      }

      .cls-39 {
        fill: #616669;
        opacity: .51;
      }

      .cls-40 {
        fill: #fff;
      }

      .cls-41 {
        fill: #9ca3a8;
        opacity: .21;
      }

      .cls-42 {
        fill: #c6cfd6;
        opacity: 0;
      }

      .cls-43 {
        fill: #787e82;
        opacity: .39;
      }

      .cls-44 {
        fill: #131415;
        opacity: .9;
      }

      .cls-45 {
        fill: #c3ccd2;
        opacity: .02;
      }

      .cls-46 {
        fill: #fde9f8;
      }

      .cls-47 {
        fill: #3e4043;
        opacity: .69;
      }

      .cls-48 {
        fill: #101112;
        opacity: .92;
      }

      .cls-49 {
        fill: #a6adb3;
        opacity: .16;
      }

      .cls-50 {
        fill: #c0c8cf;
        opacity: .03;
      }

      .cls-51 {
        fill: #242527;
        opacity: .82;
      }

      .cls-52 {
        fill: #44474a;
        opacity: .66;
      }

      .cls-53 {
        fill: #171819;
        opacity: .89;
      }

      .cls-54 {
        fill: #72777b;
        opacity: .43;
      }

      .cls-55 {
        fill: #6b7074;
        opacity: .46;
      }

      .cls-56 {
        fill: #7f8489;
        opacity: .36;
      }

      .cls-57 {
        fill: #0a0a0b;
        opacity: .95;
      }

      .cls-58 {
        fill: #959ca1;
        opacity: .25;
      }

      .cls-59 {
        fill: #afb7bd;
        opacity: .11;
      }

      .cls-60 {
        fill: #a9b0b6;
        opacity: .15;
      }

      .cls-61 {
        fill: #474b4d;
        opacity: .64;
      }

      .cls-62 {
        fill: #060707;
        opacity: .97;
      }

      .cls-63 {
        fill: #0d0e0e;
        opacity: .93;
      }

      .cls-64 {
        fill: #2a2c2e;
        opacity: .79;
      }

      .cls-65 {
        fill: #888f93;
        opacity: .31;
      }
    </style>
  </defs>
  <g id="objects">
    <g>
      <g>
        <path class="cls-42" d="m73.07,5.09L5.78,71.19c-2.67,2.88-4.33,6.72-4.37,10.96l-.7,138.02L0,358.19c-.08,9.04,7.17,16.43,16.21,16.51l256.07,1.34,49.91,76.89,61.2-31.62h0l67.47-47.03,67.29-69.55-222.54-149.82L73.07,5.09Z"/>
        <path class="cls-45" d="m7.67,71.13c-1.4,1.52-2.52,3.3-3.26,5.27-.66,1.73-1.03,3.66-1.05,5.62l-.65,137.12-.65,137.09c-.03,2.89.71,5.69,2.03,8.05,2.73,4.94,7.97,8.31,14.02,8.37l254.5,1.37,50.11,75.66,60.97-31.08h0l62.61-43.04s4.63-3.2,4.65-3.22l65.46-68.82-220.91-148.5L74.57,6.52,7.67,71.13Z"/>
        <path class="cls-50" d="m9.56,71.08c-1.39,1.5-2.5,3.28-3.23,5.24-.65,1.7-1.02,3.64-1.03,5.58l-.59,136.22-.59,136.17c-.03,2.84.71,5.67,2,7.99,2.69,4.91,7.89,8.27,13.89,8.34l252.93,1.41,50.31,74.42,60.74-30.55h0l62.41-42.31c.05,0,4.61-3.15,4.64-3.18l63.63-68.08-219.29-147.17L76.07,7.95,9.56,71.08Z"/>
        <path class="cls-35" d="m11.45,71.02c-1.38,1.49-2.48,3.26-3.19,5.21-.64,1.67-1,3.63-1.01,5.53l-.52,135.33-.53,135.25c-.02,2.8.7,5.65,1.97,7.93,2.65,4.88,7.81,8.23,13.76,8.3l251.35,1.44,50.51,73.18,60.51-30.01h0l62.22-41.57c.08,0,4.58-3.1,4.62-3.15l61.8-67.35-217.66-145.85L77.57,9.38,11.45,71.02Z"/>
        <path class="cls-38" d="m13.33,70.97c-1.37,1.48-2.45,3.24-3.15,5.18-.63,1.65-.98,3.62-.99,5.49l-.47,134.43-.47,134.32c-.02,2.75.69,5.63,1.94,7.87,2.61,4.85,7.73,8.19,13.63,8.27l249.78,1.48,50.71,71.94,60.28-29.48h0l62.02-40.84c.11.01,4.55-3.06,4.61-3.12l59.96-66.62-216.03-144.52L79.07,10.8,13.33,70.97Z"/>
        <path class="cls-18" d="m15.22,70.91c-1.36,1.47-2.43,3.22-3.11,5.15-.62,1.62-.96,3.61-.97,5.44l-.41,133.53-.41,133.39c-.02,2.7.68,5.61,1.9,7.81,2.57,4.82,7.65,8.15,13.5,8.23l248.2,1.51,50.9,70.7,60.06-28.94h0l61.82-40.1c.13.02,4.53-3.01,4.6-3.09l58.13-65.89-214.4-143.2L80.56,12.23,15.22,70.91Z"/>
        <path class="cls-20" d="m17.11,70.86c-1.35,1.46-2.41,3.2-3.08,5.12-.61,1.59-.94,3.59-.95,5.4l-.35,132.63-.35,132.47c-.02,2.65.67,5.6,1.87,7.76,2.53,4.79,7.57,8.11,13.37,8.2l246.63,1.55,51.1,69.46,59.83-28.41h0l61.63-39.36c.16.02,4.5-2.96,4.59-3.06l56.3-65.16-212.77-141.88L82.06,13.66,17.11,70.86Z"/>
        <path class="cls-59" d="m19,70.81c-1.34,1.45-2.39,3.18-3.04,5.1-.6,1.56-.92,3.58-.94,5.35l-.29,131.73-.29,131.54c-.02,2.6.66,5.58,1.84,7.7,2.49,4.75,7.49,8.07,13.24,8.17l245.06,1.58,51.3,68.23,59.6-27.87h0l61.43-38.63c.19.02,4.47-2.91,4.58-3.02l54.47-64.43-211.14-140.55L83.56,15.09,19,70.81Z"/>
        <path class="cls-29" d="m20.89,70.75c-1.33,1.44-2.36,3.16-3,5.07-.59,1.53-.9,3.57-.92,5.31l-.23,130.84-.23,130.62c-.02,2.55.65,5.56,1.81,7.64,2.45,4.72,7.41,8.03,13.11,8.13l243.48,1.62,51.5,66.99,59.37-27.34h0l61.24-37.89c.21.03,4.45-2.86,4.56-2.99l52.63-63.7-209.51-139.23L85.06,16.52,20.89,70.75Z"/>
        <path class="cls-60" d="m22.78,70.7c-1.32,1.43-2.34,3.14-2.96,5.04-.58,1.5-.88,3.56-.9,5.26l-.17,129.94-.17,129.69c-.02,2.51.64,5.54,1.78,7.58,2.41,4.69,7.33,7.99,12.98,8.1l241.91,1.65,51.7,65.75,59.14-26.8h0l61.04-37.16c.24.03,4.42-2.81,4.55-2.96l50.8-62.96-207.89-137.9L86.56,17.95l-63.78,52.75Z"/>
        <path class="cls-49" d="m24.67,70.64c-1.31,1.42-2.32,3.12-2.93,5.01-.56,1.47-.86,3.54-.88,5.22l-.11,129.04-.12,128.77c-.02,2.46.63,5.52,1.75,7.53,2.37,4.66,7.25,7.95,12.85,8.06l240.33,1.69,51.9,64.51,58.91-26.26h0l60.84-36.42c.27.04,4.39-2.77,4.54-2.93l48.97-62.23-206.26-136.58L88.05,19.37l-63.39,51.27Z"/>
        <path class="cls-2" d="m26.55,70.59c-1.3,1.41-2.3,3.1-2.89,4.98-.55,1.44-.84,3.53-.86,5.17l-.05,128.14-.06,127.84c-.02,2.41.62,5.5,1.72,7.47,2.33,4.63,7.17,7.91,12.72,8.03l238.76,1.72,52.1,63.27,58.68-25.73h0l60.65-35.68c.3.04,4.37-2.72,4.53-2.9l47.14-61.5-204.63-135.25L89.55,20.8l-63,49.78Z"/>
        <path class="cls-10" d="m28.44,70.53c-1.29,1.4-2.28,3.08-2.85,4.95-.54,1.41-.83,3.52-.84,5.12v127.25s.02,126.92.02,126.92c-.02,2.36.61,5.49,1.69,7.41,2.29,4.6,7.09,7.87,12.59,8l237.19,1.76,52.29,62.03,58.45-25.2h0l60.45-34.95c.32.04,4.34-2.67,4.51-2.86l45.31-60.77-203-133.93L91.05,22.23l-62.61,48.3Z"/>
        <path class="cls-41" d="m30.33,70.48c-1.28,1.39-2.25,3.06-2.82,4.93-.53,1.39-.81,3.51-.82,5.08l.07,126.35.06,125.99c-.02,2.31.6,5.47,1.66,7.35,2.25,4.57,7.01,7.83,12.46,7.96l235.61,1.8,52.49,60.8,58.22-24.66h0l60.26-34.21c.35.05,4.31-2.62,4.5-2.83l43.47-60.04-201.37-132.6L92.55,23.66l-62.22,46.82Z"/>
        <path class="cls-15" d="m32.22,70.42c-1.27,1.38-2.23,3.04-2.78,4.9-.52,1.36-.79,3.49-.8,5.03l.13,125.45.12,125.07c-.02,2.27.59,5.45,1.62,7.29,2.21,4.54,6.93,7.79,12.33,7.93l234.04,1.83,52.69,59.56,57.99-24.12h0l60.06-33.48c.38.05,4.29-2.57,4.49-2.8l41.64-59.31-199.74-131.28L94.05,25.09l-61.83,45.33Z"/>
        <path class="cls-58" d="m34.11,70.37c-1.26,1.37-2.21,3.02-2.74,4.87-.51,1.33-.77,3.48-.78,4.99l.19,124.55.18,124.14c-.02,2.22.58,5.43,1.59,7.24,2.18,4.51,6.85,7.75,12.2,7.89l232.46,1.87,52.89,58.32,57.76-23.59h0l59.86-32.74c.4.05,4.26-2.52,4.48-2.77l39.81-58.58-198.11-129.96L95.55,26.52l-61.44,43.85Z"/>
        <path class="cls-17" d="m36,70.31c-1.25,1.36-2.19,3-2.71,4.84-.5,1.3-.75,3.47-.76,4.94l.25,123.66.24,123.22c-.02,2.17.58,5.41,1.56,7.18,2.13,4.48,6.76,7.71,12.07,7.86l230.89,1.9,53.09,57.08,57.53-23.05h0l59.67-32c.43.06,4.23-2.48,4.47-2.74l37.98-57.84-196.48-128.63L97.04,27.95l-61.05,42.37Z"/>
        <path class="cls-11" d="m37.88,70.26c-1.24,1.34-2.17,2.98-2.67,4.81-.49,1.27-.73,3.46-.74,4.9l.31,122.76.3,122.29c-.02,2.12.57,5.39,1.53,7.12,2.1,4.45,6.68,7.67,11.94,7.83l229.32,1.94,53.29,55.84,57.3-22.52h0l59.47-31.27c.46.06,4.2-2.43,4.45-2.7l36.14-57.11-194.86-127.31L98.54,29.37l-60.66,40.89Z"/>
        <path class="cls-30" d="m39.77,70.2c-1.23,1.33-2.14,2.96-2.63,4.78-.48,1.24-.71,3.44-.72,4.85l.37,121.86.36,121.37c-.02,2.07.56,5.37,1.5,7.06,2.06,4.42,6.6,7.63,11.81,7.79l227.74,1.97,53.49,54.6,57.07-21.98h0l59.27-30.53c.48.06,4.18-2.38,4.44-2.67l34.31-56.38-193.23-125.98L100.04,30.8l-60.27,39.4Z"/>
        <path class="cls-65" d="m41.66,70.15c-1.22,1.32-2.12,2.94-2.59,4.76-.46,1.21-.69,3.43-.71,4.81l.43,120.96.41,120.44c-.02,2.02.55,5.36,1.47,7,2.02,4.38,6.52,7.59,11.68,7.76l226.17,2.01,53.69,53.37,56.84-21.45h0l59.08-29.8c.51.07,4.15-2.33,4.43-2.64l32.48-55.65-191.6-124.66L101.54,32.23l-59.88,37.92Z"/>
        <path class="cls-6" d="m43.55,70.09c-1.21,1.31-2.1,2.92-2.56,4.73-.45,1.18-.67,3.42-.69,4.76l.49,120.06.47,119.52c-.02,1.98.54,5.34,1.44,6.95,1.98,4.35,6.44,7.55,11.55,7.72l224.6,2.04,53.89,52.13,56.61-20.91h0l58.88-29.06c.54.07,4.12-2.28,4.42-2.61l30.65-54.92-189.97-123.33L103.04,33.66l-59.49,36.44Z"/>
        <path class="cls-9" d="m45.44,70.04c-1.2,1.3-2.08,2.9-2.52,4.7-.44,1.15-.66,3.41-.67,4.72l.55,119.17.53,118.59c-.02,1.93.53,5.32,1.41,6.89,1.94,4.32,6.36,7.51,11.42,7.69l223.02,2.08,54.09,50.89,56.38-20.38h0l58.68-28.33c.56.07,4.1-2.24,4.41-2.58l28.82-54.19-188.34-122.01L104.54,35.09l-59.1,34.95Z"/>
        <path class="cls-56" d="m47.33,69.98c-1.19,1.29-2.06,2.88-2.48,4.67-.43,1.13-.64,3.4-.65,4.67l.61,118.27.59,117.67c-.02,1.88.52,5.3,1.38,6.83,1.9,4.29,6.28,7.47,11.29,7.66l221.45,2.11,54.28,49.65,56.15-19.84h0l58.49-27.59c.59.08,4.07-2.19,4.39-2.54l26.98-53.45-186.71-120.69L106.03,36.52l-58.71,33.47Z"/>
        <path class="cls-23" d="m49.22,69.93c-1.18,1.28-2.03,2.86-2.44,4.64-.42,1.1-.62,3.38-.63,4.63l.67,117.37.65,116.74c-.02,1.83.51,5.28,1.34,6.77,1.86,4.26,6.2,7.43,11.16,7.62l219.87,2.15,54.48,48.41,55.92-19.31h0l58.29-26.85c.62.08,4.04-2.14,4.38-2.51l25.15-52.72-185.08-119.36L107.53,37.94l-58.32,31.99Z"/>
        <path class="cls-43" d="m51.1,69.88c-1.17,1.27-2.01,2.85-2.41,4.61-.41,1.07-.6,3.37-.61,4.58l.73,116.47.71,115.82c-.02,1.78.5,5.26,1.31,6.72,1.82,4.23,6.12,7.39,11.03,7.59l218.3,2.18,54.68,47.17,55.69-18.77h0l58.1-26.12c.64.08,4.02-2.09,4.37-2.48l23.32-51.99-183.46-118.04L109.03,39.37l-57.93,30.5Z"/>
        <path class="cls-32" d="m52.99,69.82c-1.16,1.26-1.99,2.83-2.37,4.59-.4,1.04-.58,3.36-.59,4.54l.79,115.58.77,114.89c-.02,1.74.49,5.24,1.28,6.66,1.78,4.2,6.04,7.36,10.9,7.55l216.73,2.22,54.88,45.93,55.46-18.24h0l57.9-25.38c.67.09,3.99-2.04,4.36-2.45l21.49-51.26-181.83-116.71L110.53,40.8l-57.54,29.02Z"/>
        <path class="cls-54" d="m54.88,69.77c-1.15,1.25-1.97,2.81-2.33,4.56-.39,1.01-.56,3.35-.57,4.49l.85,114.68.83,113.97c-.01,1.69.48,5.23,1.25,6.6,1.74,4.17,5.96,7.31,10.77,7.52l215.15,2.25,55.08,44.7,55.23-17.7h0l57.7-24.65c.7.09,3.96-1.99,4.35-2.42l19.65-50.53-180.2-115.39L112.03,42.23l-57.15,27.54Z"/>
        <path class="cls-21" d="m56.77,69.71c-1.14,1.24-1.95,2.79-2.3,4.53-.38.98-.54,3.33-.55,4.45l.91,113.78.89,113.04c-.01,1.64.47,5.21,1.22,6.54,1.7,4.14,5.88,7.27,10.64,7.49l213.58,2.29,55.28,43.46,55-17.17h0l57.51-23.91c.73.09,3.94-1.95,4.33-2.38l17.82-49.8-178.57-114.06L113.53,43.66l-56.76,26.05Z"/>
        <path class="cls-55" d="m58.66,69.66c-1.13,1.23-1.92,2.77-2.26,4.5-.36.95-.52,3.32-.53,4.4l.97,112.88.95,112.12c-.01,1.59.47,5.19,1.19,6.49,1.66,4.11,5.8,7.23,10.51,7.45l212,2.32,55.48,42.22,54.77-16.63h0l57.31-23.18c.75.1,3.91-1.9,4.32-2.35l15.99-49.06-176.94-112.74L115.03,45.09l-56.37,24.57Z"/>
        <path class="cls-34" d="m60.55,69.6c-1.12,1.22-1.9,2.75-2.22,4.47-.35.92-.5,3.31-.51,4.36l1.03,111.99,1,111.19c-.01,1.54.46,5.17,1.16,6.43,1.62,4.08,5.71,7.19,10.38,7.42l210.43,2.36,55.67,40.98,54.54-16.1h0l57.12-22.44c.78.1,3.88-1.85,4.31-2.32l14.16-48.33-175.31-111.41L116.52,46.51l-55.98,23.09Z"/>
        <path class="cls-22" d="m62.43,69.55c-1.11,1.21-1.88,2.73-2.18,4.45-.34.89-.48,3.3-.49,4.31l1.09,111.09,1.06,110.27c-.01,1.49.45,5.15,1.13,6.37,1.58,4.05,5.63,7.16,10.25,7.38l208.86,2.39,55.87,39.74,54.31-15.56h0l56.92-21.7c.81.11,3.86-1.8,4.3-2.29l12.33-47.6-173.68-110.09L118.02,47.94l-55.59,21.6Z"/>
        <path class="cls-39" d="m64.32,69.49c-1.1,1.2-1.86,2.71-2.15,4.42-.33.87-.47,3.28-.47,4.27l1.15,110.19,1.12,109.34c-.01,1.45.44,5.13,1.09,6.31,1.54,4.01,5.55,7.12,10.12,7.35l207.28,2.43,56.07,38.5,54.08-15.03h0l56.72-20.97c.83.11,3.83-1.75,4.29-2.25l10.49-46.87-172.05-108.77L119.52,49.37l-55.2,20.12Z"/>
        <path class="cls-8" d="m66.21,69.44c-1.09,1.18-1.84,2.69-2.11,4.39-.32.84-.45,3.27-.45,4.22l1.21,109.29,1.18,108.42c-.01,1.4.43,5.11,1.06,6.25,1.5,3.98,5.47,7.08,9.99,7.31l205.71,2.47,56.27,37.27,53.85-14.49h0l56.53-20.23c.86.11,3.8-1.7,4.27-2.22l8.66-46.14-170.43-107.44L121.02,50.8l-54.81,18.64Z"/>
        <path class="cls-26" d="m68.1,69.38c-1.08,1.17-1.81,2.67-2.07,4.36-.31.81-.43,3.26-.44,4.18l1.27,108.39,1.24,107.49c-.01,1.35.42,5.1,1.03,6.2,1.46,3.95,5.39,7.04,9.86,7.28l204.13,2.5,56.47,36.03,53.62-13.96h0l56.33-19.5c.89.12,3.78-1.66,4.26-2.19l6.83-45.41-168.8-106.12L122.52,52.23l-54.42,17.15Z"/>
        <path class="cls-25" d="m69.99,69.33c-1.07,1.16-1.79,2.65-2.03,4.33-.3.78-.41,3.25-.42,4.13l1.33,107.5,1.3,106.57c-.01,1.3.41,5.08,1,6.14,1.42,3.92,5.31,7,9.73,7.25l202.56,2.54,56.67,34.79,53.39-13.42h0l56.13-18.76c.91.12,3.75-1.61,4.25-2.16l5-44.67-167.17-104.79L124.02,53.66l-54.03,15.67Z"/>
        <path class="cls-33" d="m71.88,69.27c-1.06,1.15-1.77,2.63-2,4.3-.29.75-.39,3.23-.4,4.09l1.39,106.6,1.36,105.64c-.01,1.25.4,5.06.97,6.08,1.38,3.89,5.23,6.96,9.6,7.21l200.99,2.57,56.87,33.55,53.16-12.89h0l55.94-18.02c.94.12,3.72-1.56,4.24-2.13l3.16-43.94-165.54-103.47L125.51,55.08l-53.64,14.19Z"/>
        <path class="cls-37" d="m73.77,69.22c-1.05,1.14-1.75,2.61-1.96,4.28-.28.72-.37,3.22-.38,4.04l1.45,105.7,1.42,104.72c-.01,1.21.39,5.04.94,6.02,1.34,3.86,5.15,6.92,9.47,7.18l199.41,2.61,57.07,32.31,52.93-12.35h0l55.74-17.29c.97.13,3.7-1.51,4.22-2.09l1.33-43.21-163.91-102.14L127.01,56.51l-53.25,12.71Z"/>
        <path class="cls-7" d="m75.65,69.16c-1.04,1.13-1.72,2.59-1.92,4.25-.26.69-.35,3.21-.36,4l1.51,104.8,1.48,103.79c-.01,1.16.38,5.02.91,5.96,1.3,3.83,5.07,6.88,9.34,7.15l197.84,2.64,57.27,31.07,52.7-11.82h0l55.55-16.55c.99.13,3.67-1.46,4.21-2.06l-.5-42.48-162.28-100.82L128.51,57.94l-52.86,11.22Z"/>
        <path class="cls-24" d="m77.54,69.11c-1.03,1.12-1.7,2.57-1.89,4.22-.25.66-.33,3.2-.34,3.95l1.57,103.91,1.53,102.87c0,1.11.37,5,.88,5.91,1.26,3.8,4.99,6.84,9.21,7.11l196.26,2.68,57.46,29.84,52.47-11.28h0l55.35-15.82c1.02.13,3.64-1.41,4.2-2.03l-2.33-41.75-160.65-99.5L130.01,59.37l-52.47,9.74Z"/>
        <path class="cls-61" d="m79.43,69.05c-1.02,1.11-1.68,2.55-1.85,4.19-.24.64-.31,3.18-.32,3.91l1.63,103.01,1.59,101.94c0,1.06.37,4.99.85,5.85,1.22,3.77,4.91,6.8,9.08,7.08l194.69,2.71,57.66,28.6,52.24-10.75h0l55.15-15.08c1.05.14,3.62-1.37,4.19-2l-4.17-41.02-159.03-98.17L131.51,60.8l-52.08,8.26Z"/>
        <path class="cls-52" d="m81.32,69c-1,1.1-1.66,2.53-1.81,4.16-.23.61-.3,3.17-.3,3.86l1.69,102.11,1.65,101.02c0,1.01.36,4.97.82,5.79,1.18,3.74,4.83,6.76,8.95,7.04l193.12,2.75,57.86,27.36,52.01-10.21h0l54.96-14.34c1.07.14,3.59-1.32,4.17-1.97l-6-40.29-157.4-96.85L133,62.23l-51.69,6.77Z"/>
        <path class="cls-14" d="m83.21,68.95c-1,1.09-1.64,2.51-1.78,4.13-.22.58-.28,3.16-.28,3.81l1.75,101.21,1.71,100.09c0,.96.35,4.95.78,5.73,1.14,3.71,4.75,6.72,8.82,7.01l191.54,2.78,58.06,26.12,51.78-9.68h0l54.76-13.61c1.1.14,3.56-1.27,4.16-1.93l-7.83-39.55-155.77-95.52L134.5,63.66l-51.3,5.29Z"/>
        <path class="cls-47" d="m85.1,68.89c-.98,1.08-1.61,2.49-1.74,4.11-.21.55-.26,3.15-.26,3.77l1.81,100.31,1.77,99.17c0,.92.34,4.93.75,5.68,1.1,3.68,4.67,6.68,8.69,6.97l189.97,2.82,58.26,24.88,51.55-9.14h0l54.57-12.87c1.13.15,3.53-1.22,4.15-1.9l-9.66-38.82-154.14-94.2-154.81-94.58-50.91,3.81Z"/>
        <path class="cls-3" d="m86.98,68.84c-.97,1.07-1.59,2.47-1.7,4.08-.2.52-.24,3.13-.24,3.72l1.87,99.42,1.83,98.24c0,.87.33,4.91.72,5.62,1.06,3.64,4.59,6.64,8.56,6.94l188.39,2.85,58.46,23.64,51.32-8.61h0l54.37-12.14c1.15.15,3.51-1.17,4.14-1.87l-11.49-38.09-152.51-92.87-153.2-93.26-50.52,2.32Z"/>
        <path class="cls-5" d="m88.87,68.78c-.96,1.06-1.57,2.45-1.66,4.05-.19.49-.22,3.12-.22,3.68l1.93,98.52,1.89,97.32c0,.82.32,4.89.69,5.56,1.02,3.61,4.5,6.6,8.43,6.91l186.82,2.89,58.66,22.41,51.09-8.07h0l54.17-11.4c1.18.15,3.48-1.12,4.13-1.84l-13.33-37.36-150.88-91.55-151.59-91.94-50.13.84Z"/>
        <path class="cls-12" d="m90.76,68.73c-.95,1.05-1.55,2.43-1.62,4.02-.18.46-.2,3.11-.2,3.63l1.99,97.62,1.95,96.39c0,.77.31,4.87.66,5.5.99,3.58,4.42,6.56,8.3,6.87l185.25,2.92,58.86,21.17,50.86-7.54h0l53.98-10.66c1.21.16,3.46-1.08,4.11-1.81l-15.16-36.63-149.25-90.22-149.98-90.63-49.74-.64Z"/>
        <path class="cls-19" d="m92.65,68.67c-.94,1.04-1.53,2.41-1.59,3.99-.17.43-.18,3.1-.19,3.59l2.05,96.72,2.01,95.47c0,.72.3,4.85.63,5.44.95,3.55,4.34,6.52,8.17,6.84l183.67,2.96,59.06,19.93,50.63-7h0l53.78-9.93c1.24.16,3.43-1.03,4.1-1.77l-16.99-35.9-147.63-88.9-148.36-89.31-49.35-2.13Z"/>
        <path class="cls-1" d="m94.54,68.62c-.93,1.02-1.5,2.39-1.55,3.96-.15.4-.16,3.08-.17,3.54l2.11,95.83,2.07,94.54c0,.67.29,4.84.6,5.39.91,3.52,4.26,6.48,8.04,6.8l182.1,2.99,59.26,18.69,50.4-6.47h0l53.58-9.19c1.26.16,3.4-.98,4.09-1.74l-18.82-35.16-146-87.58-146.75-88-48.96-3.61Z"/>
        <path class="cls-64" d="m96.43,68.56c-.92,1.01-1.48,2.37-1.51,3.94-.14.38-.14,3.07-.15,3.5l2.17,94.93,2.12,93.62c0,.63.28,4.82.57,5.33.87,3.49,4.18,6.44,7.91,6.77l180.52,3.03,59.45,17.45,50.17-5.93h0l53.39-8.46c1.29.17,3.37-.93,4.08-1.71l-20.66-34.43-144.37-86.25-145.14-86.68-48.57-5.09Z"/>
        <path class="cls-27" d="m98.32,68.51c-.91,1-1.46,2.36-1.48,3.91-.13.35-.12,3.06-.13,3.45l2.23,94.03,2.18,92.69c0,.58.27,4.8.54,5.27.83,3.46,4.1,6.4,7.78,6.74l178.95,3.07,59.65,16.21,49.94-5.39h0l53.19-7.72c1.32.17,3.35-.88,4.07-1.68l-22.49-33.7-142.74-84.93-143.53-85.37-48.17-6.58Z"/>
        <path class="cls-51" d="m100.2,68.45c-.9.99-1.44,2.34-1.44,3.88-.12.32-.11,3.05-.11,3.41l2.29,93.13,2.24,91.77c0,.53.26,4.78.5,5.21.79,3.43,4.02,6.36,7.65,6.7l177.38,3.1,59.85,14.97,49.71-4.86h0l53-6.99c1.34.17,3.32-.83,4.05-1.65l-24.32-32.97-141.11-83.6-141.91-84.05-47.79-8.06Z"/>
        <path class="cls-36" d="m102.09,68.4c-.89.98-1.42,2.31-1.4,3.85-.11.29-.09,3.03-.09,3.36l2.35,92.23,2.3,90.84c0,.48.25,4.76.47,5.16.75,3.4,3.94,6.32,7.52,6.67l175.8,3.14,60.05,13.74,49.48-4.32h0l52.8-6.25c1.37.18,3.29-.79,4.04-1.61l-26.15-32.24-139.48-82.28-140.3-82.74-47.39-9.54Z"/>
        <path class="cls-16" d="m103.98,68.34c-.88.97-1.39,2.3-1.37,3.82-.1.26-.07,3.02-.07,3.32l2.41,91.34,2.36,89.92c0,.43.25,4.74.44,5.1.71,3.37,3.86,6.28,7.39,6.63l174.23,3.17,60.25,12.5,49.25-3.79h0l52.6-5.51c1.4.18,3.27-.74,4.03-1.58l-27.98-31.51-137.85-80.95-138.69-81.42-47-11.02Z"/>
        <path class="cls-13" d="m105.87,68.29c-.87.96-1.37,2.28-1.33,3.8-.09.23-.05,3.01-.05,3.27l2.47,90.44,2.42,88.99c0,.39.24,4.73.41,5.04.67,3.34,3.78,6.24,7.26,6.6l172.66,3.21,60.45,11.26,49.02-3.25h0l52.41-4.78c1.42.19,3.24-.69,4.02-1.55l-29.82-30.77-136.22-79.63-137.08-80.11-46.62-12.51Z"/>
        <path class="cls-53" d="m107.76,68.23c-.86.95-1.35,2.26-1.29,3.77-.08.2-.03,3-.03,3.23l2.53,89.54,2.48,88.07c0,.34.23,4.71.38,4.98.63,3.31,3.7,6.2,7.13,6.57l171.08,3.24,60.65,10.02,48.79-2.72h0l52.21-4.04c1.45.19,3.21-.64,4.01-1.52l-31.65-30.04-134.6-78.31-135.46-78.79-46.22-13.99Z"/>
        <path class="cls-44" d="m109.65,68.18c-.85.94-1.33,2.24-1.25,3.74-.07.17-.01,2.98-.01,3.18l2.59,88.64,2.54,87.14c0,.29.22,4.69.35,4.92.59,3.27,3.62,6.16,7,6.53l169.51,3.28,60.84,8.78,48.57-2.18h0l52.01-3.31c1.48.19,3.19-.59,3.99-1.49l-33.48-29.31-132.97-76.98-133.85-77.48-45.83-15.47Z"/>
        <path class="cls-48" d="m111.53,68.12c-.84.93-1.3,2.22-1.22,3.71-.05.14,0,2.97,0,3.14l2.65,87.75,2.6,86.22c0,.24.21,4.67.32,4.87.55,3.24,3.54,6.12,6.87,6.5l167.93,3.31,61.04,7.54,48.34-1.65h0l51.82-2.57c1.5.2,3.16-.54,3.98-1.45l-35.31-28.58-131.34-75.66-132.24-76.16-45.44-16.96Z"/>
        <path class="cls-63" d="m113.42,68.07c-.83.92-1.28,2.2-1.18,3.68-.04.12.03,2.96.03,3.09l2.71,86.85,2.66,85.29c0,.19.2,4.65.29,4.81.51,3.21,3.46,6.08,6.74,6.46l166.36,3.35,61.24,6.31,48.11-1.11h0l51.62-1.84c1.53.2,3.13-.5,3.97-1.42l-37.15-27.85-129.71-74.33-130.63-74.85-45.05-18.44Z"/>
        <path class="cls-57" d="m115.31,68.02c-.82.91-1.26,2.18-1.14,3.65-.03.09.05,2.95.04,3.05l2.77,85.95,2.71,84.37c0,.14.19,4.63.25,4.75.47,3.18,3.38,6.04,6.61,6.43l164.79,3.38,61.44,5.07,47.88-.58h0l51.43-1.1c1.56.2,3.11-.45,3.96-1.39l-38.98-27.12-128.08-73.01-129.01-73.53-44.66-19.92Z"/>
        <path class="cls-62" d="m117.2,67.96c-.81.9-1.24,2.16-1.1,3.62-.02.06.06,2.94.06,3l2.83,85.05,2.77,83.44c0,.1.18,4.61.23,4.69.43,3.15,3.29,6,6.48,6.4l163.21,3.42,61.64,3.83,47.65-.04h0l51.23-.36c1.58.21,3.08-.4,3.94-1.36l-40.81-26.38-126.45-71.68-127.4-72.21-44.27-21.41Z"/>
        <path class="cls-31" d="m119.09,67.91c-.8.89-1.22,2.14-1.07,3.6-.01.03.08,2.92.08,2.96l2.89,84.16,2.83,82.52s.17,4.6.19,4.64c.39,3.12,3.21,5.96,6.35,6.36l161.64,3.45,61.84,2.59,47.42.49h0l51.03.37c1.61.21,3.05-.35,3.93-1.33l-42.64-25.65-124.82-70.36-125.79-70.9-43.88-22.89Z"/>
        <path class="cls-28" d="m120.98,67.85c-.79.88-1.19,2.12-1.03,3.57l3.05,86.17,3.05,86.17c.35,3.09,3.13,5.92,6.22,6.33l160.06,3.49,160.06,3.49c1.64.21,3.03-.3,3.92-1.29l-167.67-93.96L120.98,67.85Z"/>
      </g>
      <path class="cls-46" d="m505.36,0H82.64c-9.05,0-16.38,7.33-16.38,16.38v276.25c0,9.05,7.33,16.38,16.38,16.38h252.8v94.74l174.92-94.74h0c4.36,0,11.38-7.33,11.38-16.38V16.38c0-9.05-7.34-16.38-16.38-16.38Z"/>
      <path class="cls-40" d="m505.36,0H82.64c-5.06,0-9.58,2.3-12.59,5.9,2.84-2.37,6.49-3.8,10.48-3.8h422.72c9.05,0,16.38,7.33,16.38,16.38v276.25c0,3.99-1.43,7.64-3.8,10.48,3.61-3,5.9-7.53,5.9-12.59V16.38c0-9.05-7.34-16.38-16.38-16.38Z"/>
    </g>
    <rect class="cls-4" x="220.34" y="108.82" width="276" height="14"/>
    <rect class="cls-4" x="109.34" y="147.82" width="387" height="14"/>
    <rect class="cls-4" x="109.34" y="176.82" width="387" height="14"/>
    <rect class="cls-4" x="109.34" y="205.82" width="387" height="14"/>
  </g>
</svg>