<svg xmlns="http://www.w3.org/2000/svg" version="1.1" xmlns:xlink="http://www.w3.org/1999/xlink" width="1000" height="1000"><g clip-path="url(#SvgjsClipPath1093)"><rect width="1000" height="1000" fill="#1f1f1f"></rect><g transform="matrix(1.6241299303944317,0,0,1.6241299303944317,199.53596287703016,150)"><svg xmlns="http://www.w3.org/2000/svg" version="1.1" xmlns:xlink="http://www.w3.org/1999/xlink" width="370" height="431"><svg width="370" height="431" viewBox="0 0 370 431" fill="none" xmlns="http://www.w3.org/2000/svg">
<path d="M291.99 368.16V387.93H263.9L96.33 104.97C81.27 78.8805 76.76 59.8105 86.8 48.2705C69.24 56.8005 61.71 76.8705 61.71 111.49V323.21C61.71 349.8 50.67 370.87 32.61 380.91H92.3V387.93H0V380.91H5.01999C35.62 380.91 54.69 358.33 54.69 323.71V111.99C54.69 75.8705 62.71 54.2905 80.77 43.7605H44.16V36.7305H133.45V43.7605H128.44C114.39 43.7605 110.38 61.8205 129.94 94.9305L291.99 368.16Z" fill="white"></path>
<path d="M348.18 250.271C338.4 234.311 326.23 220.341 313.53 207.401C308.7 202.481 303.78 197.701 298.9 193.021C294.11 188.431 289.34 183.941 284.69 179.501C275.39 170.611 266.56 161.921 258.94 153.061C251.28 144.161 244.86 135.101 240.38 125.551C235.89 115.991 233.32 105.961 233.32 94.9206C233.32 76.4806 239.24 60.2406 249.91 48.6306C255.25 42.8206 261.77 38.1506 269.42 34.9206C272.85 33.4706 276.52 32.3306 280.4 31.4906L280.22 25.3906C275.58 26.3206 271.19 27.6606 267.08 29.4006C254.43 34.7406 244.43 43.7406 237.66 55.1006C230.89 66.4606 227.32 80.1406 227.32 94.9306C227.32 105.581 229.55 115.441 233.43 124.681C240.22 140.851 251.93 155.101 265.52 169.071C271.69 175.401 278.25 181.681 284.95 188.041C289.49 192.361 294.09 196.711 298.68 201.151C309.68 211.791 320.55 222.891 330.15 235.041C339.9 247.371 348.36 260.751 354.37 275.791C360.39 290.841 363.98 307.561 363.98 326.681C363.98 350.371 355.39 374.841 338.21 393.321C329.62 402.561 318.89 410.331 305.95 415.801C293.02 421.271 277.87 424.441 260.44 424.441C231.54 424.441 209.94 418.291 194.51 408.531C192.95 407.541 191.46 406.501 190.02 405.441C191.27 403.461 192.44 401.381 193.52 399.171C199.18 387.641 202.51 373.041 202.51 355.671C202.51 351.071 201.92 347.021 200.84 343.511C199.23 338.251 196.47 334.181 193.01 331.461C189.55 328.741 185.42 327.411 181.29 327.411C175.19 327.411 169.1 330.251 164.57 335.371C160.03 340.501 157.08 347.931 157.09 357.081C157.09 361.671 157.82 366.691 159.44 372.101C163.3 385.031 170.66 396.981 181.86 406.621C177.7 411.971 172.9 416.031 167.74 418.771C162.38 421.601 156.62 423.041 150.71 423.041C143.09 423.041 135.17 420.651 127.53 415.571C119.9 410.501 112.56 402.731 106.27 392.001L101.1 395.041C107.79 406.421 115.71 414.911 124.21 420.561C132.71 426.221 141.82 429.031 150.71 429.031C157.6 429.031 164.35 427.341 170.55 424.061C176.51 420.901 181.95 416.291 186.57 410.341C188.09 411.461 189.66 412.551 191.3 413.591C207.93 424.111 230.71 430.431 260.44 430.431C278.6 430.431 294.57 427.111 308.28 421.311C328.86 412.611 344.32 398.341 354.59 381.561C364.86 364.781 369.97 345.511 369.97 326.671C369.98 296.391 361.22 271.551 348.18 250.291V250.271ZM165.19 370.351C163.72 365.441 163.09 361.001 163.09 357.051C163.09 349.171 165.58 343.261 169.07 339.311C172.56 335.361 177.07 333.371 181.3 333.381C183.21 333.381 185.07 333.781 186.81 334.601C189.41 335.831 191.77 337.991 193.56 341.401C195.34 344.811 196.52 349.501 196.52 355.641C196.52 375.091 192.15 390.521 185.32 401.631C175.26 392.831 168.73 382.091 165.21 370.361L165.19 370.351Z" fill="white"></path>
<path d="M297.65 29.9304C299.67 29.9804 301.67 30.1104 303.62 30.3304C315.7 31.6404 326.31 35.9204 334.23 42.0604C339.04 45.7904 342.85 50.1904 345.46 55.0204C348.07 59.8604 349.48 65.1204 349.48 70.6704C349.48 76.3504 348.4 80.8104 346.83 84.3504C344.47 89.6604 340.97 92.9804 338.04 95.0204C336.58 96.0304 335.26 96.7104 334.34 97.1304C333.88 97.3404 333.51 97.4804 333.28 97.5704C333.16 97.6104 333.08 97.6404 333.03 97.6604L332.98 97.6804H332.99L333.53 99.4804L334.72 103.43C335 103.34 340.08 101.79 345.24 96.8904C347.82 94.4404 350.4 91.1304 352.32 86.8004C354.24 82.4704 355.49 77.1304 355.49 70.6804C355.49 64.1004 353.8 57.8304 350.75 52.1804C346.18 43.7104 338.6 36.6404 329.1 31.7004C321.7 27.8504 313.12 25.2804 303.81 24.3204C301.64 24.1004 299.43 23.9604 297.18 23.9204C296.69 23.9204 296.2 23.9004 295.7 23.9004C292.74 23.9004 289.86 24.0704 287.05 24.3704C286.84 26.1704 286.67 28.1904 286.56 30.4704C289.5 30.1104 292.54 29.9104 295.7 29.9104C296.36 29.9104 297.01 29.9304 297.66 29.9504L297.65 29.9304Z" fill="white"></path>
<path d="M290.69 386.67C290.7 387.01 290.84 387.32 291.07 387.55C291.29 387.77 291.61 387.92 291.95 387.93H291.98H292C292.69 387.93 293.26 387.37 293.28 386.67L298.66 201.12C294.08 196.69 289.48 192.33 284.93 188.01L290.69 386.66V386.67Z" fill="url(#paint0_linear_276_25)"></path>
<path d="M304.13 11.8C303.94 5.21 298.54 0 291.99 0C291.87 0 291.75 0 291.63 0C285.04 0.19 279.83 5.59 279.83 12.14C279.83 12.26 279.83 12.38 279.83 12.5L280.2 25.39L280.38 31.49L280.52 36.4L284.67 179.49C289.32 183.93 294.09 188.43 298.88 193.01L303.6 30.32C301.65 30.11 299.66 29.98 297.63 29.92C297.66 30.78 297.68 31.66 297.68 32.55C297.68 43.9 295.12 53.11 291.97 53.11C289.21 53.11 286.92 46.06 286.38 36.7C286.38 34.43 286.43 32.35 286.52 30.45C286.63 28.17 286.8 26.15 287.01 24.35C288.09 15.25 290.33 12 291.96 12C294.25 12 296.23 16.88 297.13 23.91C299.37 23.95 301.58 24.09 303.76 24.31L304.1 12.49C304.1 12.37 304.1 12.25 304.1 12.12C304.1 12.01 304.1 11.89 304.1 11.78L304.13 11.8Z" fill="url(#paint1_linear_276_25)"></path>
<defs>
<linearGradient id="paint0_linear_276_25" x1="291.8" y1="15.8798" x2="291.8" y2="340.78" gradientUnits="userSpaceOnUse">
<stop stop-color="#7F3B00"></stop>
<stop offset="0.28" stop-color="#E2B574"></stop>
<stop offset="0.38" stop-color="white"></stop>
<stop offset="0.49" stop-color="#FCE9AC"></stop>
<stop offset="1" stop-color="#874D0E"></stop>
</linearGradient>
<linearGradient id="paint1_linear_276_25" x1="291.99" y1="15.88" x2="291.99" y2="340.78" gradientUnits="userSpaceOnUse">
<stop stop-color="#7F3B00"></stop>
<stop offset="0.28" stop-color="#E2B574"></stop>
<stop offset="0.38" stop-color="white"></stop>
<stop offset="0.49" stop-color="#FCE9AC"></stop>
<stop offset="1" stop-color="#874D0E"></stop>
</linearGradient>
<clipPath id="SvgjsClipPath1093"><rect width="1000" height="1000" x="0" y="0" rx="350" ry="350"></rect></clipPath></defs>
</svg></svg></g></g></svg>